{
.appVersion = "1300";
DisplayStrings = (
"/phi_gran"
);
copyright = "Copyright 2020 Google Inc. All Rights Reserved.";
customParameters = (
{
name = glyphOrder;
value = (
.notdef,
NULL,
CR,
space,
nbspace,
ZWJ,
ZWNJ,
dottedCircle,
a_gran,
aa_gran,
i_gran,
ii_gran,
u_gran,
uu_gran,
ee_gran,
ai_gran,
oo_gran,
au_gran,
ka_gran,
kha_gran,
kha_gran.alt,
ga_gran,
ga_gran.flat,
gha_gran,
nga_gran,
ca_gran,
cha_gran,
ja_gran,
jha_gran,
nya_gran,
tta_gran,
ttha_gran,
ttha_gran.alt,
dda_gran,
ddha_gran,
nna_gran,
ta_gran,
ta_gran.flat,
tha_gran,
da_gran,
dha_gran,
na_gran,
na_gran.flat,
pa_gran,
pha_gran,
ba_gran,
bha_gran,
bha_gran.flat,
ma_gran,
ya_gran,
ra_gran,
la_gran,
lla_gran,
va_gran,
sha_gran,
ssa_gran,
ssa_gran.flat,
sa_gran,
ha_gran,
ha_gran.flat,
anusvaraAbove_gran,
candrabindu_gran,
anusvara_gran,
visarga_gran,
binducomb_gran,
nukta_gran,
avagraha_gran,
avagraha_gran.alt,
aaMatra_gran,
auLengthMark_gran,
rVocalicMatra_gran,
rVocalicMatra_gran.d1,
rVocalicMatra_gran.d1b,
rVocalicMatra_gran.d2,
rVocalicMatra_gran.d2b,
rVocalicMatra_gran.d3,
rVocalicMatra_gran.d4,
rVocalicMatra_gran.d4h3,
rVocalicMatra_gran.d3h3,
rVocalicMatra_gran.d3h2,
rVocalicMatra_gran.d2h3,
rVocalicMatra_gran.d2bh3,
rVocalicMatra_gran.d1h3,
rVocalicMatra_gran.d5h3,
ra_vattu_gran.w1b,
rrVocalicMatra_gran,
rrVocalicMatra_gran.d1,
rrVocalicMatra_gran.d1b,
rrVocalicMatra_gran.d2,
rrVocalicMatra_gran.d3,
rrVocalicMatra_gran.d4,
lVocalicMatra_gran,
llVocalicMatra_gran,
repha_gran,
yaPhalaa_gran,
yaPhalaa_gran.short,
repha_yaPhalaa,
repha_yaPhalaa.alt,
repha_yaPhalaa.short,
ra_vattu_gran,
ra_vattu_gran.d1,
ra_vattu_gran.d1b,
ra_vattu_gran.d1w1,
ra_vattu_gran.d1w3,
ra_vattu_gran.d2,
ra_vattu_gran.d2h2,
ra_vattu_gran.d2h3,
ra_vattu_gran.d2w2,
ra_vattu_gran.d3,
ra_vattu_gran.d3b,
ra_vattu_gran.d3h1,
ra_vattu_gran.d3h1w1,
ra_vattu_gran.d3h2,
ra_vattu_gran.d4,
ra_vattu_gran.d4h2,
ra_vattu_gran.d4bh2,
uMatra_gran,
uuMatra_gran,
iMatra_gran,
iiMatra_gran,
eeMatra_gran,
aiMatra_gran,
ooMatra_gran,

glyphs = (
{
glyphname = .notdef;
lastChange = "2020-05-24 21:48:52 +0000";
layers = (
{
layerId = "229B7033-F00A-4676-AEB9-BF59C6456AE0";
paths = (
{
closed = 1;
nodes = (
"505 0 LINE",
"505 714 LINE",
"94 714 LINE",
"94 0 LINE"
);
},
{
closed = 1;
nodes = (
"145 663 LINE",
"454 663 LINE",
"454 51 LINE",
"145 51 LINE"
);
}
);
width = 600;
}
);
},
{
glyphname = dottedCircle;
lastChange = "2020-05-24 21:48:52 +0000";
layers = (
{
anchors = (
{
name = anudatta;
position = "{295, -73}";
},
{
name = anusvara;
position = "{600, 0}";
},
{
name = bottom;
position = "{295, -12}";
},
{
name = bottom1;
position = "{295, -12}";
},
{
name = iiMatra;
position = "{387, 614}";
},
{
name = post;
position = "{600, 0}";
},
{
name = repha;
position = "{501, 0}";
},
{
name = svara;
position = "{295, 900}";
},
{
name = top;
position = "{295, 640}";
},
{
name = topright;
position = "{550, 566}";
},
{
name = vattu;
position = "{600, 0}";
},
{
name = virama;
position = "{436, 546}";
},
{
name = yaphalaa;
position = "{410, 0}";
}
);
guideLines = (
{
angle = 90;
position = "{2110, 366}";
}
);
layerId = "229B7033-F00A-4676-AEB9-BF59C6456AE0";
paths = (
{
closed = 1;
nodes = (
"114 267 OFFCURVE",
"125 278 OFFCURVE",
"125 291 CURVE SMOOTH",
"125 304 OFFCURVE",
"114 315 OFFCURVE",
"101 315 CURVE SMOOTH",
"88 315 OFFCURVE",
"77 304 OFFCURVE",
"77 291 CURVE SMOOTH",
"77 278 OFFCURVE",
"88 267 OFFCURVE",
"101 267 CURVE SMOOTH"
);
},
{
closed = 1;
nodes = (
"140 368 OFFCURVE",
"151 379 OFFCURVE",
"151 392 CURVE SMOOTH",
"151 405 OFFCURVE",
"140 416 OFFCURVE",
"127 416 CURVE SMOOTH",
"114 416 OFFCURVE",
"103 405 OFFCURVE",
"103 392 CURVE SMOOTH",
"103 379 OFFCURVE",
"114 368 OFFCURVE",
"127 368 CURVE SMOOTH"
);
},
{
closed = 1;
nodes = (
"211 438 OFFCURVE",
"222 449 OFFCURVE",
"222 462 CURVE SMOOTH",
"222 475 OFFCURVE",
"211 486 OFFCURVE",
"198 486 CURVE SMOOTH",
"185 486 OFFCURVE",
"174 475 OFFCURVE",
"174 462 CURVE SMOOTH",
"174 449 OFFCURVE",
"185 438 OFFCURVE",
"198 438 CURVE SMOOTH"
);
},
{
closed = 1;
nodes = (
"308 462 OFFCURVE",
"319 473 OFFCURVE",
"319 486 CURVE SMOOTH",
"319 499 OFFCURVE",
"308 510 OFFCURVE",
"295 510 CURVE SMOOTH",
"282 510 OFFCURVE",
"271 499 OFFCURVE",
"271 486 CURVE SMOOTH",
"271 473 OFFCURVE",
"282 462 OFFCURVE",
"295 462 CURVE SMOOTH"
);
},
{
closed = 1;
nodes = (
"405 438 OFFCURVE",
"416 449 OFFCURVE",
"416 462 CURVE SMOOTH",
"416 475 OFFCURVE",
"405 486 OFFCURVE",
"392 486 CURVE SMOOTH",
"379 486 OFFCURVE",
"368 475 OFFCURVE",
"368 462 CURVE SMOOTH",
"368 449 OFFCURVE",
"379 438 OFFCURVE",
"392 438 CURVE SMOOTH"
);
},
{
closed = 1;
nodes = (
"475 366 OFFCURVE",
"486 377 OFFCURVE",
"486 390 CURVE SMOOTH",
"486 403 OFFCURVE",
"475 414 OFFCURVE",
"462 414 CURVE SMOOTH",
"449 414 OFFCURVE",
"438 403 OFFCURVE",
"438 390 CURVE SMOOTH",
"438 377 OFFCURVE",
"449 366 OFFCURVE",
"462 366 CURVE SMOOTH"
);
},
{
closed = 1;
nodes = (
"505 267 OFFCURVE",
"516 278 OFFCURVE",
"516 291 CURVE SMOOTH",
"516 304 OFFCURVE",
"505 315 OFFCURVE",
"492 315 CURVE SMOOTH",
"479 315 OFFCURVE",
"468 304 OFFCURVE",
"468 291 CURVE SMOOTH",
"468 278 OFFCURVE",
"479 267 OFFCURVE",
"492 267 CURVE SMOOTH"
);
},
{
closed = 1;
nodes = (
"477 173 OFFCURVE",
"488 184 OFFCURVE",
"488 197 CURVE SMOOTH",
"488 210 OFFCURVE",
"477 221 OFFCURVE",
"464 221 CURVE SMOOTH",
"451 221 OFFCURVE",
"440 210 OFFCURVE",
"440 197 CURVE SMOOTH",
"440 184 OFFCURVE",
"451 173 OFFCURVE",
"464 173 CURVE SMOOTH"
);
},
{
closed = 1;
nodes = (
"406 101 OFFCURVE",
"417 112 OFFCURVE",
"417 125 CURVE SMOOTH",
"417 138 OFFCURVE",
"406 149 OFFCURVE",
"393 149 CURVE SMOOTH",
"380 149 OFFCURVE",
"369 138 OFFCURVE",
"369 125 CURVE SMOOTH",
"369 112 OFFCURVE",
"380 101 OFFCURVE",
"393 101 CURVE SMOOTH"
);
},
{
closed = 1;
nodes = (
"308 73 OFFCURVE",
"319 84 OFFCURVE",
"319 97 CURVE SMOOTH",
"319 110 OFFCURVE",
"308 121 OFFCURVE",
"295 121 CURVE SMOOTH",
"282 121 OFFCURVE",
"271 110 OFFCURVE",
"271 97 CURVE SMOOTH",
"271 84 OFFCURVE",
"282 73 OFFCURVE",
"295 73 CURVE SMOOTH"
);
},
{
closed = 1;
nodes = (
"211 100 OFFCURVE",
"222 111 OFFCURVE",
"222 124 CURVE SMOOTH",
"222 137 OFFCURVE",
"211 148 OFFCURVE",
"198 148 CURVE SMOOTH",
"185 148 OFFCURVE",
"174 137 OFFCURVE",
"174 124 CURVE SMOOTH",
"174 111 OFFCURVE",
"185 100 OFFCURVE",
"198 100 CURVE SMOOTH"
);
},
{
closed = 1;
nodes = (
"138 172 OFFCURVE",
"149 183 OFFCURVE",
"149 196 CURVE SMOOTH",
"149 209 OFFCURVE",
"138 220 OFFCURVE",
"125 220 CURVE SMOOTH",
"112 220 OFFCURVE",
"101 209 OFFCURVE",
"101 196 CURVE SMOOTH",
"101 183 OFFCURVE",
"112 172 OFFCURVE",
"125 172 CURVE SMOOTH"
);
}
);
width = 600;
}
);
unicode = 25CC;
category = Letter;
},
{
glyphname = a_gran;
lastChange = "2020-05-24 21:48:52 +0000";
layers = (
{
anchors = (
{
name = anudatta;
position = "{572, -60}";
},
{
name = anusvara;
position = "{1008, 0}";
},
{
name = post;
position = "{1008, 0}";
},
{
name = svara;
position = "{504, 900}";
},
{
name = top;
position = "{580, 640}";
},
{
name = vattu;
position = "{1008, 0}";
}
);
guideLines = (
{
position = "{773, 176}";
}
);
layerId = "229B7033-F00A-4676-AEB9-BF59C6456AE0";
paths = (
{
closed = 1;
nodes = (
"424 -12 OFFCURVE",
"514 72 OFFCURVE",
"514 200 CURVE SMOOTH",
"514 267 LINE",
"930 267 LINE",
"930 321 LINE",
"514 321 LINE",
"514 500 LINE",
"689 500 LINE",
"689 554 LINE",
"195 554 LINE",
"195 286 LINE",
"256 286 LINE",
"256 500 LINE",
"419 500 LINE",
"419 321 LINE",
"251 321 LINE SMOOTH",
"136 321 OFFCURVE",
"63 256 OFFCURVE",
"63 162 CURVE SMOOTH",
"63 51 OFFCURVE",
"136 -12 OFFCURVE",
"275 -12 CURVE SMOOTH"
);
},
{
closed = 1;
nodes = (
"189 42 OFFCURVE",
"125 76 OFFCURVE",
"125 160 CURVE SMOOTH",
"125 223 OFFCURVE",
"173 267 OFFCURVE",
"259 267 CURVE SMOOTH",
"419 267 LINE",
"419 189 LINE SMOOTH",
"419 82 OFFCURVE",
"351 42 OFFCURVE",
"270 42 CURVE SMOOTH"
);
},
{
closed = 1;
nodes = (
"842 150 LINE SMOOTH",
"842 79 OFFCURVE",
"824 42 OFFCURVE",
"772 42 CURVE SMOOTH",
"730 42 OFFCURVE",
"694 68 OFFCURVE",
"694 154 CURVE SMOOTH",
"694 284 LINE",
"629 284 LINE",
"629 153 LINE SMOOTH",
"629 51 OFFCURVE",
"676 -12 OFFCURVE",
"772 -12 CURVE SMOOTH",
"871 -12 OFFCURVE",
"930 60 OFFCURVE",
"930 150 CURVE SMOOTH",
"930 484 LINE",
"842 484 LINE"
);
}
);
width = 1008;
}
);
unicode = 11305;
},
{
glyphname = aa_gran;
lastChange = "2020-05-24 21:48:52 +0000";
layers = (
{
anchors = (
{
name = anudatta;
position = "{673, -293}";
},
{
name = anusvara;
position = "{1366, 0}";
},
{
name = post;
position = "{1356, 0}";
},
{
name = svara;
position = "{658, 900}";
},
{
name = top;
position = "{673, 640}";
},
{
name = vattu;
position = "{1356, 0}";
}
);
components = (
{
name = a_gran;
transform = "{1, 0, 0, 1, 165, 0}";
}
);
layerId = "229B7033-F00A-4676-AEB9-BF59C6456AE0";
paths = (
{
closed = 1;
nodes = (
"52 124 LINE",
"101 -76 OFFCURVE",
"299 -258 OFFCURVE",
"697 -258 CURVE SMOOTH",
"1066 -258 OFFCURVE",
"1309 -133 OFFCURVE",
"1309 95 CURVE SMOOTH",
"1309 224 OFFCURVE",
"1236 321 OFFCURVE",
"1066 321 CURVE SMOOTH",
"961 321 LINE",
"961 267 LINE",
"1055 267 LINE SMOOTH",
"1160 267 OFFCURVE",
"1221 207 OFFCURVE",
"1221 91 CURVE SMOOTH",
"1221 -94 OFFCURVE",
"1045 -204 OFFCURVE",
"702 -204 CURVE SMOOTH",
"381 -204 OFFCURVE",
"176 -79 OFFCURVE",
"120 124 CURVE"
);
}
);
width = 1379;
}
);
rightMetricsKey = ttha_gran;
unicode = 11306;
},
{
glyphname = i_gran;
lastChange = "2020-05-24 21:48:52 +0000";
layers = (
{
anchors = (
{
name = anudatta;
position = "{421, -60}";
},
{
name = anusvara;
position = "{906, 0}";
},
{
name = post;
position = "{843, 0}";
},
{
name = svara;
position = "{421, 900}";
},
{
name = top;
position = "{421, 640}";
},
{
name = vattu;
position = "{949, 0}";
}
);
layerId = "229B7033-F00A-4676-AEB9-BF59C6456AE0";
paths = (
{
closed = 1;
nodes = (
"490 135 LINE SMOOTH",
"689 135 OFFCURVE",
"826 193 OFFCURVE",
"826 370 CURVE SMOOTH",
"826 510 OFFCURVE",
"726 559 OFFCURVE",
"645 559 CURVE SMOOTH",
"573 559 OFFCURVE",
"504 521 OFFCURVE",
"476 450 CURVE",
"444 522 OFFCURVE",
"367 559 OFFCURVE",
"288 559 CURVE SMOOTH",
"160 559 OFFCURVE",
"60 484 OFFCURVE",
"60 378 CURVE SMOOTH",
"60 307 OFFCURVE",
"123 233 OFFCURVE",
"215 233 CURVE SMOOTH",
"290 233 OFFCURVE",
"352 274 OFFCURVE",
"352 342 CURVE SMOOTH",
"352 421 OFFCURVE",
"298 466 OFFCURVE",
"232 466 CURVE SMOOTH",
"180 466 OFFCURVE",
"108 435 OFFCURVE",
"98 329 CURVE",
"123 295 LINE",
"131 384 OFFCURVE",
"169 411 OFFCURVE",
"209 411 CURVE SMOOTH",
"245 411 OFFCURVE",
"268 385 OFFCURVE",
"268 345 CURVE SMOOTH",
"268 310 OFFCURVE",
"248 282 OFFCURVE",
"207 282 CURVE SMOOTH",
"161 282 OFFCURVE",
"114 312 OFFCURVE",
"114 384 CURVE SMOOTH",
"114 459 OFFCURVE",
"190 510 OFFCURVE",
"271 510 CURVE SMOOTH",
"366 510 OFFCURVE",
"429 456 OFFCURVE",
"429 351 CURVE SMOOTH",
"429 296 LINE",
"516 296 LINE",
"516 375 LINE SMOOTH",
"516 450 OFFCURVE",
"562 510 OFFCURVE",
"635 510 CURVE SMOOTH",
"704 510 OFFCURVE",
"739 456 OFFCURVE",
"739 379 CURVE SMOOTH",
"739 239 OFFCURVE",
"630 189 OFFCURVE",
"490 189 CURVE SMOOTH",
"192 189 LINE SMOOTH",
"128 189 OFFCURVE",
"87 154 OFFCURVE",
"87 94 CURVE SMOOTH",
"87 35 OFFCURVE",
"128 0 OFFCURVE",
"192 0 CURVE SMOOTH",
"826 0 LINE",
"826 54 LINE",
"184 54 LINE SMOOTH",
"163 54 OFFCURVE",
"145 69 OFFCURVE",
"145 94 CURVE SMOOTH",
"145 120 OFFCURVE",
"163 135 OFFCURVE",
"184 135 CURVE SMOOTH"
);
}
);
width = 906;
}
);
unicode = 11307;
},
{
glyphname = ii_gran;
lastChange = "2020-05-24 21:48:52 +0000";
layers = (
{
anchors = (
{
name = anudatta;
position = "{597, -60}";
},
{
name = anusvara;
position = "{1244, 0}";
},
{
name = post;
position = "{1194, 0}";
},
{
name = svara;
position = "{597, 900}";
},
{
name = top;
position = "{597, 640}";
},
{
name = vattu;
position = "{1287, 0}";
}
);
components = (
{
name = anusvaraAbove_gran;
transform = "{1, 0, 0, 1, 374, -469}";
},
{
name = anusvaraAbove_gran;
transform = "{1, 0, 0, 1, 1258, -469}";
}
);
guideLines = (
{
angle = 90;
position = "{1724, 502}";
}
);
layerId = "229B7033-F00A-4676-AEB9-BF59C6456AE0";
paths = (
{
closed = 1;
nodes = (
"418 0 LINE",
"418 500 LINE",
"1012 500 LINE",
"1012 554 LINE",
"358 554 LINE",
"358 0 LINE"
);
},
{
closed = 1;
nodes = (
"826 554 LINE",
"826 210 LINE SMOOTH",
"826 76 OFFCURVE",
"783 54 OFFCURVE",
"728 54 CURVE SMOOTH",
"674 54 OFFCURVE",
"639 87 OFFCURVE",
"639 196 CURVE SMOOTH",
"639 554 LINE",
"544 554 LINE",
"544 195 LINE SMOOTH",
"544 50 OFFCURVE",
"618 -5 OFFCURVE",
"713 -5 CURVE SMOOTH",
"815 -5 OFFCURVE",
"886 47 OFFCURVE",
"886 210 CURVE SMOOTH",
"886 554 LINE"
);
}
);
width = 1244;
}
);
unicode = 11308;
},
{
glyphname = u_gran;
lastChange = "2020-05-24 21:48:52 +0000";
layers = (
{
anchors = (
{
name = anudatta;
position = "{397, -60}";
},
{
name = anusvara;
position = "{1028, 0}";
},
{
name = post;
position = "{794, 0}";
},
{
name = svara;
position = "{394, 900}";
},
{
name = top;
position = "{397, 640}";
},
{
name = vattu;
position = "{972, 0}";
}
);
layerId = "229B7033-F00A-4676-AEB9-BF59C6456AE0";
paths = (
{
closed = 1;
nodes = (
"1008 0 LINE",
"1008 54 LINE",
"146 54 LINE SMOOTH",
"125 54 OFFCURVE",
"107 69 OFFCURVE",
"107 94 CURVE SMOOTH",
"107 120 OFFCURVE",
"125 135 OFFCURVE",
"146 135 CURVE SMOOTH",
"396 135 LINE SMOOTH",
"538 135 OFFCURVE",
"656 200 OFFCURVE",
"656 336 CURVE SMOOTH",
"656 481 OFFCURVE",
"534 559 OFFCURVE",
"374 559 CURVE SMOOTH",
"239 559 OFFCURVE",
"139 495 OFFCURVE",
"139 385 CURVE SMOOTH",
"139 307 OFFCURVE",
"207 247 OFFCURVE",
"299 247 CURVE SMOOTH",
"381 247 OFFCURVE",
"447 296 OFFCURVE",
"447 377 CURVE SMOOTH",
"447 452 OFFCURVE",
"377 513 OFFCURVE",
"318 519 CURVE",
"264 516 LINE",
"323 500 OFFCURVE",
"356 439 OFFCURVE",
"356 386 CURVE SMOOTH",
"356 337 OFFCURVE",
"331 301 OFFCURVE",
"278 301 CURVE SMOOTH",
"232 301 OFFCURVE",
"197 328 OFFCURVE",
"197 382 CURVE SMOOTH",
"197 461 OFFCURVE",
"268 505 OFFCURVE",
"353 505 CURVE SMOOTH",
"465 505 OFFCURVE",
"561 447 OFFCURVE",
"561 349 CURVE SMOOTH",
"561 244 OFFCURVE",
"495 188 OFFCURVE",
"382 188 CURVE SMOOTH",
"154 188 LINE SMOOTH",
"90 188 OFFCURVE",
"49 154 OFFCURVE",
"49 94 CURVE SMOOTH",
"49 35 OFFCURVE",
"90 0 OFFCURVE",
"154 0 CURVE SMOOTH"
);
}
);
width = 1028;
}
);
unicode = 11309;
},
{
glyphname = uu_gran;
lastChange = "2020-05-24 21:48:52 +0000";
layers = (
{
anchors = (
{
name = anudatta;
position = "{738, -60}";
},
{
name = anusvara;
position = "{1741, 0}";
},
{
name = post;
position = "{1480, 0}";
},
{
name = svara;
position = "{737, 900}";
},
{
name = top;
position = "{738, 640}";
},
{
name = vattu;
position = "{1765, 0}";
}
);
components = (
{
name = u_gran;
}
);
layerId = "229B7033-F00A-4676-AEB9-BF59C6456AE0";
paths = (
{
closed = 1;
nodes = (
"690 0 LINE",
"1716 0 LINE",
"1716 54 LINE",
"690 54 LINE"
);
},
{
closed = 1;
nodes = (
"1055 103 OFFCURVE",
"1111 170 OFFCURVE",
"1111 242 CURVE SMOOTH",
"1111 334 OFFCURVE",
"1045 390 OFFCURVE",
"962 390 CURVE SMOOTH",
"890 390 OFFCURVE",
"816 334 OFFCURVE",
"801 252 CURVE",
"815 209 LINE",
"829 272 OFFCURVE",
"880 327 OFFCURVE",
"939 327 CURVE SMOOTH",
"986 327 OFFCURVE",
"1018 296 OFFCURVE",
"1018 245 CURVE SMOOTH",
"1018 200 OFFCURVE",
"990 156 OFFCURVE",
"932 156 CURVE SMOOTH",
"863 156 OFFCURVE",
"813 204 OFFCURVE",
"813 319 CURVE SMOOTH",
"813 425 OFFCURVE",
"899 505 OFFCURVE",
"1008 505 CURVE SMOOTH",
"1139 505 OFFCURVE",
"1220 418 OFFCURVE",
"1220 301 CURVE",
"1262 301 LINE",
"1262 458 OFFCURVE",
"1164 559 OFFCURVE",
"1006 559 CURVE SMOOTH",
"861 559 OFFCURVE",
"754 456 OFFCURVE",
"754 317 CURVE SMOOTH",
"754 181 OFFCURVE",
"838 103 OFFCURVE",
"950 103 CURVE SMOOTH"
);
},
{
closed = 1;
nodes = (
"1315 107 LINE",
"1315 502 LINE",
"1509 502 LINE",
"1509 107 LINE",
"1604 107 LINE",
"1604 502 LINE",
"1716 502 LINE",
"1716 554 LINE",
"1225 554 LINE",
"1225 379 LINE",
"1220 375 LINE",
"1220 107 LINE"
);
}
);
width = 1741;
}
);
unicode = 1130A;
},
{
glyphname = ee_gran;
lastChange = "2020-05-24 21:48:52 +0000";
layers = (
{
anchors = (
{
name = anudatta;
position = "{935, -60}";
},
{
name = anusvara;
position = "{1871, 0}";
},
{
name = post;
position = "{1871, 0}";
},
{
name = svara;
position = "{935, 900}";
},
{
name = top;
position = "{935, 640}";
},
{
name = vattu;
position = "{1914, 0}";
}
);
layerId = "229B7033-F00A-4676-AEB9-BF59C6456AE0";
paths = (
{
closed = 1;
nodes = (
"579 -5 LINE",
"580 -5 OFFCURVE",
"581 -5 OFFCURVE",
"582 -5 CURVE SMOOTH",
"694 -5 OFFCURVE",
"787 115 OFFCURVE",
"787 259 CURVE SMOOTH",
"787 440 OFFCURVE",
"641 559 OFFCURVE",
"433 559 CURVE SMOOTH",
"231 559 OFFCURVE",
"70 445 OFFCURVE",
"70 234 CURVE SMOOTH",
"70 77 OFFCURVE",
"178 -4 OFFCURVE",
"290 -4 CURVE SMOOTH",
"398 -4 OFFCURVE",
"470 60 OFFCURVE",
"470 150 CURVE SMOOTH",
"470 242 OFFCURVE",
"412 304 OFFCURVE",
"318 304 CURVE SMOOTH",
"221 304 OFFCURVE",
"139 229 OFFCURVE",
"132 124 CURVE",
"162 97 LINE",
"168 185 OFFCURVE",
"217 236 OFFCURVE",
"285 236 CURVE SMOOTH",
"349 236 OFFCURVE",
"378 191 OFFCURVE",
"378 146 CURVE SMOOTH",
"378 92 OFFCURVE",
"339 49 OFFCURVE",
"273 49 CURVE SMOOTH",
"201 49 OFFCURVE",
"128 109 OFFCURVE",
"128 231 CURVE SMOOTH",
"128 407 OFFCURVE",
"230 505 OFFCURVE",
"419 505 CURVE SMOOTH",
"585 505 OFFCURVE",
"689 419 OFFCURVE",
"689 257 CURVE SMOOTH",
"689 139 OFFCURVE",
"631 68 OFFCURVE",
"579 60 CURVE"
);
},
{
closed = 1;
nodes = (
"1701 0 LINE",
"1701 529 LINE",
"1606 529 LINE",
"1606 0 LINE"
);
},
{
closed = 1;
nodes = (
"1008 56 LINE",
"959 108 OFFCURVE",
"942 192 OFFCURVE",
"942 256 CURVE SMOOTH",
"942 392 OFFCURVE",
"1028 505 OFFCURVE",
"1187 505 CURVE SMOOTH",
"1331 505 OFFCURVE",
"1408 390 OFFCURVE",
"1408 238 CURVE SMOOTH",
"1408 123 OFFCURVE",
"1371 49 OFFCURVE",
"1305 49 CURVE SMOOTH",
"1234 49 OFFCURVE",
"1191 145 OFFCURVE",
"1191 231 CURVE SMOOTH",
"1191 351 OFFCURVE",
"1272 500 OFFCURVE",
"1524 500 CURVE SMOOTH",
"1847 500 LINE",
"1847 554 LINE",
"1524 554 LINE SMOOTH",
"1264 554 OFFCURVE",
"1135 405 OFFCURVE",
"1135 229 CURVE SMOOTH",
"1135 109 OFFCURVE",
"1200 -5 OFFCURVE",
"1312 -5 CURVE SMOOTH",
"1416 -5 OFFCURVE",
"1506 91 OFFCURVE",
"1506 237 CURVE SMOOTH",
"1506 414 OFFCURVE",
"1375 559 OFFCURVE",
"1181 559 CURVE SMOOTH",
"959 559 OFFCURVE",
"870 395 OFFCURVE",
"870 248 CURVE SMOOTH",
"870 165 OFFCURVE",
"896 96 OFFCURVE",
"927 56 CURVE"
);
},
{
closed = 1;
nodes = (
"579 -5 LINE",
"1008 -5 LINE",
"1008 56 LINE",
"579 57 LINE"
);
}
);
width = 1871;
}
);
leftMetricsKey = ttha_gran;
unicode = 1130F;
},
{
glyphname = oo_gran;
lastChange = "2020-05-24 21:48:52 +0000";
layers = (
{
anchors = (
{
name = anudatta;
position = "{536, -180}";
},
{
name = anusvara;
position = "{1012, 0}";
},
{
name = post;
position = "{1012, 0}";
},
{
name = svara;
position = "{528, 900}";
},
{
name = top;
position = "{536, 640}";
},
{
name = vattu;
position = "{1012, 0}";
}
);
layerId = "229B7033-F00A-4676-AEB9-BF59C6456AE0";
paths = (
{
closed = 1;
nodes = (
"758 -181 LINE",
"853 -181 LINE",
"853 13 LINE",
"758 13 LINE"
);
},
{
closed = 1;
nodes = (
"991 54 LINE",
"687 54 LINE",
"730 97 OFFCURVE",
"775 164 OFFCURVE",
"775 261 CURVE SMOOTH",
"775 441 OFFCURVE",
"620 559 OFFCURVE",
"428 559 CURVE SMOOTH",
"222 559 OFFCURVE",
"70 440 OFFCURVE",
"70 234 CURVE SMOOTH",
"70 77 OFFCURVE",
"178 -4 OFFCURVE",
"290 -4 CURVE SMOOTH",
"398 -4 OFFCURVE",
"470 60 OFFCURVE",
"470 150 CURVE SMOOTH",
"470 242 OFFCURVE",
"412 304 OFFCURVE",
"318 304 CURVE SMOOTH",
"221 304 OFFCURVE",
"139 229 OFFCURVE",
"132 124 CURVE",
"162 97 LINE",
"168 185 OFFCURVE",
"217 236 OFFCURVE",
"281 236 CURVE SMOOTH",
"349 236 OFFCURVE",
"378 191 OFFCURVE",
"378 146 CURVE SMOOTH",
"378 92 OFFCURVE",
"339 49 OFFCURVE",
"273 49 CURVE SMOOTH",
"201 49 OFFCURVE",
"128 109 OFFCURVE",
"128 231 CURVE SMOOTH",
"128 403 OFFCURVE",
"243 505 OFFCURVE",
"415 505 CURVE SMOOTH",
"564 505 OFFCURVE",
"679 402 OFFCURVE",
"679 257 CURVE SMOOTH",
"679 150 OFFCURVE",
"640 83 OFFCURVE",
"598 43 CURVE",
"616 0 LINE",
"991 0 LINE"
);
}
);
width = 1012;
}
);
leftMetricsKey = ttha_gran;
unicode = 11313;
},
{
glyphname = ka_gran;
lastChange = "2020-05-24 21:48:52 +0000";
layers = (
{
anchors = (
{
name = anudatta;
position = "{572, -100}";
},
{
name = anusvara;
position = "{1145, 0}";
},
{
name = bottom;
position = "{572, -60}";
},
{
name = iiMatra;
position = "{734, 595}";
},
{
name = post;
position = "{1145, 0}";
},
{
name = repha;
position = "{1095, 0}";
},
{
name = svara;
position = "{572, 900}";
},
{
name = top;
position = "{580, 640}";
},
{
name = topright;
position = "{952, 566}";
},
{
name = vattu;
position = "{1145, 0}";
},
{
name = virama;
position = "{830, 474}";
},
{
name = yaphalaa;
position = "{1058, 0}";
}
);
guideLines = (
{
angle = 90;
position = "{1555, 374}";
},
{
position = "{-28, 1290}";
}
);
layerId = "229B7033-F00A-4676-AEB9-BF59C6456AE0";
paths = (
{
closed = 1;
nodes = (
"168 44 OFFCURVE",
"128 86 OFFCURVE",
"128 146 CURVE SMOOTH",
"128 223 OFFCURVE",
"197 275 OFFCURVE",
"299 275 CURVE SMOOTH",
"559 275 LINE",
"559 189 LINE SMOOTH",
"559 97 OFFCURVE",
"534 42 OFFCURVE",
"483 42 CURVE SMOOTH",
"426 42 OFFCURVE",
"406 109 OFFCURVE",
"406 171 CURVE",
"329 171 LINE",
"329 110 OFFCURVE",
"297 44 OFFCURVE",
"225 44 CURVE SMOOTH"
);
},
{
closed = 1;
nodes = (
"938 275 OFFCURVE",
"1005 214 OFFCURVE",
"1005 139 CURVE SMOOTH",
"1005 77 OFFCURVE",
"959 42 OFFCURVE",
"903 42 CURVE SMOOTH",
"841 42 OFFCURVE",
"802 76 OFFCURVE",
"802 136 CURVE SMOOTH",
"802 223 OFFCURVE",
"865 249 OFFCURVE",
"917 269 CURVE",
"881 296 LINE",
"799 281 OFFCURVE",
"745 216 OFFCURVE",
"745 135 CURVE SMOOTH",
"745 43 OFFCURVE",
"814 -12 OFFCURVE",
"908 -12 CURVE SMOOTH",
"1002 -12 OFFCURVE",
"1091 42 OFFCURVE",
"1091 142 CURVE SMOOTH",
"1091 247 OFFCURVE",
"997 329 OFFCURVE",
"855 329 CURVE SMOOTH",
"654 329 LINE",
"654 500 LINE",
"849 500 LINE",
"849 554 LINE",
"236 554 LINE",
"236 286 LINE",
"298 286 LINE",
"298 500 LINE",
"559 500 LINE",
"559 329 LINE",
"291 329 LINE SMOOTH",
"146 329 OFFCURVE",
"63 248 OFFCURVE",
"63 147 CURVE SMOOTH",
"63 51 OFFCURVE",
"133 -12 OFFCURVE",
"225 -12 CURVE SMOOTH",
"310 -12 OFFCURVE",
"353 42 OFFCURVE",
"376 91 CURVE",
"355 91 LINE",
"377 42 OFFCURVE",
"412 -12 OFFCURVE",
"496 -12 CURVE SMOOTH",
"607 -12 OFFCURVE",
"654 78 OFFCURVE",
"654 200 CURVE SMOOTH",
"654 275 LINE",
"815 275 LINE SMOOTH"
);
}
);
width = 1145;
}
);
unicode = 11315;
},
{
glyphname = kha_gran;
lastChange = "2020-05-24 21:48:52 +0000";
layers = (
{
anchors = (
{
name = anudatta;
position = "{664, -100}";
},
{
name = anusvara;
position = "{1338, 0}";
},
{
name = bottom;
position = "{664, -60}";
},
{
name = post;
position = "{1362, 0}";
},
{
name = repha;
position = "{1318, 0}";
},
{
name = svara;
position = "{664, 900}";
},
{
name = top;
position = "{664, 640}";
},
{
name = topright;
position = "{1358, 566}";
},
{
name = vattu;
position = "{1381, 0}";
},
{
name = virama;
position = "{1157, 481}";
},
{
name = yaphalaa;
position = "{1278, 0}";
}
);
layerId = "229B7033-F00A-4676-AEB9-BF59C6456AE0";
paths = (
{
closed = 1;
nodes = (
"814 458 OFFCURVE",
"660 559 OFFCURVE",
"468 559 CURVE SMOOTH",
"242 559 OFFCURVE",
"70 430 OFFCURVE",
"70 224 CURVE SMOOTH",
"70 67 OFFCURVE",
"178 -14 OFFCURVE",
"290 -14 CURVE SMOOTH",
"398 -14 OFFCURVE",
"470 50 OFFCURVE",
"470 140 CURVE SMOOTH",
"470 232 OFFCURVE",
"412 294 OFFCURVE",
"318 294 CURVE SMOOTH",
"221 294 OFFCURVE",
"139 219 OFFCURVE",
"132 114 CURVE",
"162 87 LINE",
"168 175 OFFCURVE",
"217 226 OFFCURVE",
"281 226 CURVE SMOOTH",
"349 226 OFFCURVE",
"378 181 OFFCURVE",
"378 136 CURVE SMOOTH",
"378 82 OFFCURVE",
"339 39 OFFCURVE",
"273 39 CURVE SMOOTH",
"201 39 OFFCURVE",
"128 99 OFFCURVE",
"128 221 CURVE SMOOTH",
"128 393 OFFCURVE",
"263 505 OFFCURVE",
"455 505 CURVE SMOOTH",
"604 505 OFFCURVE",
"719 427 OFFCURVE",
"719 302 CURVE SMOOTH",
"719 257 OFFCURVE",
"701 214 OFFCURVE",
"657 177 CURVE SMOOTH",
"613 140 OFFCURVE",
"555 126 OFFCURVE",
"555 75 CURVE SMOOTH",
"555 27 OFFCURVE",
"591 0 OFFCURVE",
"655 0 CURVE SMOOTH",
"1097 0 LINE",
"1097 54 LINE",
"654 54 LINE SMOOTH",
"633 54 OFFCURVE",
"615 62 OFFCURVE",
"615 79 CURVE SMOOTH",
"615 104 OFFCURVE",
"676 111 OFFCURVE",
"740 159 CURVE SMOOTH",
"771 182 OFFCURVE",
"814 221 OFFCURVE",
"814 294 CURVE SMOOTH"
);
},
{
closed = 1;
nodes = (
"933 0 LINE",
"1258 0 LINE",
"1258 554 LINE",
"1163 554 LINE",
"1163 54 LINE",
"933 54 LINE"
);
}
);
width = 1338;
}
);
leftMetricsKey = ttha_gran;
unicode = 11316;
},
{
glyphname = kha_gran.alt;
lastChange = "2020-05-24 21:48:52 +0000";
layers = (
{
anchors = (
{
name = anudatta;
position = "{679, -100}";
},
{
name = anusvara;
position = "{1368, 0}";
},
{
name = bottom;
position = "{679, -60}";
},
{
name = post;
position = "{1362, 0}";
},
{
name = repha;
position = "{1348, 0}";
},
{
name = svara;
position = "{679, 900}";
},
{
name = top;
position = "{679, 640}";
},
{
name = topright;
position = "{1358, 566}";
},
{
name = vattu;
position = "{1413, 0}";
},
{
name = virama;
position = "{1187, 481}";
},
{
name = yaphalaa;
position = "{1308, 0}";
}
);
guideLines = (
{
angle = 90;
position = "{679, 607}";
}
);
layerId = "229B7033-F00A-4676-AEB9-BF59C6456AE0";
paths = (
{
closed = 1;
nodes = (
"834 458 OFFCURVE",
"680 559 OFFCURVE",
"478 559 CURVE SMOOTH",
"262 559 OFFCURVE",
"70 441 OFFCURVE",
"70 195 CURVE SMOOTH",
"70 -22 OFFCURVE",
"208 -104 OFFCURVE",
"320 -104 CURVE SMOOTH",
"428 -104 OFFCURVE",
"500 -40 OFFCURVE",
"500 50 CURVE SMOOTH",
"500 142 OFFCURVE",
"442 204 OFFCURVE",
"348 204 CURVE SMOOTH",
"251 204 OFFCURVE",
"169 129 OFFCURVE",
"162 24 CURVE",
"192 -3 LINE",
"198 85 OFFCURVE",
"247 136 OFFCURVE",
"311 136 CURVE SMOOTH",
"379 136 OFFCURVE",
"408 91 OFFCURVE",
"408 46 CURVE SMOOTH",
"408 -8 OFFCURVE",
"369 -51 OFFCURVE",
"303 -51 CURVE SMOOTH",
"231 -51 OFFCURVE",
"128 13 OFFCURVE",
"128 195 CURVE SMOOTH",
"128 407 OFFCURVE",
"293 505 OFFCURVE",
"465 505 CURVE SMOOTH",
"614 505 OFFCURVE",
"739 426 OFFCURVE",
"739 290 CURVE SMOOTH",
"739 256 OFFCURVE",
"731 214 OFFCURVE",
"687 177 CURVE SMOOTH",
"643 140 OFFCURVE",
"595 126 OFFCURVE",
"595 75 CURVE SMOOTH",
"595 27 OFFCURVE",
"631 0 OFFCURVE",
"695 0 CURVE SMOOTH",
"1127 0 LINE",
"1127 54 LINE",
"694 54 LINE SMOOTH",
"673 54 OFFCURVE",
"655 62 OFFCURVE",
"655 79 CURVE SMOOTH",
"655 109 OFFCURVE",
"713 112 OFFCURVE",
"770 159 CURVE SMOOTH",
"798 182 OFFCURVE",
"834 221 OFFCURVE",
"834 294 CURVE SMOOTH"
);
},
{
closed = 1;
nodes = (
"963 0 LINE",
"1288 0 LINE",
"1288 554 LINE",
"1193 554 LINE",
"1193 54 LINE",
"963 54 LINE"
);
}
);
width = 1368;
}
);
leftMetricsKey = kha_gran;
rightMetricsKey = kha_gran;
script = gran;
category = Letter;
subCategory = Other;
},
{
glyphname = ga_gran;
lastChange = "2020-05-24 21:48:52 +0000";
layers = (
{
anchors = (
{
name = anudatta;
position = "{446, -240}";
},
{
name = anusvara;
position = "{943, 0}";
},
{
name = bottom;
position = "{446, -200}";
},
{
name = iiMatra;
position = "{584, 590}";
},
{
name = post;
position = "{945, 0}";
},
{
name = repha;
position = "{875, 0}";
},
{
name = svara;
position = "{445, 900}";
},
{
name = top;
position = "{445, 640}";
},
{
name = topright;
position = "{925, 566}";
},
{
name = vattu;
position = "{969, 0}";
},
{
name = virama;
position = "{772, 462}";
},
{
name = yaphalaa;
position = "{863, 0}";
}
);
layerId = "229B7033-F00A-4676-AEB9-BF59C6456AE0";
paths = (
{
closed = 1;
nodes = (
"423 130 OFFCURVE",
"373 96 OFFCURVE",
"294 96 CURVE SMOOTH",
"212 96 OFFCURVE",
"175 130 OFFCURVE",
"175 242 CURVE SMOOTH",
"175 554 LINE",
"80 554 LINE",
"80 277 LINE SMOOTH",
"80 92 OFFCURVE",
"170 35 OFFCURVE",
"294 35 CURVE SMOOTH",
"418 35 OFFCURVE",
"498 92 OFFCURVE",
"498 277 CURVE SMOOTH",
"498 353 LINE SMOOTH",
"498 471 OFFCURVE",
"563 505 OFFCURVE",
"627 505 CURVE SMOOTH",
"703 505 OFFCURVE",
"777 448 OFFCURVE",
"777 242 CURVE SMOOTH",
"777 -21 OFFCURVE",
"640 -86 OFFCURVE",
"351 -86 CURVE SMOOTH",
"238 -86 LINE SMOOTH",
"150 -86 OFFCURVE",
"70 -104 OFFCURVE",
"70 -176 CURVE SMOOTH",
"70 -225 OFFCURVE",
"101 -246 OFFCURVE",
"159 -246 CURVE",
"159 -179 OFFCURVE",
"179 -140 OFFCURVE",
"272 -140 CURVE SMOOTH",
"367 -140 LINE SMOOTH",
"680 -140 OFFCURVE",
"873 -50 OFFCURVE",
"873 231 CURVE SMOOTH",
"873 389 OFFCURVE",
"817 559 OFFCURVE",
"628 559 CURVE SMOOTH",
"517 559 OFFCURVE",
"423 495 OFFCURVE",
"423 343 CURVE SMOOTH",
"423 242 LINE SMOOTH"
);
}
);
width = 943;
}
);
rightMetricsKey = ttha_gran;
unicode = 11317;
},
{
glyphname = ga_gran.flat;
lastChange = "2020-05-24 21:48:52 +0000";
layers = (
{
anchors = (
{
name = anudatta;
position = "{446, -240}";
},
{
name = anusvara;
position = "{943, 0}";
},
{
name = bottom;
position = "{446, -200}";
},
{
name = iiMatra;
position = "{584, 590}";
},
{
name = post;
position = "{945, 0}";
},
{
name = repha;
position = "{876, 0}";
},
{
name = svara;
position = "{446, 900}";
},
{
name = top;
position = "{446, 640}";
},
{
name = topright;
position = "{926, 566}";
},
{
name = vattu;
position = "{970, 0}";
},
{
name = virama;
position = "{772, 462}";
},
{
name = yaphalaa;
position = "{864, 0}";
}
);
layerId = "229B7033-F00A-4676-AEB9-BF59C6456AE0";
paths = (
{
closed = 1;
nodes = (
"80 -140 LINE",
"367 -140 LINE SMOOTH",
"680 -140 OFFCURVE",
"873 -50 OFFCURVE",
"873 231 CURVE SMOOTH",
"873 389 OFFCURVE",
"817 559 OFFCURVE",
"628 559 CURVE SMOOTH",
"517 559 OFFCURVE",
"423 495 OFFCURVE",
"423 343 CURVE SMOOTH",
"423 242 LINE SMOOTH",
"423 130 OFFCURVE",
"373 96 OFFCURVE",
"294 96 CURVE SMOOTH",
"212 96 OFFCURVE",
"175 130 OFFCURVE",
"175 242 CURVE SMOOTH",
"175 554 LINE",
"80 554 LINE",
"80 277 LINE SMOOTH",
"80 92 OFFCURVE",
"170 35 OFFCURVE",
"294 35 CURVE SMOOTH",
"418 35 OFFCURVE",
"498 92 OFFCURVE",
"498 277 CURVE SMOOTH",
"498 353 LINE SMOOTH",
"498 471 OFFCURVE",
"563 505 OFFCURVE",
"627 505 CURVE SMOOTH",
"703 505 OFFCURVE",
"777 448 OFFCURVE",
"777 242 CURVE SMOOTH",
"777 -21 OFFCURVE",
"640 -86 OFFCURVE",
"351 -86 CURVE SMOOTH",
"80 -86 LINE"
);
}
);
width = 943;
}
);
rightMetricsKey = ttha_gran;
script = gran;
category = Letter;
},
{
glyphname = gha_gran;
lastChange = "2020-05-24 21:48:52 +0000";
layers = (
{
anchors = (
{
name = anudatta;
position = "{687, -100}";
},
{
name = anusvara;
position = "{1423, 0}";
},
{
name = bottom;
position = "{687, -60}";
},
{
name = post;
position = "{1424, 0}";
},
{
name = repha;
position = "{1403, 0}";
},
{
name = svara;
position = "{692, 900}";
},
{
name = top;
position = "{692, 640}";
},
{
name = topright;
position = "{1394, 566}";
},
{
name = vattu;
position = "{1467, 0}";
},
{
name = virama;
position = "{1242, 481}";
},
{
name = yaphalaa;
position = "{1321, 0}";
}
);
components = (
{
name = gha.base;
transform = "{1, 0, 0, 1, 11, 0}";
}
);
layerId = "229B7033-F00A-4676-AEB9-BF59C6456AE0";
paths = (
{
closed = 1;
nodes = (
"1343 0 LINE",
"1343 554 LINE",
"1258 554 LINE",
"1258 0 LINE"
);
}
);
width = 1423;
}
);
leftMetricsKey = ttha_gran;
unicode = 11318;
},
{
glyphname = nga_gran;
lastChange = "2020-05-24 21:48:52 +0000";
layers = (
{
anchors = (
{
name = anudatta;
position = "{450, -300}";
},
{
name = anusvara;
position = "{924, 0}";
},
{
name = bottom;
position = "{450, -222}";
},
{
name = iiMatra;
position = "{615, 623}";
},
{
name = post;
position = "{910, 0}";
},
{
name = repha;
position = "{884, 0}";
},
{
name = svara;
position = "{453, 900}";
},
{
name = top;
position = "{453, 640}";
},
{
name = topright;
position = "{930, 566}";
},
{
name = vattu;
position = "{968, 0}";
},
{
name = virama;
position = "{805, 494}";
},
{
name = yaphalaa;
position = "{895, 0}";
}
);
layerId = "229B7033-F00A-4676-AEB9-BF59C6456AE0";
paths = (
{
closed = 1;
nodes = (
"427 -240 LINE",
"522 -240 LINE",
"522 -76 LINE",
"427 -76 LINE"
);
},
{
closed = 1;
nodes = (
"224 -33 OFFCURVE",
"182 -8 OFFCURVE",
"182 43 CURVE SMOOTH",
"182 144 OFFCURVE",
"316 125 OFFCURVE",
"397 125 CURVE SMOOTH",
"520 125 LINE SMOOTH",
"739 125 OFFCURVE",
"854 224 OFFCURVE",
"854 401 CURVE SMOOTH",
"854 551 OFFCURVE",
"747 590 OFFCURVE",
"661 590 CURVE SMOOTH",
"574 590 OFFCURVE",
"519 552 OFFCURVE",
"491 481 CURVE",
"459 553 OFFCURVE",
"377 590 OFFCURVE",
"291 590 CURVE SMOOTH",
"170 590 OFFCURVE",
"70 515 OFFCURVE",
"70 399 CURVE SMOOTH",
"70 298 OFFCURVE",
"133 224 OFFCURVE",
"225 224 CURVE SMOOTH",
"300 224 OFFCURVE",
"362 265 OFFCURVE",
"362 343 CURVE SMOOTH",
"362 412 OFFCURVE",
"308 457 OFFCURVE",
"242 457 CURVE SMOOTH",
"190 457 OFFCURVE",
"118 426 OFFCURVE",
"108 320 CURVE",
"133 286 LINE",
"141 375 OFFCURVE",
"179 402 OFFCURVE",
"219 402 CURVE SMOOTH",
"255 402 OFFCURVE",
"278 376 OFFCURVE",
"278 336 CURVE SMOOTH",
"278 301 OFFCURVE",
"258 273 OFFCURVE",
"217 273 CURVE SMOOTH",
"171 273 OFFCURVE",
"124 303 OFFCURVE",
"124 395 CURVE SMOOTH",
"124 490 OFFCURVE",
"200 536 OFFCURVE",
"281 536 CURVE SMOOTH",
"376 536 OFFCURVE",
"444 487 OFFCURVE",
"444 382 CURVE SMOOTH",
"444 297 LINE",
"531 297 LINE",
"531 406 LINE SMOOTH",
"531 481 OFFCURVE",
"571 536 OFFCURVE",
"654 536 CURVE SMOOTH",
"733 536 OFFCURVE",
"759 487 OFFCURVE",
"759 400 CURVE SMOOTH",
"759 260 OFFCURVE",
"680 177 OFFCURVE",
"520 177 CURVE SMOOTH",
"359 177 LINE SMOOTH",
"203 177 OFFCURVE",
"87 159 OFFCURVE",
"87 42 CURVE SMOOTH",
"87 -50 OFFCURVE",
"171 -87 OFFCURVE",
"292 -87 CURVE SMOOTH",
"831 -87 LINE",
"831 -33 LINE",
"301 -33 LINE SMOOTH"
);
}
);
width = 924;
}
);
leftMetricsKey = ttha_gran;
rightMetricsKey = ttha_gran;
unicode = 11319;
},
{
glyphname = ca_gran;
lastChange = "2020-05-24 21:48:52 +0000";
layers = (
{
anchors = (
{
name = anudatta;
position = "{514, -100}";
},
{
name = anusvara;
position = "{1068, 0}";
},
{
name = bottom;
position = "{494, -60}";
},
{
name = post;
position = "{1068, 0}";
},
{
name = repha;
position = "{1049, 0}";
},
{
name = svara;
position = "{534, 900}";
},
{
name = top;
position = "{534, 640}";
},
{
name = topright;
position = "{1088, 566}";
},
{
name = vattu;
position = "{1112, 0}";
},
{
name = virama;
position = "{887, 481}";
},
{
name = yaphalaa;
position = "{1028, 0}";
}
);
components = (
{
name = ca.base;
}
);
guideLines = (
{
angle = 90;
position = "{1891, 784}";
}
);
layerId = "229B7033-F00A-4676-AEB9-BF59C6456AE0";
paths = (
{
closed = 1;
nodes = (
"893 16 LINE",
"988 16 LINE",
"988 554 LINE",
"893 554 LINE"
);
}
);
width = 1068;
}
);
unicode = 1131A;
},
{
glyphname = cha_gran;
lastChange = "2020-05-24 21:48:52 +0000";
layers = (
{
anchors = (
{
name = anudatta;
position = "{665, -100}";
},
{
name = anusvara;
position = "{1330, 0}";
},
{
name = bottom;
position = "{625, -60}";
},
{
name = iiMatra;
position = "{1045, 589}";
},
{
name = post;
position = "{1330, 0}";
},
{
name = repha;
position = "{1314, 0}";
},
{
name = svara;
position = "{665, 900}";
},
{
name = top;
position = "{665, 640}";
},
{
name = topright;
position = "{1350, 566}";
},
{
name = vattu;
position = "{1372, 0}";
},
{
name = virama;
position = "{1209, 468}";
},
{
name = yaphalaa;
position = "{1290, 0}";
}
);
components = (
{
name = ca.base;
}
);
layerId = "229B7033-F00A-4676-AEB9-BF59C6456AE0";
paths = (
{
closed = 1;
nodes = (
"900 54 LINE",
"900 0 LINE",
"1228 0 LINE",
"1228 54 LINE"
);
},
{
closed = 1;
nodes = (
"919 0 LINE",
"1014 0 LINE",
"1014 391 LINE SMOOTH",
"1014 459 OFFCURVE",
"1044 505 OFFCURVE",
"1105 505 CURVE SMOOTH",
"1154 505 OFFCURVE",
"1193 470 OFFCURVE",
"1193 404 CURVE SMOOTH",
"1193 0 LINE",
"1254 0 LINE",
"1254 404 LINE SMOOTH",
"1254 505 OFFCURVE",
"1187 559 OFFCURVE",
"1098 559 CURVE SMOOTH",
"978 559 OFFCURVE",
"919 489 OFFCURVE",
"919 390 CURVE SMOOTH"
);
}
);
width = 1330;
}
);
unicode = 1131B;
},
{
glyphname = ja_gran;
lastChange = "2020-05-24 21:48:52 +0000";
layers = (
{
anchors = (
{
name = anudatta;
position = "{438, -220}";
},
{
name = anusvara;
position = "{889, 0}";
},
{
name = bottom;
position = "{453, -150}";
},
{
name = bottom_exception;
position = "{720, -150}";
},
{
name = iiMatra;
position = "{582, 616}";
},
{
name = post;
position = "{867, 0}";
},
{
name = repha;
position = "{857, 0}";
},
{
name = svara;
position = "{438, 900}";
},
{
name = top;
position = "{438, 640}";
},
{
name = topright;
position = "{877, 566}";
},
{
name = vattu;
position = "{916, 0}";
},
{
name = virama;
position = "{760, 491}";
},
{
name = yaphalaa;
position = "{844, 0}";
}
);
guideLines = (
{
angle = 180;
position = "{-435, 289}";
}
);
layerId = "229B7033-F00A-4676-AEB9-BF59C6456AE0";
paths = (
{
closed = 1;
nodes = (
"470 -122 OFFCURVE",
"480 99 OFFCURVE",
"629 99 CURVE SMOOTH",
"693 99 OFFCURVE",
"724 69 OFFCURVE",
"724 13 CURVE SMOOTH",
"724 -37 OFFCURVE",
"692 -71 OFFCURVE",
"631 -71 CURVE SMOOTH",
"607 -71 OFFCURVE",
"580 -65 OFFCURVE",
"548 -48 CURVE",
"532 -90 LINE",
"569 -112 OFFCURVE",
"608 -122 OFFCURVE",
"646 -122 CURVE SMOOTH",
"730 -122 OFFCURVE",
"813 -71 OFFCURVE",
"813 9 CURVE SMOOTH",
"813 110 OFFCURVE",
"724 153 OFFCURVE",
"637 153 CURVE SMOOTH",
"446 153 OFFCURVE",
"435 -68 OFFCURVE",
"271 -68 CURVE SMOOTH",
"201 -68 OFFCURVE",
"165 -34 OFFCURVE",
"165 37 CURVE SMOOTH",
"165 167 OFFCURVE",
"323 163 OFFCURVE",
"478 178 CURVE SMOOTH",
"646 194 OFFCURVE",
"819 237 OFFCURVE",
"819 407 CURVE SMOOTH",
"819 543 OFFCURVE",
"713 585 OFFCURVE",
"626 585 CURVE SMOOTH",
"556 585 OFFCURVE",
"492 550 OFFCURVE",
"466 486 CURVE",
"437 551 OFFCURVE",
"368 585 OFFCURVE",
"296 585 CURVE SMOOTH",
"169 585 OFFCURVE",
"79 516 OFFCURVE",
"79 411 CURVE SMOOTH",
"79 320 OFFCURVE",
"136 244 OFFCURVE",
"229 244 CURVE SMOOTH",
"298 244 OFFCURVE",
"364 295 OFFCURVE",
"364 357 CURVE SMOOTH",
"364 429 OFFCURVE",
"305 463 OFFCURVE",
"245 463 CURVE SMOOTH",
"198 463 OFFCURVE",
"132 435 OFFCURVE",
"123 339 CURVE",
"146 308 LINE",
"153 389 OFFCURVE",
"188 414 OFFCURVE",
"224 414 CURVE SMOOTH",
"256 414 OFFCURVE",
"278 390 OFFCURVE",
"278 353 CURVE SMOOTH",
"278 322 OFFCURVE",
"260 298 OFFCURVE",
"223 298 CURVE SMOOTH",
"180 298 OFFCURVE",
"137 324 OFFCURVE",
"137 407 CURVE SMOOTH",
"137 494 OFFCURVE",
"207 530 OFFCURVE",
"280 530 CURVE SMOOTH",
"366 530 OFFCURVE",
"427 491 OFFCURVE",
"427 396 CURVE SMOOTH",
"427 328 LINE",
"513 328 LINE",
"513 417 LINE SMOOTH",
"513 486 OFFCURVE",
"544 530 OFFCURVE",
"615 530 CURVE SMOOTH",
"691 530 OFFCURVE",
"724 491 OFFCURVE",
"724 412 CURVE SMOOTH",
"724 277 OFFCURVE",
"633 243 OFFCURVE",
"426 225 CURVE SMOOTH",
"254 210 OFFCURVE",
"70 193 OFFCURVE",
"70 37 CURVE SMOOTH",
"70 -67 OFFCURVE",
"166 -122 OFFCURVE",
"268 -122 CURVE SMOOTH"
);
}
);
width = 889;
}
);
leftMetricsKey = ttha_gran;
rightMetricsKey = ttha_gran;
unicode = 1131C;
},
{
glyphname = jha_gran;
lastChange = "2020-05-24 21:48:52 +0000";
layers = (
{
anchors = (
{
name = anudatta;
position = "{676, -100}";
},
{
name = anusvara;
position = "{1352, 0}";
},
{
name = bottom;
position = "{676, -60}";
},
{
name = post;
position = "{1343, 0}";
},
{
name = repha;
position = "{1243, 0}";
},
{
name = svara;
position = "{671, 900}";
},
{
name = top;
position = "{671, 640}";
},
{
name = topright;
position = "{1333, 566}";
},
{
name = vattu;
position = "{1387, 0}";
},
{
name = yaphalaa;
position = "{1278, 0}";
}
);
guideLines = (
{
position = "{1332, 160}";
}
);
layerId = "229B7033-F00A-4676-AEB9-BF59C6456AE0";
paths = (
{
closed = 1;
nodes = (
"1153 449 OFFCURVE",
"1187 379 OFFCURVE",
"1187 285 CURVE SMOOTH",
"1187 131 OFFCURVE",
"1102 42 OFFCURVE",
"992 42 CURVE SMOOTH",
"882 42 OFFCURVE",
"797 131 OFFCURVE",
"797 285 CURVE SMOOTH",
"797 379 OFFCURVE",
"824 449 OFFCURVE",
"884 520 CURVE",
"821 570 LINE",
"758 504 OFFCURVE",
"702 398 OFFCURVE",
"702 280 CURVE SMOOTH",
"702 149 OFFCURVE",
"779 -12 OFFCURVE",
"989 -12 CURVE SMOOTH",
"1199 -12 OFFCURVE",
"1282 162 OFFCURVE",
"1282 289 CURVE SMOOTH",
"1282 411 OFFCURVE",
"1216 504 OFFCURVE",
"1153 570 CURVE",
"1090 520 LINE"
);
},
{
closed = 1;
nodes = (
"484 54 LINE",
"348 54 LINE",
"348 208 LINE",
"753 208 LINE",
"752 262 LINE",
"283 262 LINE",
"283 0 LINE",
"579 0 LINE",
"579 500 LINE",
"653 500 LINE",
"653 554 LINE",
"80 554 LINE",
"80 0 LINE",
"145 0 LINE",
"145 500 LINE",
"484 500 LINE"
);
}
);
width = 1352;
}
);
rightMetricsKey = ttha_gran;
unicode = 1131D;
},
{
glyphname = nya_gran;
lastChange = "2020-05-24 21:48:52 +0000";
layers = (
{
anchors = (
{
name = anudatta;
position = "{630, -296}";
},
{
name = anusvara;
position = "{1163, 0}";
},
{
name = bottom;
position = "{548, -211}";
},
{
name = iiMatra;
position = "{890, 595}";
},
{
name = post;
position = "{1156, 0}";
},
{
name = repha;
position = "{1136, 0}";
},
{
name = svara;
position = "{585, 900}";
},
{
name = top;
position = "{585, 633}";
},
{
name = topright;
position = "{1105, 566}";
},
{
name = vattu;
position = "{1106, 0}";
},
{
name = virama;
position = "{905, 481}";
},
{
name = yaphalaa;
position = "{1098, 0}";
}
);
layerId = "229B7033-F00A-4676-AEB9-BF59C6456AE0";
paths = (
{
closed = 1;
nodes = (
"130 155 LINE",
"162 -36 OFFCURVE",
"347 -213 OFFCURVE",
"649 -213 CURVE SMOOTH",
"904 -213 OFFCURVE",
"1103 -89 OFFCURVE",
"1103 95 CURVE SMOOTH",
"1103 232 OFFCURVE",
"988 348 OFFCURVE",
"756 348 CURVE SMOOTH",
"651 348 LINE SMOOTH",
"449 348 OFFCURVE",
"358 277 OFFCURVE",
"358 176 CURVE SMOOTH",
"358 75 OFFCURVE",
"459 6 OFFCURVE",
"581 6 CURVE SMOOTH",
"739 6 OFFCURVE",
"816 115 OFFCURVE",
"816 254 CURVE SMOOTH",
"816 500 LINE",
"1005 500 LINE",
"1005 554 LINE",
"479 554 LINE",
"479 304 LINE",
"559 320 LINE",
"559 500 LINE",
"721 500 LINE",
"721 231 LINE SMOOTH",
"721 122 OFFCURVE",
"688 60 OFFCURVE",
"588 60 CURVE SMOOTH",
"499 60 OFFCURVE",
"454 115 OFFCURVE",
"454 179 CURVE SMOOTH",
"454 258 OFFCURVE",
"540 294 OFFCURVE",
"644 294 CURVE SMOOTH",
"768 294 LINE SMOOTH",
"906 294 OFFCURVE",
"1008 218 OFFCURVE",
"1008 95 CURVE SMOOTH",
"1008 -44 OFFCURVE",
"881 -159 OFFCURVE",
"650 -159 CURVE SMOOTH",
"380 -159 OFFCURVE",
"228 -13 OFFCURVE",
"187 155 CURVE"
);
},
{
closed = 1;
nodes = (
"463 263 LINE",
"433 378 OFFCURVE",
"345 500 OFFCURVE",
"193 500 CURVE SMOOTH",
"83 500 OFFCURVE",
"0 439 OFFCURVE",
"0 353 CURVE SMOOTH",
"0 277 OFFCURVE",
"63 220 OFFCURVE",
"155 220 CURVE SMOOTH",
"250 220 OFFCURVE",
"304 279 OFFCURVE",
"304 358 CURVE SMOOTH",
"304 393 OFFCURVE",
"293 433 OFFCURVE",
"270 473 CURVE",
"227 469 LINE",
"243 438 OFFCURVE",
"253 411 OFFCURVE",
"253 378 CURVE SMOOTH",
"253 323 OFFCURVE",
"226 274 OFFCURVE",
"164 274 CURVE SMOOTH",
"115 274 OFFCURVE",
"83 303 OFFCURVE",
"83 350 CURVE SMOOTH",
"83 408 OFFCURVE",
"134 446 OFFCURVE",
"209 446 CURVE SMOOTH",
"319 446 OFFCURVE",
"375 348 OFFCURVE",
"405 262 CURVE"
);
}
);
width = 1163;
}
);
unicode = 1131E;
},
{
glyphname = tta_gran;
lastChange = "2020-05-24 21:48:52 +0000";
layers = (
{
anchors = (
{
name = anudatta;
position = "{464, -173}";
},
{
name = anusvara;
position = "{879, 0}";
},
{
name = bottom;
position = "{474, -127}";
},
{
name = post;
position = "{928, 0}";
},
{
name = repha;
position = "{932, 0}";
},
{
name = svara;
position = "{464, 900}";
},
{
name = top;
position = "{464, 640}";
},
{
name = topright;
position = "{728, 566}";
},
{
name = vattu;
position = "{976, 0}";
},
{
name = yaphalaa;
position = "{895, 0}";
}
);
layerId = "229B7033-F00A-4676-AEB9-BF59C6456AE0";
paths = (
{
closed = 1;
nodes = (
"872 0 LINE",
"872 54 LINE",
"174 54 LINE",
"174 554 LINE",
"80 554 LINE",
"80 0 LINE"
);
},
{
closed = 1;
nodes = (
"431 -127 LINE",
"517 -127 LINE",
"517 37 LINE",
"431 37 LINE"
);
}
);
width = 932;
}
);
unicode = 1131F;
},
{
glyphname = ttha_gran;
lastChange = "2020-05-24 21:48:52 +0000";
layers = (
{
anchors = (
{
name = anudatta;
position = "{362, -100}";
},
{
name = anusvara;
position = "{703, 0}";
},
{
name = bottom;
position = "{362, -60}";
},
{
name = iiMatra;
position = "{361, 578}";
},
{
name = post;
position = "{724, 0}";
},
{
name = repha;
position = "{624, 0}";
},
{
name = svara;
position = "{362, 900}";
},
{
name = top;
position = "{362, 640}";
},
{
name = topright;
position = "{675, 566}";
},
{
name = vattu;
position = "{766, 0}";
},
{
name = virama;
position = "{500, 466}";
},
{
name = yaphalaa;
position = "{668, 0}";
}
);
layerId = "229B7033-F00A-4676-AEB9-BF59C6456AE0";
paths = (
{
closed = 1;
nodes = (
"530 -5 OFFCURVE",
"633 107 OFFCURVE",
"633 277 CURVE SMOOTH",
"633 442 OFFCURVE",
"530 559 OFFCURVE",
"357 559 CURVE SMOOTH",
"174 559 OFFCURVE",
"70 439 OFFCURVE",
"70 277 CURVE SMOOTH",
"70 115 OFFCURVE",
"174 -5 OFFCURVE",
"357 -5 CURVE SMOOTH"
);
},
{
closed = 1;
nodes = (
"200 56 OFFCURVE",
"131 155 OFFCURVE",
"131 277 CURVE SMOOTH",
"131 394 OFFCURVE",
"200 498 OFFCURVE",
"338 498 CURVE SMOOTH",
"469 498 OFFCURVE",
"538 414 OFFCURVE",
"538 277 CURVE SMOOTH",
"538 135 OFFCURVE",
"469 56 OFFCURVE",
"338 56 CURVE SMOOTH"
);
}
);
width = 703;
}
);
unicode = 11320;
},
{
glyphname = ttha_gran.alt;
lastChange = "2020-05-24 21:48:52 +0000";
layers = (
{
anchors = (
{
name = anudatta;
position = "{362, -100}";
},
{
name = anusvara;
position = "{703, 0}";
},
{
name = bottom;
position = "{362, -60}";
},
{
name = iiMatra;
position = "{361, 578}";
},
{
name = post;
position = "{724, 0}";
},
{
name = repha;
position = "{624, 0}";
},
{
name = svara;
position = "{362, 900}";
},
{
name = top;
position = "{362, 640}";
},
{
name = topright;
position = "{675, 566}";
},
{
name = vattu;
position = "{766, 0}";
},
{
name = virama;
position = "{500, 466}";
},
{
name = yaphalaa;
position = "{668, 0}";
}
);
layerId = "229B7033-F00A-4676-AEB9-BF59C6456AE0";
paths = (
{
closed = 1;
nodes = (
"530 -5 OFFCURVE",
"633 107 OFFCURVE",
"633 277 CURVE SMOOTH",
"633 442 OFFCURVE",
"530 559 OFFCURVE",
"357 559 CURVE SMOOTH",
"174 559 OFFCURVE",
"70 439 OFFCURVE",
"70 277 CURVE SMOOTH",
"70 115 OFFCURVE",
"174 -5 OFFCURVE",
"357 -5 CURVE SMOOTH"
);
},
{
closed = 1;
nodes = (
"200 56 OFFCURVE",
"131 155 OFFCURVE",
"131 277 CURVE SMOOTH",
"131 394 OFFCURVE",
"200 498 OFFCURVE",
"338 498 CURVE SMOOTH",
"469 498 OFFCURVE",
"538 414 OFFCURVE",
"538 277 CURVE SMOOTH",
"538 135 OFFCURVE",
"469 56 OFFCURVE",
"338 56 CURVE SMOOTH"
);
},
{
closed = 1;
nodes = (
"371 226 OFFCURVE",
"395 250 OFFCURVE",
"395 280 CURVE SMOOTH",
"395 310 OFFCURVE",
"371 334 OFFCURVE",
"341 334 CURVE SMOOTH",
"311 334 OFFCURVE",
"287 310 OFFCURVE",
"287 280 CURVE SMOOTH",
"287 250 OFFCURVE",
"311 226 OFFCURVE",
"341 226 CURVE SMOOTH"
);
}
);
width = 703;
}
);
script = gran;
category = Letter;
subCategory = Other;
},
{
glyphname = dda_gran;
lastChange = "2020-05-24 21:48:52 +0000";
layers = (
{
anchors = (
{
name = anudatta;
position = "{494, -100}";
},
{
name = anusvara;
position = "{984, 0}";
},
{
name = bottom;
position = "{473, -60}";
},
{
name = post;
position = "{965, 0}";
},
{
name = repha;
position = "{886, 0}";
},
{
name = svara;
position = "{473, 900}";
},
{
name = top;
position = "{473, 640}";
},
{
name = topright;
position = "{965, 566}";
},
{
name = vattu;
position = "{1008, 0}";
},
{
name = yaphalaa;
position = "{881, 0}";
}
);
guideLines = (
{
position = "{311, 591}";
}
);
layerId = "229B7033-F00A-4676-AEB9-BF59C6456AE0";
paths = (
{
closed = 1;
nodes = (
"469 131 LINE",
"490 56 OFFCURVE",
"545 -22 OFFCURVE",
"652 -22 CURVE SMOOTH",
"823 -22 OFFCURVE",
"914 150 OFFCURVE",
"914 294 CURVE SMOOTH",
"914 479 OFFCURVE",
"761 586 OFFCURVE",
"650 599 CURVE",
"643 544 LINE",
"715 529 OFFCURVE",
"829 445 OFFCURVE",
"829 286 CURVE SMOOTH",
"829 154 OFFCURVE",
"758 36 OFFCURVE",
"655 36 CURVE SMOOTH",
"566 36 OFFCURVE",
"525 156 OFFCURVE",
"516 189 CURVE",
"446 189 LINE",
"433 134 OFFCURVE",
"358 32 OFFCURVE",
"253 32 CURVE SMOOTH",
"190 32 OFFCURVE",
"162 62 OFFCURVE",
"162 107 CURVE SMOOTH",
"162 138 OFFCURVE",
"179 168 OFFCURVE",
"236 188 CURVE SMOOTH",
"284 205 LINE SMOOTH",
"377 238 OFFCURVE",
"472 309 OFFCURVE",
"472 418 CURVE SMOOTH",
"472 532 OFFCURVE",
"377 599 OFFCURVE",
"269 599 CURVE SMOOTH",
"155 599 OFFCURVE",
"70 530 OFFCURVE",
"70 427 CURVE SMOOTH",
"70 352 OFFCURVE",
"131 302 OFFCURVE",
"208 302 CURVE SMOOTH",
"297 302 OFFCURVE",
"358 356 OFFCURVE",
"358 428 CURVE SMOOTH",
"358 497 OFFCURVE",
"298 553 OFFCURVE",
"239 559 CURVE",
"185 556 LINE",
"244 540 OFFCURVE",
"267 479 OFFCURVE",
"267 436 CURVE SMOOTH",
"267 402 OFFCURVE",
"252 356 OFFCURVE",
"194 356 CURVE SMOOTH",
"153 356 OFFCURVE",
"128 380 OFFCURVE",
"128 427 CURVE SMOOTH",
"128 501 OFFCURVE",
"191 545 OFFCURVE",
"256 545 CURVE SMOOTH",
"339 545 OFFCURVE",
"402 497 OFFCURVE",
"402 418 CURVE SMOOTH",
"402 338 OFFCURVE",
"339 289 OFFCURVE",
"266 262 CURVE SMOOTH",
"214 243 LINE SMOOTH",
"137 215 OFFCURVE",
"72 173 OFFCURVE",
"72 102 CURVE SMOOTH",
"72 19 OFFCURVE",
"141 -22 OFFCURVE",
"246 -22 CURVE SMOOTH",
"364 -22 OFFCURVE",
"452 48 OFFCURVE",
"489 131 CURVE"
);
}
);
width = 984;
}
);
leftMetricsKey = ttha_gran;
rightMetricsKey = ttha_gran;
unicode = 11321;
},
{
glyphname = ddha_gran;
lastChange = "2020-05-24 21:48:52 +0000";
layers = (
{
anchors = (
{
name = anudatta;
position = "{494, -100}";
},
{
name = anusvara;
position = "{1066, 0}";
},
{
name = bottom;
position = "{494, -60}";
},
{
name = iiMatra;
position = "{711, 627}";
},
{
name = post;
position = "{1067, 0}";
},
{
name = repha;
position = "{957, 0}";
},
{
name = svara;
position = "{494, 900}";
},
{
name = top;
position = "{494, 640}";
},
{
name = topright;
position = "{1067, 566}";
},
{
name = vattu;
position = "{1108, 0}";
},
{
name = virama;
position = "{900, 497}";
},
{
name = yaphalaa;
position = "{965, 0}";
}
);
guideLines = (
{
angle = 201.413;
position = "{282, 198}";
}
);
layerId = "229B7033-F00A-4676-AEB9-BF59C6456AE0";
paths = (
{
closed = 1;
nodes = (
"339 545 OFFCURVE",
"402 497 OFFCURVE",
"402 418 CURVE SMOOTH",
"402 338 OFFCURVE",
"339 288 OFFCURVE",
"266 262 CURVE SMOOTH",
"214 243 LINE SMOOTH",
"137 215 OFFCURVE",
"72 173 OFFCURVE",
"72 102 CURVE SMOOTH",
"72 19 OFFCURVE",
"141 -22 OFFCURVE",
"246 -22 CURVE SMOOTH",
"364 -22 OFFCURVE",
"452 48 OFFCURVE",
"489 131 CURVE",
"470 131 LINE",
"491 56 OFFCURVE",
"563 -22 OFFCURVE",
"698 -22 CURVE SMOOTH",
"873 -22 OFFCURVE",
"996 117 OFFCURVE",
"996 311 CURVE SMOOTH",
"996 477 OFFCURVE",
"897 599 OFFCURVE",
"747 599 CURVE SMOOTH",
"643 599 OFFCURVE",
"558 533 OFFCURVE",
"558 433 CURVE SMOOTH",
"558 350 OFFCURVE",
"610 302 OFFCURVE",
"695 302 CURVE SMOOTH",
"784 302 OFFCURVE",
"846 356 OFFCURVE",
"846 428 CURVE SMOOTH",
"846 497 OFFCURVE",
"786 553 OFFCURVE",
"727 559 CURVE",
"673 556 LINE",
"732 540 OFFCURVE",
"755 484 OFFCURVE",
"755 439 CURVE SMOOTH",
"755 397 OFFCURVE",
"735 356 OFFCURVE",
"684 356 CURVE SMOOTH",
"646 356 OFFCURVE",
"616 379 OFFCURVE",
"616 427 CURVE SMOOTH",
"616 497 OFFCURVE",
"679 545 OFFCURVE",
"744 545 CURVE SMOOTH",
"831 545 OFFCURVE",
"906 465 OFFCURVE",
"906 310 CURVE SMOOTH",
"906 134 OFFCURVE",
"818 32 OFFCURVE",
"702 32 CURVE SMOOTH",
"586 32 OFFCURVE",
"530 133 OFFCURVE",
"516 189 CURVE",
"446 189 LINE",
"433 134 OFFCURVE",
"358 32 OFFCURVE",
"254 32 CURVE SMOOTH",
"191 32 OFFCURVE",
"162 61 OFFCURVE",
"162 107 CURVE SMOOTH",
"162 138 OFFCURVE",
"179 168 OFFCURVE",
"236 188 CURVE SMOOTH",
"284 205 LINE SMOOTH",
"377 237 OFFCURVE",
"472 309 OFFCURVE",
"472 418 CURVE SMOOTH",
"472 532 OFFCURVE",
"377 599 OFFCURVE",
"269 599 CURVE SMOOTH",
"155 599 OFFCURVE",
"70 530 OFFCURVE",
"70 427 CURVE SMOOTH",
"70 352 OFFCURVE",
"131 302 OFFCURVE",
"208 302 CURVE SMOOTH",
"297 302 OFFCURVE",
"358 356 OFFCURVE",
"358 428 CURVE SMOOTH",
"358 497 OFFCURVE",
"298 553 OFFCURVE",
"239 559 CURVE",
"185 556 LINE",
"244 540 OFFCURVE",
"267 479 OFFCURVE",
"267 436 CURVE SMOOTH",
"267 402 OFFCURVE",
"252 356 OFFCURVE",
"194 356 CURVE SMOOTH",
"153 356 OFFCURVE",
"128 380 OFFCURVE",
"128 427 CURVE SMOOTH",
"128 501 OFFCURVE",
"191 545 OFFCURVE",
"256 545 CURVE SMOOTH"
);
}
);
width = 1066;
}
);
leftMetricsKey = ttha_gran;
rightMetricsKey = ttha_gran;
unicode = 11322;
},
{
glyphname = nna_gran;
lastChange = "2020-05-24 21:48:52 +0000";
layers = (
{
anchors = (
{
name = anudatta;
position = "{871, -100}";
},
{
name = anusvara;
position = "{1707, 0}";
},
{
name = bottom;
position = "{871, -60}";
},
{
name = iiMatra;
position = "{1436, 595}";
},
{
name = post;
position = "{1712, 0}";
},
{
name = repha;
position = "{1656, 0}";
},
{
name = svara;
position = "{861, 900}";
},
{
name = top;
position = "{861, 640}";
},
{
name = topright;
position = "{1762, 566}";
},
{
name = vattu;
position = "{1732, 0}";
},
{
name = virama;
position = "{1648, 481}";
},
{
name = yaphalaa;
position = "{1639, 0}";
}
);
layerId = "229B7033-F00A-4676-AEB9-BF59C6456AE0";
paths = (
{
closed = 1;
nodes = (
"834 -5 OFFCURVE",
"907 77 OFFCURVE",
"907 194 CURVE SMOOTH",
"907 412 OFFCURVE",
"711 559 OFFCURVE",
"473 559 CURVE SMOOTH",
"261 559 OFFCURVE",
"70 445 OFFCURVE",
"70 234 CURVE SMOOTH",
"70 77 OFFCURVE",
"178 -4 OFFCURVE",
"290 -4 CURVE SMOOTH",
"398 -4 OFFCURVE",
"470 60 OFFCURVE",
"470 150 CURVE SMOOTH",
"470 242 OFFCURVE",
"412 304 OFFCURVE",
"318 304 CURVE SMOOTH",
"221 304 OFFCURVE",
"139 229 OFFCURVE",
"132 124 CURVE",
"162 97 LINE",
"168 185 OFFCURVE",
"217 236 OFFCURVE",
"281 236 CURVE SMOOTH",
"349 236 OFFCURVE",
"378 191 OFFCURVE",
"378 146 CURVE SMOOTH",
"378 92 OFFCURVE",
"339 49 OFFCURVE",
"273 49 CURVE SMOOTH",
"201 49 OFFCURVE",
"128 109 OFFCURVE",
"128 231 CURVE SMOOTH",
"128 407 OFFCURVE",
"280 505 OFFCURVE",
"459 505 CURVE SMOOTH",
"675 505 OFFCURVE",
"809 399 OFFCURVE",
"809 195 CURVE SMOOTH",
"809 113 OFFCURVE",
"777 49 OFFCURVE",
"704 49 CURVE SMOOTH",
"633 49 OFFCURVE",
"602 108 OFFCURVE",
"602 193 CURVE SMOOTH",
"602 375 OFFCURVE",
"733 505 OFFCURVE",
"933 505 CURVE SMOOTH",
"1134 505 OFFCURVE",
"1261 366 OFFCURVE",
"1261 184 CURVE SMOOTH",
"1261 99 OFFCURVE",
"1224 49 OFFCURVE",
"1158 49 CURVE SMOOTH",
"1087 49 OFFCURVE",
"1054 115 OFFCURVE",
"1054 196 CURVE SMOOTH",
"1054 331 OFFCURVE",
"1175 500 OFFCURVE",
"1407 500 CURVE SMOOTH",
"1750 500 LINE",
"1750 554 LINE",
"1407 554 LINE SMOOTH",
"1167 554 OFFCURVE",
"998 385 OFFCURVE",
"998 196 CURVE SMOOTH",
"998 79 OFFCURVE",
"1063 -5 OFFCURVE",
"1175 -5 CURVE SMOOTH",
"1279 -5 OFFCURVE",
"1359 66 OFFCURVE",
"1359 182 CURVE SMOOTH",
"1359 389 OFFCURVE",
"1178 559 OFFCURVE",
"947 559 CURVE SMOOTH",
"714 559 OFFCURVE",
"546 411 OFFCURVE",
"546 197 CURVE SMOOTH",
"546 77 OFFCURVE",
"608 -5 OFFCURVE",
"722 -5 CURVE SMOOTH"
);
},
{
closed = 1;
nodes = (
"1574 0 LINE",
"1574 529 LINE",
"1479 529 LINE",
"1479 0 LINE"
);
}
);
width = 1769;
}
);
leftMetricsKey = ttha_gran;
unicode = 11323;
},
{
glyphname = ta_gran;
lastChange = "2020-05-24 21:48:52 +0000";
layers = (
{
anchors = (
{
name = anudatta;
position = "{422, -240}";
},
{
name = anusvara;
position = "{872, 0}";
},
{
name = bottom;
position = "{422, -200}";
},
{
name = iiMatra;
position = "{581, 595}";
},
{
name = post;
position = "{852, 0}";
},
{
name = repha;
position = "{842, 0}";
},
{
name = svara;
position = "{439, 900}";
},
{
name = top;
position = "{439, 640}";
},
{
name = topright;
position = "{813, 566}";
},
{
name = vattu;
position = "{850, 0}";
},
{
name = virama;
position = "{656, 481}";
},
{
name = yaphalaa;
position = "{832, 0}";
}
);
guideLines = (
{
angle = 90;
position = "{1963, 488}";
}
);
layerId = "229B7033-F00A-4676-AEB9-BF59C6456AE0";
paths = (
{
closed = 1;
nodes = (
"159 -180 OFFCURVE",
"179 -140 OFFCURVE",
"273 -140 CURVE SMOOTH",
"451 -140 LINE SMOOTH",
"683 -140 OFFCURVE",
"802 -61 OFFCURVE",
"802 98 CURVE SMOOTH",
"802 233 OFFCURVE",
"692 329 OFFCURVE",
"548 329 CURVE SMOOTH",
"521 329 LINE",
"521 500 LINE",
"696 500 LINE",
"696 554 LINE",
"202 554 LINE",
"202 286 LINE",
"263 286 LINE",
"263 500 LINE",
"426 500 LINE",
"426 329 LINE",
"258 329 LINE SMOOTH",
"143 329 OFFCURVE",
"70 256 OFFCURVE",
"70 162 CURVE SMOOTH",
"70 51 OFFCURVE",
"166 -12 OFFCURVE",
"285 -12 CURVE SMOOTH",
"434 -12 OFFCURVE",
"521 72 OFFCURVE",
"521 200 CURVE SMOOTH",
"521 275 LINE",
"548 275 LINE SMOOTH",
"646 275 OFFCURVE",
"709 194 OFFCURVE",
"709 101 CURVE SMOOTH",
"709 -9 OFFCURVE",
"636 -86 OFFCURVE",
"424 -86 CURVE SMOOTH",
"238 -86 LINE SMOOTH",
"150 -86 OFFCURVE",
"70 -108 OFFCURVE",
"70 -179 CURVE SMOOTH",
"70 -228 OFFCURVE",
"101 -249 OFFCURVE",
"159 -249 CURVE"
);
},
{
closed = 1;
nodes = (
"196 41 OFFCURVE",
"132 76 OFFCURVE",
"132 160 CURVE SMOOTH",
"132 223 OFFCURVE",
"180 275 OFFCURVE",
"266 275 CURVE SMOOTH",
"426 275 LINE",
"426 189 LINE SMOOTH",
"426 82 OFFCURVE",
"358 41 OFFCURVE",
"277 41 CURVE SMOOTH"
);
}
);
width = 872;
}
);
unicode = 11324;
},
{
glyphname = ta_gran.flat;
lastChange = "2020-05-24 21:48:52 +0000";
layers = (
{
anchors = (
{
name = anudatta;
position = "{422, -240}";
},
{
name = anusvara;
position = "{872, 0}";
},
{
name = bottom;
position = "{422, -200}";
},
{
name = iiMatra;
position = "{581, 595}";
},
{
name = post;
position = "{852, 0}";
},
{
name = repha;
position = "{842, 0}";
},
{
name = svara;
position = "{439, 900}";
},
{
name = top;
position = "{439, 640}";
},
{
name = topright;
position = "{813, 566}";
},
{
name = vattu;
position = "{850, 0}";
},
{
name = virama;
position = "{656, 481}";
},
{
name = yaphalaa;
position = "{832, 0}";
}
);
layerId = "229B7033-F00A-4676-AEB9-BF59C6456AE0";
paths = (
{
closed = 1;
nodes = (
"70 -140 LINE",
"451 -140 LINE SMOOTH",
"683 -140 OFFCURVE",
"802 -61 OFFCURVE",
"802 98 CURVE SMOOTH",
"802 233 OFFCURVE",
"692 329 OFFCURVE",
"548 329 CURVE SMOOTH",
"521 329 LINE",
"521 500 LINE",
"696 500 LINE",
"696 554 LINE",
"202 554 LINE",
"202 286 LINE",
"263 286 LINE",
"263 500 LINE",
"426 500 LINE",
"426 329 LINE",
"258 329 LINE SMOOTH",
"143 329 OFFCURVE",
"70 256 OFFCURVE",
"70 162 CURVE SMOOTH",
"70 51 OFFCURVE",
"166 -12 OFFCURVE",
"285 -12 CURVE SMOOTH",
"434 -12 OFFCURVE",
"521 72 OFFCURVE",
"521 200 CURVE SMOOTH",
"521 275 LINE",
"548 275 LINE SMOOTH",
"646 275 OFFCURVE",
"709 194 OFFCURVE",
"709 101 CURVE SMOOTH",
"709 -9 OFFCURVE",
"636 -86 OFFCURVE",
"424 -86 CURVE SMOOTH",
"70 -86 LINE"
);
},
{
closed = 1;
nodes = (
"196 41 OFFCURVE",
"132 76 OFFCURVE",
"132 160 CURVE SMOOTH",
"132 223 OFFCURVE",
"180 275 OFFCURVE",
"266 275 CURVE SMOOTH",
"426 275 LINE",
"426 189 LINE SMOOTH",
"426 82 OFFCURVE",
"358 41 OFFCURVE",
"277 41 CURVE SMOOTH"
);
}
);
width = 872;
}
);
script = gran;
category = Letter;
},
{
glyphname = tha_gran;
lastChange = "2020-05-24 21:48:52 +0000";
layers = (
{
anchors = (
{
name = anudatta;
position = "{544, -180}";
},
{
name = anusvara;
position = "{1175, 0}";
},
{
name = bottom;
position = "{544, -80}";
},
{
name = iiMatra;
position = "{822, 605}";
},
{
name = post;
position = "{1168, 0}";
},
{
name = repha;
position = "{1078, 0}";
},
{
name = svara;
position = "{539, 900}";
},
{
name = top;
position = "{539, 640}";
},
{
name = topright;
position = "{1168, 567}";
},
{
name = vattu;
position = "{1210, 0}";
},
{
name = virama;
position = "{1011, 475}";
},
{
name = yaphalaa;
position = "{1082, 0}";
}
);
layerId = "229B7033-F00A-4676-AEB9-BF59C6456AE0";
paths = (
{
closed = 1;
nodes = (
"934 -102 OFFCURVE",
"1105 37 OFFCURVE",
"1105 290 CURVE SMOOTH",
"1105 442 OFFCURVE",
"1022 579 OFFCURVE",
"845 579 CURVE SMOOTH",
"720 579 OFFCURVE",
"618 516 OFFCURVE",
"618 405 CURVE SMOOTH",
"618 327 OFFCURVE",
"686 267 OFFCURVE",
"779 267 CURVE SMOOTH",
"861 267 OFFCURVE",
"927 316 OFFCURVE",
"927 397 CURVE SMOOTH",
"927 472 OFFCURVE",
"857 533 OFFCURVE",
"798 539 CURVE",
"743 536 LINE",
"803 520 OFFCURVE",
"836 459 OFFCURVE",
"836 406 CURVE SMOOTH",
"836 357 OFFCURVE",
"811 321 OFFCURVE",
"758 321 CURVE SMOOTH",
"712 321 OFFCURVE",
"677 348 OFFCURVE",
"677 402 CURVE SMOOTH",
"677 481 OFFCURVE",
"747 525 OFFCURVE",
"833 525 CURVE SMOOTH",
"960 525 OFFCURVE",
"1010 408 OFFCURVE",
"1010 290 CURVE SMOOTH",
"1010 77 OFFCURVE",
"883 -48 OFFCURVE",
"721 -48 CURVE SMOOTH",
"585 -48 OFFCURVE",
"446 46 OFFCURVE",
"446 208 CURVE SMOOTH",
"446 554 LINE",
"351 554 LINE",
"351 180 LINE SMOOTH",
"351 76 OFFCURVE",
"285 54 OFFCURVE",
"246 54 CURVE SMOOTH",
"198 54 OFFCURVE",
"141 87 OFFCURVE",
"141 196 CURVE SMOOTH",
"141 554 LINE",
"66 554 LINE",
"66 195 LINE SMOOTH",
"66 50 OFFCURVE",
"148 -5 OFFCURVE",
"231 -5 CURVE SMOOTH",
"302 -5 OFFCURVE",
"373 32 OFFCURVE",
"419 107 CURVE",
"399 107 LINE",
"429 -8 OFFCURVE",
"541 -102 OFFCURVE",
"716 -102 CURVE SMOOTH"
);
}
);
width = 1175;
}
);
rightMetricsKey = ttha_gran;
unicode = 11325;
},
{
glyphname = da_gran;
lastChange = "2020-05-24 21:48:52 +0000";
layers = (
{
anchors = (
{
name = anudatta;
position = "{415, -183}";
},
{
name = anusvara;
position = "{782, 0}";
},
{
name = bottom;
position = "{415, -127}";
},
{
name = bottom_exception;
position = "{375, -128}";
},
{
name = iiMatra;
position = "{322, 579}";
},
{
name = post;
position = "{812, 0}";
},
{
name = repha;
position = "{789, 0}";
},
{
name = svara;
position = "{412, 900}";
},
{
name = top;
position = "{332, 640}";
},
{
name = topright;
position = "{692, 566}";
},
{
name = vattu;
position = "{755, 0}";
},
{
name = virama;
position = "{488, 458}";
},
{
name = yaphalaa;
position = "{733, 0}";
}
);
guideLines = (
{
angle = 90;
position = "{2137, 858}";
}
);
layerId = "229B7033-F00A-4676-AEB9-BF59C6456AE0";
paths = (
{
closed = 1;
nodes = (
"730 0 LINE",
"730 54 LINE",
"167 54 LINE SMOOTH",
"146 54 OFFCURVE",
"128 69 OFFCURVE",
"128 94 CURVE SMOOTH",
"128 120 OFFCURVE",
"146 135 OFFCURVE",
"167 135 CURVE SMOOTH",
"317 135 LINE SMOOTH",
"469 135 OFFCURVE",
"587 200 OFFCURVE",
"587 336 CURVE SMOOTH",
"587 481 OFFCURVE",
"465 559 OFFCURVE",
"305 559 CURVE SMOOTH",
"170 559 OFFCURVE",
"70 495 OFFCURVE",
"70 385 CURVE SMOOTH",
"70 307 OFFCURVE",
"138 247 OFFCURVE",
"230 247 CURVE SMOOTH",
"312 247 OFFCURVE",
"378 296 OFFCURVE",
"378 377 CURVE SMOOTH",
"378 452 OFFCURVE",
"308 513 OFFCURVE",
"249 519 CURVE",
"195 516 LINE",
"254 500 OFFCURVE",
"287 439 OFFCURVE",
"287 386 CURVE SMOOTH",
"287 337 OFFCURVE",
"262 301 OFFCURVE",
"209 301 CURVE SMOOTH",
"163 301 OFFCURVE",
"128 328 OFFCURVE",
"128 382 CURVE SMOOTH",
"128 461 OFFCURVE",
"199 505 OFFCURVE",
"284 505 CURVE SMOOTH",
"396 505 OFFCURVE",
"492 447 OFFCURVE",
"492 349 CURVE SMOOTH",
"492 244 OFFCURVE",
"426 188 OFFCURVE",
"303 188 CURVE SMOOTH",
"175 188 LINE SMOOTH",
"111 188 OFFCURVE",
"70 154 OFFCURVE",
"70 94 CURVE SMOOTH",
"70 35 OFFCURVE",
"111 0 OFFCURVE",
"175 0 CURVE SMOOTH"
);
},
{
closed = 1;
nodes = (
"401 -127 LINE",
"495 -127 LINE",
"495 37 LINE",
"401 37 LINE"
);
}
);
width = 782;
}
);
leftMetricsKey = ttha_gran;
unicode = 11326;
},
{
glyphname = dha_gran;
lastChange = "2020-05-24 21:48:52 +0000";
layers = (
{
anchors = (
{
name = anudatta;
position = "{527, -180}";
},
{
name = anusvara;
position = "{1050, 0}";
},
{
name = bottom;
position = "{527, -90}";
},
{
name = post;
position = "{1045, 0}";
},
{
name = repha;
position = "{985, 0}";
},
{
name = svara;
position = "{522, 900}";
},
{
name = top;
position = "{522, 640}";
},
{
name = topright;
position = "{1035, 566}";
},
{
name = vattu;
position = "{1087, 0}";
},
{
name = yaphalaa;
position = "{977, 0}";
}
);
layerId = "229B7033-F00A-4676-AEB9-BF59C6456AE0";
paths = (
{
closed = 1;
nodes = (
"812 -85 OFFCURVE",
"980 38 OFFCURVE",
"980 256 CURVE SMOOTH",
"980 453 OFFCURVE",
"840 560 OFFCURVE",
"701 576 CURVE",
"691 515 LINE",
"812 486 OFFCURVE",
"885 382 OFFCURVE",
"885 244 CURVE SMOOTH",
"885 66 OFFCURVE",
"760 -26 OFFCURVE",
"636 -26 CURVE SMOOTH",
"534 -26 OFFCURVE",
"446 36 OFFCURVE",
"446 148 CURVE SMOOTH",
"446 554 LINE",
"351 554 LINE",
"351 180 LINE SMOOTH",
"351 76 OFFCURVE",
"285 54 OFFCURVE",
"246 54 CURVE SMOOTH",
"198 54 OFFCURVE",
"141 87 OFFCURVE",
"141 196 CURVE SMOOTH",
"141 554 LINE",
"66 554 LINE",
"66 195 LINE SMOOTH",
"66 50 OFFCURVE",
"148 -5 OFFCURVE",
"234 -5 CURVE SMOOTH",
"282 -5 OFFCURVE",
"359 13 OFFCURVE",
"399 107 CURVE",
"379 107 LINE",
"409 -22 OFFCURVE",
"511 -85 OFFCURVE",
"636 -85 CURVE SMOOTH"
);
}
);
width = 1050;
}
);
rightMetricsKey = ttha_gran;
unicode = 11327;
},
{
glyphname = na_gran;
lastChange = "2020-05-24 21:48:52 +0000";
layers = (
{
anchors = (
{
name = anudatta;
position = "{356, -240}";
},
{
name = anusvara;
position = "{838, 0}";
},
{
name = bottom;
position = "{356, -200}";
},
{
name = iiMatra;
position = "{492, 595}";
},
{
name = post;
position = "{793, 0}";
},
{
name = repha;
position = "{763, 0}";
},
{
name = svara;
position = "{392, 900}";
},
{
name = top;
position = "{339, 640}";
},
{
name = topright;
position = "{701, 566}";
},
{
name = vattu;
position = "{796, 0}";
},
{
name = virama;
position = "{566, 481}";
},
{
name = yaphalaa;
position = "{739, 0}";
}
);
layerId = "229B7033-F00A-4676-AEB9-BF59C6456AE0";
paths = (
{
closed = 1;
nodes = (
"159 -180 OFFCURVE",
"179 -140 OFFCURVE",
"272 -140 CURVE SMOOTH",
"358 -140 LINE SMOOTH",
"560 -140 OFFCURVE",
"725 -62 OFFCURVE",
"725 143 CURVE SMOOTH",
"725 275 OFFCURVE",
"646 345 OFFCURVE",
"546 345 CURVE SMOOTH",
"474 345 OFFCURVE",
"435 302 OFFCURVE",
"426 272 CURVE",
"426 500 LINE",
"607 500 LINE",
"607 554 LINE",
"80 554 LINE",
"80 0 LINE",
"141 0 LINE",
"141 500 LINE",
"331 500 LINE",
"331 0 LINE",
"426 0 LINE",
"426 183 LINE SMOOTH",
"426 236 OFFCURVE",
"460 286 OFFCURVE",
"520 286 CURVE SMOOTH",
"584 286 OFFCURVE",
"629 239 OFFCURVE",
"629 132 CURVE SMOOTH",
"629 -30 OFFCURVE",
"536 -86 OFFCURVE",
"331 -86 CURVE SMOOTH",
"238 -86 LINE SMOOTH",
"150 -86 OFFCURVE",
"70 -108 OFFCURVE",
"70 -179 CURVE SMOOTH",
"70 -225 OFFCURVE",
"101 -249 OFFCURVE",
"159 -249 CURVE"
);
}
);
width = 805;
}
);
unicode = 11328;
},
{
glyphname = na_gran.flat;
lastChange = "2020-05-24 21:48:52 +0000";
layers = (
{
anchors = (
{
name = anudatta;
position = "{356, -240}";
},
{
name = anusvara;
position = "{838, 0}";
},
{
name = bottom;
position = "{356, -200}";
},
{
name = iiMatra;
position = "{492, 595}";
},
{
name = post;
position = "{793, 0}";
},
{
name = repha;
position = "{763, 0}";
},
{
name = svara;
position = "{392, 900}";
},
{
name = top;
position = "{339, 640}";
},
{
name = topright;
position = "{701, 566}";
},
{
name = vattu;
position = "{796, 0}";
},
{
name = virama;
position = "{566, 481}";
},
{
name = yaphalaa;
position = "{739, 0}";
}
);
layerId = "229B7033-F00A-4676-AEB9-BF59C6456AE0";
paths = (
{
closed = 1;
nodes = (
"70 -140 LINE",
"358 -140 LINE SMOOTH",
"560 -140 OFFCURVE",
"725 -62 OFFCURVE",
"725 143 CURVE SMOOTH",
"725 275 OFFCURVE",
"646 345 OFFCURVE",
"546 345 CURVE SMOOTH",
"474 345 OFFCURVE",
"435 302 OFFCURVE",
"426 272 CURVE",
"426 500 LINE",
"607 500 LINE",
"607 554 LINE",
"80 554 LINE",
"80 0 LINE",
"141 0 LINE",
"141 500 LINE",
"331 500 LINE",
"331 0 LINE",
"426 0 LINE",
"426 183 LINE SMOOTH",
"426 236 OFFCURVE",
"460 286 OFFCURVE",
"520 286 CURVE SMOOTH",
"584 286 OFFCURVE",
"629 239 OFFCURVE",
"629 132 CURVE SMOOTH",
"629 -30 OFFCURVE",
"536 -86 OFFCURVE",
"331 -86 CURVE SMOOTH",
"70 -86 LINE"
);
}
);
width = 805;
}
);
script = gran;
category = Letter;
},
{
glyphname = pa_gran;
lastChange = "2020-05-24 21:48:52 +0000";
layers = (
{
anchors = (
{
name = anudatta;
position = "{766, -100}";
},
{
name = anusvara;
position = "{1478, 0}";
},
{
name = bottom;
position = "{734, -60}";
},
{
name = bottom_right;
position = "{969, -60}";
},
{
name = post;
position = "{1467, 0}";
},
{
name = repha;
position = "{1458, 0}";
},
{
name = svara;
position = "{739, 900}";
},
{
name = top;
position = "{766, 640}";
},
{
name = topright;
position = "{1487, 566}";
},
{
name = vattu;
position = "{1521, 0}";
},
{
name = virama;
position = "{1297, 481}";
},
{
name = yaphalaa;
position = "{1419, 0}";
}
);
guideLines = (
{
angle = 180;
position = "{967, 0}";
}
);
layerId = "229B7033-F00A-4676-AEB9-BF59C6456AE0";
paths = (
{
closed = 1;
nodes = (
"398 -4 OFFCURVE",
"470 60 OFFCURVE",
"470 150 CURVE SMOOTH",
"470 242 OFFCURVE",
"412 304 OFFCURVE",
"318 304 CURVE SMOOTH",
"221 304 OFFCURVE",
"139 229 OFFCURVE",
"132 124 CURVE",
"162 97 LINE",
"168 185 OFFCURVE",
"217 236 OFFCURVE",
"281 236 CURVE SMOOTH",
"349 236 OFFCURVE",
"378 191 OFFCURVE",
"378 146 CURVE SMOOTH",
"378 92 OFFCURVE",
"339 49 OFFCURVE",
"273 49 CURVE SMOOTH",
"201 49 OFFCURVE",
"128 109 OFFCURVE",
"128 231 CURVE SMOOTH",
"128 403 OFFCURVE",
"243 505 OFFCURVE",
"405 505 CURVE SMOOTH",
"554 505 OFFCURVE",
"669 402 OFFCURVE",
"669 257 CURVE SMOOTH",
"669 150 OFFCURVE",
"630 83 OFFCURVE",
"588 43 CURVE",
"606 0 LINE",
"1398 0 LINE",
"1398 554 LINE",
"1303 554 LINE",
"1303 54 LINE",
"677 54 LINE",
"720 97 OFFCURVE",
"765 164 OFFCURVE",
"765 261 CURVE SMOOTH",
"765 441 OFFCURVE",
"610 559 OFFCURVE",
"418 559 CURVE SMOOTH",
"222 559 OFFCURVE",
"70 440 OFFCURVE",
"70 234 CURVE SMOOTH",
"70 77 OFFCURVE",
"178 -4 OFFCURVE",
"290 -4 CURVE SMOOTH"
);
}
);
width = 1478;
}
);
leftMetricsKey = ttha_gran;
unicode = 1132A;
},
{
glyphname = pha_gran;
lastChange = "2020-05-24 21:48:52 +0000";
layers = (
{
anchors = (
{
name = anudatta;
position = "{766, -100}";
},
{
name = anusvara;
position = "{1540, 0}";
},
{
name = bottom;
position = "{765, -60}";
},
{
name = iiMatra;
position = "{1238, 593}";
},
{
name = post;
position = "{1540, 0}";
},
{
name = repha;
position = "{1520, 0}";
},
{
name = svara;
position = "{770, 900}";
},
{
name = top;
position = "{770, 640}";
},
{
name = topright;
position = "{1540, 566}";
},
{
name = vattu;
position = "{1583, 0}";
},
{
name = virama;
position = "{1416, 468}";
},
{
name = yaphalaa;
position = "{1480, 0}";
}
);
guideLines = (
{
angle = 180;
position = "{1284, 319}";
}
);
layerId = "229B7033-F00A-4676-AEB9-BF59C6456AE0";
paths = (
{
closed = 1;
nodes = (
"398 -4 OFFCURVE",
"470 60 OFFCURVE",
"470 150 CURVE SMOOTH",
"470 242 OFFCURVE",
"412 304 OFFCURVE",
"318 304 CURVE SMOOTH",
"221 304 OFFCURVE",
"139 229 OFFCURVE",
"132 124 CURVE",
"162 97 LINE",
"168 185 OFFCURVE",
"217 236 OFFCURVE",
"281 236 CURVE SMOOTH",
"349 236 OFFCURVE",
"378 191 OFFCURVE",
"378 146 CURVE SMOOTH",
"378 92 OFFCURVE",
"339 49 OFFCURVE",
"273 49 CURVE SMOOTH",
"201 49 OFFCURVE",
"128 109 OFFCURVE",
"128 231 CURVE SMOOTH",
"128 403 OFFCURVE",
"243 505 OFFCURVE",
"405 505 CURVE SMOOTH",
"554 505 OFFCURVE",
"669 402 OFFCURVE",
"669 257 CURVE SMOOTH",
"669 150 OFFCURVE",
"630 83 OFFCURVE",
"588 43 CURVE",
"606 0 LINE",
"1460 0 LINE",
"1460 54 LINE",
"677 54 LINE",
"720 97 OFFCURVE",
"765 164 OFFCURVE",
"765 261 CURVE SMOOTH",
"765 441 OFFCURVE",
"610 559 OFFCURVE",
"418 559 CURVE SMOOTH",
"222 559 OFFCURVE",
"70 440 OFFCURVE",
"70 234 CURVE SMOOTH",
"70 77 OFFCURVE",
"178 -4 OFFCURVE",
"290 -4 CURVE SMOOTH"
);
},
{
closed = 1;
nodes = (
"1125 0 LINE",
"1220 0 LINE",
"1220 391 LINE SMOOTH",
"1220 459 OFFCURVE",
"1250 505 OFFCURVE",
"1311 505 CURVE SMOOTH",
"1360 505 OFFCURVE",
"1399 470 OFFCURVE",
"1399 404 CURVE SMOOTH",
"1399 0 LINE",
"1460 0 LINE",
"1460 404 LINE SMOOTH",
"1460 505 OFFCURVE",
"1393 559 OFFCURVE",
"1304 559 CURVE SMOOTH",
"1184 559 OFFCURVE",
"1125 489 OFFCURVE",
"1125 390 CURVE SMOOTH"
);
}
);
width = 1540;
}
);
leftMetricsKey = ttha_gran;
unicode = 1132B;
},
{
glyphname = ba_gran;
lastChange = "2020-05-24 21:48:52 +0000";
layers = (
{
anchors = (
{
name = anudatta;
position = "{766, -100}";
},
{
name = anusvara;
position = "{1591, 0}";
},
{
name = bottom;
position = "{788, -60}";
},
{
name = post;
position = "{1575, 0}";
},
{
name = repha;
position = "{1571, 0}";
},
{
name = svara;
position = "{793, 900}";
},
{
name = top;
position = "{793, 640}";
},
{
name = topright;
position = "{1595, 566}";
},
{
name = vattu;
position = "{1617, 0}";
},
{
name = virama;
position = "{1410, 481}";
},
{
name = yaphalaa;
position = "{1537, 0}";
}
);
components = (
{
name = ba.base;
transform = "{1, 0, 0, 1, 11, 0}";
}
);
layerId = "229B7033-F00A-4676-AEB9-BF59C6456AE0";
paths = (
{
closed = 1;
nodes = (
"1511 554 LINE",
"1425 554 LINE",
"1425 0 LINE",
"1511 0 LINE"
);
}
);
width = 1591;
}
);
leftMetricsKey = ttha_gran;
unicode = 1132C;
},
{
glyphname = bha_gran;
lastChange = "2020-05-24 21:48:52 +0000";
layers = (
{
anchors = (
{
name = anudatta;
position = "{673, -240}";
},
{
name = anusvara;
position = "{1392, 0}";
},
{
name = bottom;
position = "{673, -200}";
},
{
name = iiMatra;
position = "{1025, 593}";
},
{
name = post;
position = "{1332, 0}";
},
{
name = repha;
position = "{1332, 0}";
},
{
name = svara;
position = "{673, 900}";
},
{
name = top;
position = "{673, 640}";
},
{
name = topright;
position = "{1332, 566}";
},
{
name = vattu;
position = "{1435, 0}";
},
{
name = virama;
position = "{1221, 462}";
},
{
name = yaphalaa;
position = "{1270, 0}";
}
);
layerId = "229B7033-F00A-4676-AEB9-BF59C6456AE0";
paths = (
{
closed = 1;
nodes = (
"684 318 LINE SMOOTH",
"684 462 OFFCURVE",
"559 559 OFFCURVE",
"394 559 CURVE SMOOTH",
"207 559 OFFCURVE",
"70 440 OFFCURVE",
"70 234 CURVE SMOOTH",
"70 77 OFFCURVE",
"178 -4 OFFCURVE",
"290 -4 CURVE SMOOTH",
"398 -4 OFFCURVE",
"470 60 OFFCURVE",
"470 150 CURVE SMOOTH",
"470 242 OFFCURVE",
"412 304 OFFCURVE",
"318 304 CURVE SMOOTH",
"221 304 OFFCURVE",
"139 229 OFFCURVE",
"132 124 CURVE",
"162 97 LINE",
"168 185 OFFCURVE",
"217 236 OFFCURVE",
"281 236 CURVE SMOOTH",
"349 236 OFFCURVE",
"378 191 OFFCURVE",
"378 146 CURVE SMOOTH",
"378 92 OFFCURVE",
"339 49 OFFCURVE",
"273 49 CURVE SMOOTH",
"201 49 OFFCURVE",
"128 109 OFFCURVE",
"128 231 CURVE SMOOTH",
"128 403 OFFCURVE",
"231 505 OFFCURVE",
"385 505 CURVE SMOOTH",
"510 505 OFFCURVE",
"589 430 OFFCURVE",
"589 320 CURVE SMOOTH",
"589 227 LINE SMOOTH",
"589 42 OFFCURVE",
"669 -15 OFFCURVE",
"773 -15 CURVE SMOOTH",
"877 -15 OFFCURVE",
"957 42 OFFCURVE",
"957 227 CURVE SMOOTH",
"957 353 LINE SMOOTH",
"957 471 OFFCURVE",
"1012 505 OFFCURVE",
"1076 505 CURVE SMOOTH",
"1152 505 OFFCURVE",
"1226 448 OFFCURVE",
"1226 255 CURVE SMOOTH",
"1226 -8 OFFCURVE",
"1099 -86 OFFCURVE",
"810 -86 CURVE SMOOTH",
"258 -86 LINE SMOOTH",
"170 -86 OFFCURVE",
"90 -104 OFFCURVE",
"90 -176 CURVE SMOOTH",
"90 -225 OFFCURVE",
"121 -246 OFFCURVE",
"179 -246 CURVE",
"179 -179 OFFCURVE",
"199 -140 OFFCURVE",
"292 -140 CURVE SMOOTH",
"826 -140 LINE SMOOTH",
"1139 -140 OFFCURVE",
"1321 -37 OFFCURVE",
"1321 244 CURVE SMOOTH",
"1321 389 OFFCURVE",
"1266 559 OFFCURVE",
"1077 559 CURVE SMOOTH",
"966 559 OFFCURVE",
"862 495 OFFCURVE",
"862 343 CURVE SMOOTH",
"862 192 LINE SMOOTH",
"862 80 OFFCURVE",
"832 46 OFFCURVE",
"773 46 CURVE SMOOTH",
"711 46 OFFCURVE",
"684 80 OFFCURVE",
"684 192 CURVE SMOOTH"
);
}
);
width = 1391;
}
);
leftMetricsKey = ttha_gran;
rightMetricsKey = ttha_gran;
unicode = 1132D;
},
{
glyphname = bha_gran.flat;
lastChange = "2020-05-24 21:48:52 +0000";
layers = (
{
anchors = (
{
name = anudatta;
position = "{673, -240}";
},
{
name = anusvara;
position = "{1392, 0}";
},
{
name = bottom;
position = "{673, -200}";
},
{
name = iiMatra;
position = "{1025, 593}";
},
{
name = post;
position = "{1332, 0}";
},
{
name = repha;
position = "{1322, 0}";
},
{
name = svara;
position = "{673, 900}";
},
{
name = top;
position = "{673, 640}";
},
{
name = topright;
position = "{1332, 566}";
},
{
name = vattu;
position = "{1435, 0}";
},
{
name = virama;
position = "{1203, 468}";
},
{
name = yaphalaa;
position = "{1270, 0}";
}
);
layerId = "229B7033-F00A-4676-AEB9-BF59C6456AE0";
paths = (
{
closed = 1;
nodes = (
"80 -140 LINE",
"826 -140 LINE SMOOTH",
"1139 -140 OFFCURVE",
"1321 -37 OFFCURVE",
"1321 244 CURVE SMOOTH",
"1321 389 OFFCURVE",
"1266 559 OFFCURVE",
"1077 559 CURVE SMOOTH",
"966 559 OFFCURVE",
"862 495 OFFCURVE",
"862 343 CURVE SMOOTH",
"862 192 LINE SMOOTH",
"862 80 OFFCURVE",
"832 46 OFFCURVE",
"773 46 CURVE SMOOTH",
"711 46 OFFCURVE",
"684 80 OFFCURVE",
"684 192 CURVE SMOOTH",
"684 318 LINE SMOOTH",
"684 462 OFFCURVE",
"559 559 OFFCURVE",
"394 559 CURVE SMOOTH",
"207 559 OFFCURVE",
"70 440 OFFCURVE",
"70 234 CURVE SMOOTH",
"70 77 OFFCURVE",
"178 -4 OFFCURVE",
"290 -4 CURVE SMOOTH",
"398 -4 OFFCURVE",
"470 60 OFFCURVE",
"470 150 CURVE SMOOTH",
"470 242 OFFCURVE",
"412 304 OFFCURVE",
"318 304 CURVE SMOOTH",
"221 304 OFFCURVE",
"139 229 OFFCURVE",
"132 124 CURVE",
"162 97 LINE",
"168 185 OFFCURVE",
"217 236 OFFCURVE",
"281 236 CURVE SMOOTH",
"349 236 OFFCURVE",
"378 191 OFFCURVE",
"378 146 CURVE SMOOTH",
"378 92 OFFCURVE",
"339 49 OFFCURVE",
"273 49 CURVE SMOOTH",
"201 49 OFFCURVE",
"128 109 OFFCURVE",
"128 231 CURVE SMOOTH",
"128 403 OFFCURVE",
"231 505 OFFCURVE",
"385 505 CURVE SMOOTH",
"510 505 OFFCURVE",
"589 430 OFFCURVE",
"589 320 CURVE SMOOTH",
"589 227 LINE SMOOTH",
"589 42 OFFCURVE",
"669 -15 OFFCURVE",
"773 -15 CURVE SMOOTH",
"877 -15 OFFCURVE",
"957 42 OFFCURVE",
"957 227 CURVE SMOOTH",
"957 353 LINE SMOOTH",
"957 471 OFFCURVE",
"1012 505 OFFCURVE",
"1076 505 CURVE SMOOTH",
"1152 505 OFFCURVE",
"1226 448 OFFCURVE",
"1226 255 CURVE SMOOTH",
"1226 -8 OFFCURVE",
"1099 -86 OFFCURVE",
"810 -86 CURVE SMOOTH",
"80 -86 LINE"
);
}
);
width = 1391;
}
);
leftMetricsKey = bha_gran;
rightMetricsKey = bha_gran;
script = gran;
category = Letter;
},
{
glyphname = ma_gran;
lastChange = "2020-05-24 21:48:52 +0000";
layers = (
{
anchors = (
{
name = anudatta;
position = "{309, -197}";
},
{
name = anusvara;
position = "{648, 0}";
},
{
name = bottom;
position = "{309, -112}";
},
{
name = iiMatra;
position = "{320, 624}";
},
{
name = post;
position = "{637, 0}";
},
{
name = repha;
position = "{587, 0}";
},
{
name = svara;
position = "{309, 900}";
},
{
name = top;
position = "{309, 640}";
},
{
name = topright;
position = "{637, 566}";
},
{
name = vattu;
position = "{687, 0}";
},
{
name = virama;
position = "{487, 503}";
},
{
name = yaphalaa;
position = "{601, 0}";
}
);
layerId = "229B7033-F00A-4676-AEB9-BF59C6456AE0";
paths = (
{
closed = 1;
nodes = (
"364 207 LINE SMOOTH",
"460 243 OFFCURVE",
"588 299 OFFCURVE",
"588 415 CURVE SMOOTH",
"588 527 OFFCURVE",
"473 599 OFFCURVE",
"317 599 CURVE SMOOTH",
"171 599 OFFCURVE",
"60 533 OFFCURVE",
"60 426 CURVE SMOOTH",
"60 344 OFFCURVE",
"128 287 OFFCURVE",
"221 287 CURVE SMOOTH",
"303 287 OFFCURVE",
"369 343 OFFCURVE",
"369 420 CURVE SMOOTH",
"369 499 OFFCURVE",
"299 553 OFFCURVE",
"240 559 CURVE",
"185 556 LINE",
"245 540 OFFCURVE",
"278 479 OFFCURVE",
"278 426 CURVE SMOOTH",
"278 377 OFFCURVE",
"253 341 OFFCURVE",
"200 341 CURVE SMOOTH",
"154 341 OFFCURVE",
"119 368 OFFCURVE",
"119 422 CURVE SMOOTH",
"119 501 OFFCURVE",
"189 545 OFFCURVE",
"315 545 CURVE SMOOTH",
"402 545 OFFCURVE",
"492 499 OFFCURVE",
"492 412 CURVE SMOOTH",
"492 327 OFFCURVE",
"391 272 OFFCURVE",
"313 243 CURVE SMOOTH",
"251 220 LINE SMOOTH",
"130 175 OFFCURVE",
"65 122 OFFCURVE",
"65 42 CURVE SMOOTH",
"65 -51 OFFCURVE",
"162 -112 OFFCURVE",
"293 -112 CURVE SMOOTH",
"447 -112 OFFCURVE",
"556 -13 OFFCURVE",
"556 86 CURVE SMOOTH",
"556 133 OFFCURVE",
"529 168 OFFCURVE",
"508 190 CURVE",
"457 166 LINE",
"474 150 OFFCURVE",
"496 123 OFFCURVE",
"496 85 CURVE SMOOTH",
"496 19 OFFCURVE",
"439 -58 OFFCURVE",
"300 -58 CURVE SMOOTH",
"200 -58 OFFCURVE",
"151 -10 OFFCURVE",
"151 43 CURVE SMOOTH",
"151 103 OFFCURVE",
"199 145 OFFCURVE",
"284 177 CURVE SMOOTH"
);
}
);
width = 648;
}
);
unicode = 1132E;
},
{
glyphname = ya_gran;
lastChange = "2020-05-24 21:48:52 +0000";
layers = (
{
anchors = (
{
name = anudatta;
position = "{469, -100}";
},
{
name = anusvara;
position = "{956, 0}";
},
{
name = bottom;
position = "{470, -60}";
},
{
name = post;
position = "{944, 0}";
},
{
name = repha;
position = "{936, 0}";
},
{
name = svara;
position = "{470, 900}";
},
{
name = top;
position = "{470, 640}";
},
{
name = topright;
position = "{964, 566}";
},
{
name = vattu;
position = "{999, 0}";
},
{
name = virama;
position = "{775, 481}";
},
{
name = yaphalaa;
position = "{896, 0}";
}
);
layerId = "229B7033-F00A-4676-AEB9-BF59C6456AE0";
paths = (
{
closed = 1;
nodes = (
"317 -5 OFFCURVE",
"357 49 OFFCURVE",
"366 71 CURVE",
"366 0 LINE",
"876 0 LINE",
"876 554 LINE",
"781 554 LINE",
"781 54 LINE",
"455 54 LINE",
"455 554 LINE",
"360 554 LINE",
"360 160 LINE SMOOTH",
"360 100 OFFCURVE",
"316 56 OFFCURVE",
"257 56 CURVE SMOOTH",
"193 56 OFFCURVE",
"155 90 OFFCURVE",
"155 151 CURVE SMOOTH",
"155 554 LINE",
"80 554 LINE",
"80 168 LINE SMOOTH",
"80 52 OFFCURVE",
"148 -5 OFFCURVE",
"244 -5 CURVE SMOOTH"
);
}
);
width = 956;
}
);
unicode = 1132F;
},
{
glyphname = ra_gran;
lastChange = "2020-05-24 21:48:52 +0000";
layers = (
{
anchors = (
{
name = anudatta;
position = "{434, -100}";
},
{
name = anusvara;
position = "{854, 0}";
},
{
name = bottom;
position = "{436, -60}";
},
{
name = iiMatra;
position = "{675, 595}";
},
{
name = post;
position = "{854, 0}";
},
{
name = repha;
position = "{744, 0}";
},
{
name = svara;
position = "{426, 900}";
},
{
name = top;
position = "{426, 640}";
},
{
name = topright;
position = "{894, 566}";
},
{
name = vattu;
position = "{878, 0}";
},
{
name = virama;
position = "{689, 481}";
},
{
name = yaphalaa;
position = "{734, 0}";
}
);
layerId = "229B7033-F00A-4676-AEB9-BF59C6456AE0";
paths = (
{
closed = 1;
nodes = (
"635 210 LINE SMOOTH",
"635 76 OFFCURVE",
"584 54 OFFCURVE",
"524 54 CURVE SMOOTH",
"467 54 OFFCURVE",
"419 87 OFFCURVE",
"419 196 CURVE SMOOTH",
"419 554 LINE",
"324 554 LINE",
"324 195 LINE SMOOTH",
"324 50 OFFCURVE",
"411 -5 OFFCURVE",
"514 -5 CURVE SMOOTH",
"616 -5 OFFCURVE",
"694 47 OFFCURVE",
"694 210 CURVE SMOOTH",
"694 554 LINE",
"635 554 LINE"
);
},
{
closed = 1;
nodes = (
"145 0 LINE",
"145 500 LINE",
"790 500 LINE",
"790 554 LINE",
"80 554 LINE",
"80 0 LINE"
);
}
);
width = 854;
}
);
unicode = 11330;
},
{
glyphname = la_gran;
lastChange = "2020-05-24 21:48:52 +0000";
layers = (
{
anchors = (
{
name = anudatta;
position = "{556, -255}";
},
{
name = anusvara;
position = "{1138, 0}";
},
{
name = bottom;
position = "{566, -160}";
},
{
name = post;
position = "{1170, 0}";
},
{
name = repha;
position = "{1039, 0}";
},
{
name = svara;
position = "{566, 900}";
},
{
name = top;
position = "{526, 680}";
},
{
name = topright;
position = "{1139, 566}";
},
{
name = vattu;
position = "{1183, 0}";
},
{
name = yaphalaa;
position = "{1096, 0}";
}
);
layerId = "229B7033-F00A-4676-AEB9-BF59C6456AE0";
paths = (
{
closed = 1;
nodes = (
"871 -168 OFFCURVE",
"1068 55 OFFCURVE",
"1068 318 CURVE SMOOTH",
"1068 424 OFFCURVE",
"1033 568 OFFCURVE",
"929 649 CURVE",
"887 609 LINE",
"978 540 OFFCURVE",
"1004 419 OFFCURVE",
"1004 328 CURVE SMOOTH",
"1004 96 OFFCURVE",
"838 -114 OFFCURVE",
"534 -114 CURVE SMOOTH",
"265 -114 OFFCURVE",
"145 47 OFFCURVE",
"145 242 CURVE SMOOTH",
"145 454 OFFCURVE",
"304 592 OFFCURVE",
"498 592 CURVE SMOOTH",
"692 592 OFFCURVE",
"762 475 OFFCURVE",
"762 321 CURVE SMOOTH",
"762 246 OFFCURVE",
"740 142 OFFCURVE",
"673 142 CURVE SMOOTH",
"605 142 OFFCURVE",
"580 250 OFFCURVE",
"580 333 CURVE SMOOTH",
"580 344 LINE",
"510 344 LINE",
"510 333 LINE SMOOTH",
"510 242 OFFCURVE",
"467 142 OFFCURVE",
"401 142 CURVE SMOOTH",
"354 142 OFFCURVE",
"327 187 OFFCURVE",
"327 248 CURVE SMOOTH",
"327 308 OFFCURVE",
"353 350 OFFCURVE",
"393 388 CURVE",
"336 424 LINE",
"281 373 OFFCURVE",
"247 316 OFFCURVE",
"247 249 CURVE SMOOTH",
"247 160 OFFCURVE",
"296 88 OFFCURVE",
"400 88 CURVE SMOOTH",
"486 88 OFFCURVE",
"531 138 OFFCURVE",
"553 194 CURVE",
"532 201 LINE",
"559 131 OFFCURVE",
"606 88 OFFCURVE",
"674 88 CURVE SMOOTH",
"790 88 OFFCURVE",
"857 210 OFFCURVE",
"857 335 CURVE SMOOTH",
"857 515 OFFCURVE",
"732 647 OFFCURVE",
"504 647 CURVE SMOOTH",
"249 647 OFFCURVE",
"70 470 OFFCURVE",
"70 239 CURVE SMOOTH",
"70 9 OFFCURVE",
"223 -168 OFFCURVE",
"537 -168 CURVE SMOOTH"
);
}
);
width = 1138;
}
);
leftMetricsKey = ttha_gran;
rightMetricsKey = ttha_gran;
unicode = 11332;
},
{
glyphname = lla_gran;
lastChange = "2020-05-24 21:48:52 +0000";
layers = (
{
anchors = (
{
name = anudatta;
position = "{643, -100}";
},
{
name = anusvara;
position = "{1379, 0}";
},
{
name = bottom;
position = "{695, -60}";
},
{
name = post;
position = "{1408, 0}";
},
{
name = repha;
position = "{1379, 0}";
},
{
name = svara;
position = "{709, 900}";
},
{
name = top;
position = "{633, 640}";
},
{
name = topright;
position = "{1208, 566}";
},
{
name = vattu;
position = "{1423, 0}";
},
{
name = virama;
position = "{1041, 469}";
},
{
name = yaphalaa;
position = "{1340, 0}";
}
);
layerId = "229B7033-F00A-4676-AEB9-BF59C6456AE0";
paths = (
{
closed = 1;
nodes = (
"1319 54 LINE",
"1077 54 LINE",
"1160 97 OFFCURVE",
"1205 165 OFFCURVE",
"1205 272 CURVE SMOOTH",
"1205 442 OFFCURVE",
"1073 559 OFFCURVE",
"911 559 CURVE SMOOTH",
"800 559 OFFCURVE",
"686 503 OFFCURVE",
"646 326 CURVE",
"705 274 LINE",
"722 455 OFFCURVE",
"825 505 OFFCURVE",
"905 505 CURVE SMOOTH",
"1021 505 OFFCURVE",
"1109 402 OFFCURVE",
"1109 257 CURVE SMOOTH",
"1109 150 OFFCURVE",
"1070 83 OFFCURVE",
"988 43 CURVE",
"1006 0 LINE",
"1319 0 LINE"
);
},
{
closed = 1;
nodes = (
"610 0 LINE",
"705 0 LINE",
"705 273 LINE SMOOTH",
"705 455 OFFCURVE",
"598 559 OFFCURVE",
"403 559 CURVE SMOOTH",
"226 559 OFFCURVE",
"70 454 OFFCURVE",
"70 250 CURVE SMOOTH",
"70 83 OFFCURVE",
"173 -4 OFFCURVE",
"289 -4 CURVE SMOOTH",
"398 -4 OFFCURVE",
"470 60 OFFCURVE",
"470 150 CURVE SMOOTH",
"470 242 OFFCURVE",
"412 304 OFFCURVE",
"318 304 CURVE SMOOTH",
"220 304 OFFCURVE",
"138 229 OFFCURVE",
"131 124 CURVE",
"161 97 LINE",
"167 185 OFFCURVE",
"216 236 OFFCURVE",
"281 236 CURVE SMOOTH",
"348 236 OFFCURVE",
"377 191 OFFCURVE",
"377 146 CURVE SMOOTH",
"377 92 OFFCURVE",
"338 49 OFFCURVE",
"272 49 CURVE SMOOTH",
"198 49 OFFCURVE",
"128 115 OFFCURVE",
"128 249 CURVE SMOOTH",
"128 415 OFFCURVE",
"247 505 OFFCURVE",
"395 505 CURVE SMOOTH",
"561 505 OFFCURVE",
"610 418 OFFCURVE",
"610 272 CURVE SMOOTH"
);
}
);
width = 1379;
}
);
leftMetricsKey = ttha_gran;
unicode = 11333;
},
{
glyphname = va_gran;
lastChange = "2020-05-24 21:48:52 +0000";
layers = (
{
anchors = (
{
name = anudatta;
position = "{533, -100}";
},
{
name = anusvara;
position = "{1148, 0}";
},
{
name = bottom;
position = "{534, -60}";
},
{
name = post;
position = "{1170, 0}";
},
{
name = repha;
position = "{1128, 0}";
},
{
name = svara;
position = "{539, 900}";
},
{
name = top;
position = "{539, 640}";
},
{
name = topright;
position = "{1087, 566}";
},
{
name = vattu;
position = "{1191, 0}";
},
{
name = virama;
position = "{967, 481}";
},
{
name = yaphalaa;
position = "{1088, 0}";
}
);
layerId = "229B7033-F00A-4676-AEB9-BF59C6456AE0";
paths = (
{
closed = 1;
nodes = (
"398 -4 OFFCURVE",
"470 60 OFFCURVE",
"470 150 CURVE SMOOTH",
"470 242 OFFCURVE",
"412 304 OFFCURVE",
"318 304 CURVE SMOOTH",
"221 304 OFFCURVE",
"139 229 OFFCURVE",
"132 124 CURVE",
"162 97 LINE",
"168 185 OFFCURVE",
"217 236 OFFCURVE",
"281 236 CURVE SMOOTH",
"349 236 OFFCURVE",
"378 191 OFFCURVE",
"378 146 CURVE SMOOTH",
"378 92 OFFCURVE",
"339 49 OFFCURVE",
"273 49 CURVE SMOOTH",
"201 49 OFFCURVE",
"128 109 OFFCURVE",
"128 231 CURVE SMOOTH",
"128 403 OFFCURVE",
"243 505 OFFCURVE",
"415 505 CURVE SMOOTH",
"564 505 OFFCURVE",
"679 402 OFFCURVE",
"679 257 CURVE SMOOTH",
"679 150 OFFCURVE",
"640 83 OFFCURVE",
"598 43 CURVE",
"616 0 LINE",
"1068 0 LINE",
"1068 554 LINE",
"973 554 LINE",
"973 54 LINE",
"687 54 LINE",
"730 97 OFFCURVE",
"775 164 OFFCURVE",
"775 261 CURVE SMOOTH",
"775 441 OFFCURVE",
"620 559 OFFCURVE",
"428 559 CURVE SMOOTH",
"222 559 OFFCURVE",
"70 440 OFFCURVE",
"70 234 CURVE SMOOTH",
"70 77 OFFCURVE",
"178 -4 OFFCURVE",
"290 -4 CURVE SMOOTH"
);
}
);
width = 1148;
}
);
leftMetricsKey = ttha_gran;
unicode = 11335;
},
{
glyphname = sha_gran;
lastChange = "2020-05-24 21:48:52 +0000";
layers = (
{
anchors = (
{
name = anudatta;
position = "{522, -100}";
},
{
name = anusvara;
position = "{1118, 0}";
},
{
name = bottom;
position = "{522, -60}";
},
{
name = iiMatra;
position = "{1018, 595}";
},
{
name = post;
position = "{1185, 0}";
},
{
name = repha;
position = "{1072, 0}";
},
{
name = svara;
position = "{556, 900}";
},
{
name = top;
position = "{556, 640}";
},
{
name = topright;
position = "{1142, 566}";
},
{
name = vattu;
position = "{1186, 0}";
},
{
name = virama;
position = "{1032, 481}";
},
{
name = yaphalaa;
position = "{1062, 0}";
}
);
layerId = "229B7033-F00A-4676-AEB9-BF59C6456AE0";
paths = (
{
closed = 1;
nodes = (
"409 210 LINE SMOOTH",
"409 76 OFFCURVE",
"350 54 OFFCURVE",
"290 54 CURVE SMOOTH",
"233 54 OFFCURVE",
"175 87 OFFCURVE",
"175 196 CURVE SMOOTH",
"175 554 LINE",
"80 554 LINE",
"80 195 LINE SMOOTH",
"80 50 OFFCURVE",
"177 -5 OFFCURVE",
"280 -5 CURVE SMOOTH",
"382 -5 OFFCURVE",
"470 47 OFFCURVE",
"470 210 CURVE SMOOTH",
"470 554 LINE",
"409 554 LINE"
);
},
{
closed = 1;
nodes = (
"1133 500 LINE",
"1133 554 LINE",
"973 554 LINE",
"973 210 LINE SMOOTH",
"973 76 OFFCURVE",
"914 54 OFFCURVE",
"854 54 CURVE SMOOTH",
"797 54 OFFCURVE",
"739 87 OFFCURVE",
"739 196 CURVE SMOOTH",
"739 554 LINE",
"644 554 LINE",
"644 195 LINE SMOOTH",
"644 50 OFFCURVE",
"741 -5 OFFCURVE",
"844 -5 CURVE SMOOTH",
"946 -5 OFFCURVE",
"1034 47 OFFCURVE",
"1034 210 CURVE SMOOTH",
"1034 500 LINE"
);
},
{
closed = 1;
nodes = (
"412 500 LINE",
"1024 500 LINE",
"1024 554 LINE",
"412 554 LINE"
);
}
);
width = 1193;
}
);
unicode = 11336;
},
{
glyphname = ssa_gran;
lastChange = "2020-05-24 21:48:52 +0000";
layers = (
{
anchors = (
{
name = anudatta;
position = "{694, -100}";
},
{
name = anusvara;
position = "{1455, 0}";
},
{
name = bottom;
position = "{694, -70}";
},
{
name = iiMatra;
position = "{940, 593}";
},
{
name = post;
position = "{1487, 0}";
},
{
name = repha;
position = "{1445, 0}";
},
{
name = svara;
position = "{695, 900}";
},
{
name = top;
position = "{695, 640}";
},
{
name = topright;
position = "{1200, 566}";
},
{
name = vattu;
position = "{1498, 0}";
},
{
name = virama;
position = "{1110, 471}";
},
{
name = yaphalaa;
position = "{1395, 0}";
}
);
guideLines = (
{
angle = 75.8349;
position = "{1009, -23}";
}
);
layerId = "229B7033-F00A-4676-AEB9-BF59C6456AE0";
paths = (
{
closed = 1;
nodes = (
"398 -4 OFFCURVE",
"470 60 OFFCURVE",
"470 150 CURVE SMOOTH",
"470 242 OFFCURVE",
"412 304 OFFCURVE",
"318 304 CURVE SMOOTH",
"221 304 OFFCURVE",
"139 229 OFFCURVE",
"132 124 CURVE",
"162 97 LINE",
"168 185 OFFCURVE",
"217 236 OFFCURVE",
"281 236 CURVE SMOOTH",
"349 236 OFFCURVE",
"378 191 OFFCURVE",
"378 146 CURVE SMOOTH",
"378 92 OFFCURVE",
"339 49 OFFCURVE",
"273 49 CURVE SMOOTH",
"201 49 OFFCURVE",
"128 109 OFFCURVE",
"128 231 CURVE SMOOTH",
"128 403 OFFCURVE",
"243 505 OFFCURVE",
"415 505 CURVE SMOOTH",
"564 505 OFFCURVE",
"679 402 OFFCURVE",
"679 257 CURVE SMOOTH",
"679 150 OFFCURVE",
"640 83 OFFCURVE",
"598 43 CURVE",
"616 0 LINE",
"1385 0 LINE",
"1385 345 LINE",
"1290 294 LINE",
"1290 54 LINE",
"687 54 LINE",
"730 97 OFFCURVE",
"774 164 OFFCURVE",
"774 261 CURVE SMOOTH",
"774 441 OFFCURVE",
"620 559 OFFCURVE",
"428 559 CURVE SMOOTH",
"222 559 OFFCURVE",
"70 440 OFFCURVE",
"70 234 CURVE SMOOTH",
"70 77 OFFCURVE",
"178 -4 OFFCURVE",
"290 -4 CURVE SMOOTH"
);
},
{
closed = 1;
nodes = (
"1135 -296 LINE",
"1135 432 LINE SMOOTH",
"1135 503 OFFCURVE",
"1090 559 OFFCURVE",
"1009 559 CURVE SMOOTH",
"911 559 OFFCURVE",
"859 503 OFFCURVE",
"859 415 CURVE SMOOTH",
"859 287 OFFCURVE",
"957 218 OFFCURVE",
"1088 218 CURVE SMOOTH",
"1184 218 OFFCURVE",
"1278 230 OFFCURVE",
"1385 340 CURVE",
"1385 351 LINE",
"1344 378 LINE",
"1266 300 OFFCURVE",
"1193 271 OFFCURVE",
"1086 271 CURVE SMOOTH",
"985 271 OFFCURVE",
"914 307 OFFCURVE",
"914 414 CURVE SMOOTH",
"914 467 OFFCURVE",
"940 505 OFFCURVE",
"989 505 CURVE SMOOTH",
"1026 505 OFFCURVE",
"1049 484 OFFCURVE",
"1049 445 CURVE SMOOTH",
"1049 -296 LINE"
);
}
);
width = 1455;
}
);
leftMetricsKey = ttha_gran;
unicode = 11337;
},
{
glyphname = ssa_gran.flat;
lastChange = "2020-05-24 21:48:52 +0000";
layers = (
{
anchors = (
{
name = anudatta;
position = "{694, -100}";
},
{
name = anusvara;
position = "{1455, 0}";
},
{
name = bottom;
position = "{694, -70}";
},
{
name = iiMatra;
position = "{940, 593}";
},
{
name = post;
position = "{1487, 0}";
},
{
name = repha;
position = "{1445, 0}";
},
{
name = svara;
position = "{695, 900}";
},
{
name = top;
position = "{695, 640}";
},
{
name = topright;
position = "{1200, 566}";
},
{
name = vattu;
position = "{1498, 0}";
},
{
name = virama;
position = "{1110, 471}";
},
{
name = yaphalaa;
position = "{1395, 0}";
}
);
guideLines = (
{
angle = 75.8349;
position = "{1009, -23}";
},
{
angle = 164.4385;
position = "{953, -121}";
}
);
layerId = "229B7033-F00A-4676-AEB9-BF59C6456AE0";
paths = (
{
closed = 1;
nodes = (
"398 -4 OFFCURVE",
"470 60 OFFCURVE",
"470 150 CURVE SMOOTH",
"470 242 OFFCURVE",
"412 304 OFFCURVE",
"318 304 CURVE SMOOTH",
"221 304 OFFCURVE",
"139 229 OFFCURVE",
"132 124 CURVE",
"162 97 LINE",
"168 185 OFFCURVE",
"217 236 OFFCURVE",
"281 236 CURVE SMOOTH",
"349 236 OFFCURVE",
"378 191 OFFCURVE",
"378 146 CURVE SMOOTH",
"378 92 OFFCURVE",
"339 49 OFFCURVE",
"273 49 CURVE SMOOTH",
"201 49 OFFCURVE",
"128 109 OFFCURVE",
"128 231 CURVE SMOOTH",
"128 403 OFFCURVE",
"243 505 OFFCURVE",
"415 505 CURVE SMOOTH",
"564 505 OFFCURVE",
"679 402 OFFCURVE",
"679 257 CURVE SMOOTH",
"679 150 OFFCURVE",
"640 83 OFFCURVE",
"598 43 CURVE",
"616 0 LINE",
"1385 0 LINE",
"1385 345 LINE",
"1290 294 LINE",
"1290 54 LINE",
"687 54 LINE",
"730 97 OFFCURVE",
"774 164 OFFCURVE",
"774 261 CURVE SMOOTH",
"774 441 OFFCURVE",
"620 559 OFFCURVE",
"428 559 CURVE SMOOTH",
"222 559 OFFCURVE",
"70 440 OFFCURVE",
"70 234 CURVE SMOOTH",
"70 77 OFFCURVE",
"178 -4 OFFCURVE",
"290 -4 CURVE SMOOTH"
);
},
{
closed = 1;
nodes = (
"1135 -70 LINE",
"1135 432 LINE SMOOTH",
"1135 503 OFFCURVE",
"1090 559 OFFCURVE",
"1009 559 CURVE SMOOTH",
"911 559 OFFCURVE",
"859 503 OFFCURVE",
"859 415 CURVE SMOOTH",
"859 287 OFFCURVE",
"957 218 OFFCURVE",
"1088 218 CURVE SMOOTH",
"1184 218 OFFCURVE",
"1278 230 OFFCURVE",
"1385 340 CURVE",
"1385 351 LINE",
"1344 378 LINE",
"1266 300 OFFCURVE",
"1193 271 OFFCURVE",
"1086 271 CURVE SMOOTH",
"985 271 OFFCURVE",
"914 307 OFFCURVE",
"914 414 CURVE SMOOTH",
"914 467 OFFCURVE",
"940 505 OFFCURVE",
"989 505 CURVE SMOOTH",
"1026 505 OFFCURVE",
"1049 484 OFFCURVE",
"1049 445 CURVE SMOOTH",
"1049 -70 LINE"
);
}
);
width = 1455;
}
);
leftMetricsKey = ttha_gran;
rightMetricsKey = ssa_gran;
category = Letter;
},
{
glyphname = sa_gran;
lastChange = "2020-05-24 21:48:52 +0000";
layers = (
{
anchors = (
{
name = anudatta;
position = "{832, -100}";
},
{
name = anusvara;
position = "{1634, 0}";
},
{
name = bottom;
position = "{833, -60}";
},
{
name = post;
position = "{1655, 0}";
},
{
name = repha;
position = "{1565, 0}";
},
{
name = svara;
position = "{833, 900}";
},
{
name = top;
position = "{833, 640}";
},
{
name = topright;
position = "{1635, 566}";
},
{
name = vattu;
position = "{1698, 0}";
},
{
name = yaphalaa;
position = "{1535, 0}";
}
);
layerId = "229B7033-F00A-4676-AEB9-BF59C6456AE0";
paths = (
{
closed = 1;
nodes = (
"1188 481 LINE",
"1172 514 OFFCURVE",
"1133 558 OFFCURVE",
"1058 558 CURVE SMOOTH",
"975 558 OFFCURVE",
"905 504 OFFCURVE",
"905 403 CURVE SMOOTH",
"905 54 LINE",
"687 54 LINE",
"730 97 OFFCURVE",
"775 164 OFFCURVE",
"775 261 CURVE SMOOTH",
"775 441 OFFCURVE",
"620 559 OFFCURVE",
"428 559 CURVE SMOOTH",
"222 559 OFFCURVE",
"70 440 OFFCURVE",
"70 234 CURVE SMOOTH",
"70 77 OFFCURVE",
"178 -4 OFFCURVE",
"290 -4 CURVE SMOOTH",
"398 -4 OFFCURVE",
"470 60 OFFCURVE",
"470 150 CURVE SMOOTH",
"470 242 OFFCURVE",
"412 304 OFFCURVE",
"318 304 CURVE SMOOTH",
"221 304 OFFCURVE",
"139 229 OFFCURVE",
"132 124 CURVE",
"162 97 LINE",
"168 185 OFFCURVE",
"217 236 OFFCURVE",
"281 236 CURVE SMOOTH",
"349 236 OFFCURVE",
"378 191 OFFCURVE",
"378 146 CURVE SMOOTH",
"378 92 OFFCURVE",
"339 49 OFFCURVE",
"273 49 CURVE SMOOTH",
"201 49 OFFCURVE",
"128 109 OFFCURVE",
"128 231 CURVE SMOOTH",
"128 403 OFFCURVE",
"243 505 OFFCURVE",
"415 505 CURVE SMOOTH",
"564 505 OFFCURVE",
"679 402 OFFCURVE",
"679 257 CURVE SMOOTH",
"679 150 OFFCURVE",
"640 83 OFFCURVE",
"598 43 CURVE",
"616 0 LINE",
"966 0 LINE",
"966 403 LINE SMOOTH",
"966 469 OFFCURVE",
"1003 504 OFFCURVE",
"1057 504 CURVE SMOOTH",
"1104 504 OFFCURVE",
"1134 477 OFFCURVE",
"1146 433 CURVE"
);
},
{
closed = 1;
nodes = (
"956 0 LINE",
"956 404 LINE SMOOTH",
"956 463 OFFCURVE",
"987 504 OFFCURVE",
"1052 504 CURVE SMOOTH",
"1108 504 OFFCURVE",
"1141 471 OFFCURVE",
"1141 417 CURVE SMOOTH",
"1141 178 LINE SMOOTH",
"1141 63 OFFCURVE",
"1224 0 OFFCURVE",
"1322 0 CURVE SMOOTH",
"1476 0 OFFCURVE",
"1564 131 OFFCURVE",
"1564 279 CURVE SMOOTH",
"1564 375 OFFCURVE",
"1532 478 OFFCURVE",
"1444 559 CURVE",
"1402 519 LINE",
"1477 450 OFFCURVE",
"1500 370 OFFCURVE",
"1500 289 CURVE SMOOTH",
"1500 163 OFFCURVE",
"1433 59 OFFCURVE",
"1332 59 CURVE SMOOTH",
"1284 59 OFFCURVE",
"1236 94 OFFCURVE",
"1236 177 CURVE SMOOTH",
"1236 401 LINE SMOOTH",
"1236 498 OFFCURVE",
"1163 559 OFFCURVE",
"1066 559 CURVE SMOOTH",
"958 559 OFFCURVE",
"905 489 OFFCURVE",
"905 410 CURVE SMOOTH",
"905 0 LINE"
);
}
);
width = 1634;
}
);
leftMetricsKey = ttha_gran;
rightMetricsKey = ttha_gran;
unicode = 11338;
},
{
glyphname = ha_gran;
lastChange = "2020-05-24 21:48:52 +0000";
layers = (
{
anchors = (
{
name = anudatta;
position = "{830, -240}";
},
{
name = anusvara;
position = "{1681, 0}";
},
{
name = bottom;
position = "{830, -200}";
},
{
name = iiMatra;
position = "{1312, 593}";
},
{
name = post;
position = "{1656, 0}";
},
{
name = repha;
position = "{1616, 0}";
},
{
name = svara;
position = "{832, 900}";
},
{
name = top;
position = "{833, 640}";
},
{
name = topright;
position = "{1656, 566}";
},
{
name = vattu;
position = "{1723, 0}";
},
{
name = virama;
position = "{1483, 471}";
},
{
name = yaphalaa;
position = "{1593, 0}";
}
);
guideLines = (
{
angle = 180;
position = "{1269, 480}";
}
);
layerId = "229B7033-F00A-4676-AEB9-BF59C6456AE0";
paths = (
{
closed = 1;
nodes = (
"179 -179 OFFCURVE",
"199 -140 OFFCURVE",
"292 -140 CURVE SMOOTH",
"1105 -140 LINE SMOOTH",
"1418 -140 OFFCURVE",
"1611 -50 OFFCURVE",
"1611 251 CURVE SMOOTH",
"1611 389 OFFCURVE",
"1555 559 OFFCURVE",
"1366 559 CURVE SMOOTH",
"1275 559 OFFCURVE",
"1211 507 OFFCURVE",
"1192 471 CURVE",
"1179 505 OFFCURVE",
"1140 558 OFFCURVE",
"1058 558 CURVE SMOOTH",
"975 558 OFFCURVE",
"905 504 OFFCURVE",
"905 403 CURVE SMOOTH",
"905 54 LINE",
"687 54 LINE",
"730 97 OFFCURVE",
"775 164 OFFCURVE",
"775 261 CURVE SMOOTH",
"775 441 OFFCURVE",
"620 559 OFFCURVE",
"428 559 CURVE SMOOTH",
"222 559 OFFCURVE",
"70 440 OFFCURVE",
"70 234 CURVE SMOOTH",
"70 77 OFFCURVE",
"178 -4 OFFCURVE",
"290 -4 CURVE SMOOTH",
"398 -4 OFFCURVE",
"470 60 OFFCURVE",
"470 150 CURVE SMOOTH",
"470 242 OFFCURVE",
"412 304 OFFCURVE",
"318 304 CURVE SMOOTH",
"221 304 OFFCURVE",
"139 229 OFFCURVE",
"132 124 CURVE",
"162 97 LINE",
"168 185 OFFCURVE",
"217 236 OFFCURVE",
"281 236 CURVE SMOOTH",
"349 236 OFFCURVE",
"378 191 OFFCURVE",
"378 146 CURVE SMOOTH",
"378 92 OFFCURVE",
"339 49 OFFCURVE",
"273 49 CURVE SMOOTH",
"201 49 OFFCURVE",
"128 109 OFFCURVE",
"128 231 CURVE SMOOTH",
"128 403 OFFCURVE",
"243 505 OFFCURVE",
"415 505 CURVE SMOOTH",
"564 505 OFFCURVE",
"679 402 OFFCURVE",
"679 257 CURVE SMOOTH",
"679 150 OFFCURVE",
"640 83 OFFCURVE",
"598 43 CURVE",
"616 0 LINE",
"966 0 LINE",
"966 403 LINE SMOOTH",
"966 469 OFFCURVE",
"1003 504 OFFCURVE",
"1057 504 CURVE SMOOTH",
"1118 504 OFFCURVE",
"1151 458 OFFCURVE",
"1151 390 CURVE SMOOTH",
"1151 0 LINE",
"1246 0 LINE",
"1246 389 LINE SMOOTH",
"1246 462 OFFCURVE",
"1301 505 OFFCURVE",
"1365 505 CURVE SMOOTH",
"1441 505 OFFCURVE",
"1515 448 OFFCURVE",
"1515 242 CURVE SMOOTH",
"1515 -21 OFFCURVE",
"1378 -86 OFFCURVE",
"1089 -86 CURVE SMOOTH",
"258 -86 LINE SMOOTH",
"170 -86 OFFCURVE",
"90 -104 OFFCURVE",
"90 -176 CURVE SMOOTH",
"90 -225 OFFCURVE",
"121 -246 OFFCURVE",
"179 -246 CURVE"
);
}
);
width = 1681;
}
);
unicode = 11339;
},
{
glyphname = ha_gran.flat;
lastChange = "2020-05-24 21:48:52 +0000";
layers = (
{
anchors = (
{
name = anudatta;
position = "{830, -240}";
},
{
name = anusvara;
position = "{1681, 0}";
},
{
name = bottom;
position = "{830, -200}";
},
{
name = iiMatra;
position = "{1312, 593}";
},
{
name = post;
position = "{1656, 0}";
},
{
name = repha;
position = "{1616, 0}";
},
{
name = svara;
position = "{832, 900}";
},
{
name = top;
position = "{833, 640}";
},
{
name = topright;
position = "{1656, 566}";
},
{
name = vattu;
position = "{1723, 0}";
},
{
name = virama;
position = "{1483, 471}";
},
{
name = yaphalaa;
position = "{1593, 0}";
}
);
guideLines = (
{
angle = 180;
position = "{1179, 480}";
}
);
layerId = "229B7033-F00A-4676-AEB9-BF59C6456AE0";
paths = (
{
closed = 1;
nodes = (
"80 -140 LINE",
"1105 -140 LINE SMOOTH",
"1418 -140 OFFCURVE",
"1611 -50 OFFCURVE",
"1611 251 CURVE SMOOTH",
"1611 389 OFFCURVE",
"1555 559 OFFCURVE",
"1366 559 CURVE SMOOTH",
"1275 559 OFFCURVE",
"1211 507 OFFCURVE",
"1192 471 CURVE",
"1179 505 OFFCURVE",
"1140 558 OFFCURVE",
"1058 558 CURVE SMOOTH",
"975 558 OFFCURVE",
"905 504 OFFCURVE",
"905 403 CURVE SMOOTH",
"905 54 LINE",
"687 54 LINE",
"730 97 OFFCURVE",
"775 164 OFFCURVE",
"775 261 CURVE SMOOTH",
"775 441 OFFCURVE",
"620 559 OFFCURVE",
"428 559 CURVE SMOOTH",
"222 559 OFFCURVE",
"70 440 OFFCURVE",
"70 234 CURVE SMOOTH",
"70 77 OFFCURVE",
"178 -4 OFFCURVE",
"290 -4 CURVE SMOOTH",
"398 -4 OFFCURVE",
"470 60 OFFCURVE",
"470 150 CURVE SMOOTH",
"470 242 OFFCURVE",
"412 304 OFFCURVE",
"318 304 CURVE SMOOTH",
"221 304 OFFCURVE",
"139 229 OFFCURVE",
"132 124 CURVE",
"162 97 LINE",
"168 185 OFFCURVE",
"217 236 OFFCURVE",
"281 236 CURVE SMOOTH",
"349 236 OFFCURVE",
"378 191 OFFCURVE",
"378 146 CURVE SMOOTH",
"378 92 OFFCURVE",
"339 49 OFFCURVE",
"273 49 CURVE SMOOTH",
"201 49 OFFCURVE",
"128 109 OFFCURVE",
"128 231 CURVE SMOOTH",
"128 403 OFFCURVE",
"243 505 OFFCURVE",
"415 505 CURVE SMOOTH",
"564 505 OFFCURVE",
"679 402 OFFCURVE",
"679 257 CURVE SMOOTH",
"679 150 OFFCURVE",
"640 83 OFFCURVE",
"598 43 CURVE",
"616 0 LINE",
"966 0 LINE",
"966 403 LINE SMOOTH",
"966 469 OFFCURVE",
"1003 504 OFFCURVE",
"1057 504 CURVE SMOOTH",
"1118 504 OFFCURVE",
"1151 458 OFFCURVE",
"1151 390 CURVE SMOOTH",
"1151 0 LINE",
"1246 0 LINE",
"1246 389 LINE SMOOTH",
"1246 462 OFFCURVE",
"1301 505 OFFCURVE",
"1365 505 CURVE SMOOTH",
"1441 505 OFFCURVE",
"1515 448 OFFCURVE",
"1515 242 CURVE SMOOTH",
"1515 -21 OFFCURVE",
"1378 -86 OFFCURVE",
"1089 -86 CURVE SMOOTH",
"80 -86 LINE"
);
}
);
width = 1681;
}
);
leftMetricsKey = ha_gran;
rightMetricsKey = ttha_gran;
category = Letter;
},
{
glyphname = anusvaraAbove_gran;
lastChange = "2020-05-24 21:48:52 +0000";
layers = (
{
anchors = (
{
name = _top;
position = "{-194, 590}";
}
);
layerId = "229B7033-F00A-4676-AEB9-BF59C6456AE0";
paths = (
{
closed = 1;
nodes = (
"-314 699 OFFCURVE",
"-265 650 OFFCURVE",
"-194 650 CURVE SMOOTH",
"-123 650 OFFCURVE",
"-74 699 OFFCURVE",
"-74 770 CURVE SMOOTH",
"-74 841 OFFCURVE",
"-123 891 OFFCURVE",
"-194 891 CURVE SMOOTH",
"-265 891 OFFCURVE",
"-314 841 OFFCURVE",
"-314 770 CURVE SMOOTH"
);
},
{
closed = 1;
nodes = (
"-254 807 OFFCURVE",
"-230 833 OFFCURVE",
"-194 833 CURVE SMOOTH",
"-159 833 OFFCURVE",
"-134 807 OFFCURVE",
"-134 770 CURVE SMOOTH",
"-134 734 OFFCURVE",
"-159 708 OFFCURVE",
"-194 708 CURVE SMOOTH",
"-230 708 OFFCURVE",
"-254 734 OFFCURVE",
"-254 770 CURVE SMOOTH"
);
}
);
width = 0;
}
);
unicode = 11300;
},
{
glyphname = candrabindu_gran;
lastChange = "2020-05-24 21:48:52 +0000";
layers = (
{
anchors = (
{
name = _top;
position = "{-282, 590}";
},
{
name = top;
position = "{-282, 990}";
}
);
layerId = "229B7033-F00A-4676-AEB9-BF59C6456AE0";
paths = (
{
closed = 1;
nodes = (
"-179 652 OFFCURVE",
"-103 708 OFFCURVE",
"-81 829 CURVE",
"-147 847 LINE",
"-164 751 OFFCURVE",
"-210 713 OFFCURVE",
"-277 713 CURVE SMOOTH",
"-356 713 OFFCURVE",
"-402 762 OFFCURVE",
"-428 836 CURVE",
"-463 824 LINE",
"-437 713 OFFCURVE",
"-349 652 OFFCURVE",
"-270 652 CURVE SMOOTH"
);
},
{
closed = 1;
nodes = (
"-258 768 OFFCURVE",
"-238 779 OFFCURVE",
"-238 814 CURVE SMOOTH",
"-238 850 OFFCURVE",
"-258 860 OFFCURVE",
"-281 860 CURVE SMOOTH",
"-305 860 OFFCURVE",
"-324 850 OFFCURVE",
"-324 814 CURVE SMOOTH",
"-324 779 OFFCURVE",
"-305 768 OFFCURVE",
"-281 768 CURVE SMOOTH"
);
}
);
width = 0;
}
);
unicode = 11301;
script = gran;
category = Mark;
subCategory = Nonspacing;
},
{
glyphname = anusvara_gran;
lastChange = "2020-05-24 21:48:52 +0000";
layers = (
{
anchors = (
{
name = _anusvara;
position = "{0, 0}";
},
{
name = post;
position = "{529, 0}";
}
);
guideLines = (
{
angle = 90;
position = "{264, 182}";
}
);
layerId = "229B7033-F00A-4676-AEB9-BF59C6456AE0";
paths = (
{
closed = 1;
nodes = (
"367 -12 OFFCURVE",
"452 69 OFFCURVE",
"452 190 CURVE SMOOTH",
"452 311 OFFCURVE",
"367 392 OFFCURVE",
"264 392 CURVE SMOOTH",
"155 392 OFFCURVE",
"76 311 OFFCURVE",
"76 190 CURVE SMOOTH",
"76 69 OFFCURVE",
"155 -12 OFFCURVE",
"264 -12 CURVE SMOOTH"
);
},
{
closed = 1;
nodes = (
"177 40 OFFCURVE",
"130 99 OFFCURVE",
"130 190 CURVE SMOOTH",
"130 280 OFFCURVE",
"177 338 OFFCURVE",
"248 338 CURVE SMOOTH",
"323 338 OFFCURVE",
"367 289 OFFCURVE",
"367 190 CURVE SMOOTH",
"367 91 OFFCURVE",
"323 40 OFFCURVE",
"248 40 CURVE SMOOTH"
);
}
);
width = 0;
}
);
unicode = 11302;
script = gran;
category = Mark;
subCategory = Nonspacing;
},
{
glyphname = visarga_gran;
lastChange = "2020-05-24 21:48:52 +0000";
layers = (
{
layerId = "229B7033-F00A-4676-AEB9-BF59C6456AE0";
paths = (
{
closed = 1;
nodes = (
"272 305 OFFCURVE",
"335 350 OFFCURVE",
"335 433 CURVE SMOOTH",
"335 515 OFFCURVE",
"272 561 OFFCURVE",
"201 561 CURVE SMOOTH",
"127 561 OFFCURVE",
"70 505 OFFCURVE",
"70 433 CURVE SMOOTH",
"70 360 OFFCURVE",
"127 305 OFFCURVE",
"201 305 CURVE SMOOTH"
);
},
{
closed = 1;
nodes = (
"151 355 OFFCURVE",
"118 386 OFFCURVE",
"118 433 CURVE SMOOTH",
"118 481 OFFCURVE",
"151 511 OFFCURVE",
"193 511 CURVE SMOOTH",
"235 511 OFFCURVE",
"265 477 OFFCURVE",
"265 433 CURVE SMOOTH",
"265 390 OFFCURVE",
"235 355 OFFCURVE",
"193 355 CURVE SMOOTH"
);
},
{
closed = 1;
nodes = (
"272 -9 OFFCURVE",
"335 36 OFFCURVE",
"335 119 CURVE SMOOTH",
"335 201 OFFCURVE",
"272 247 OFFCURVE",
"201 247 CURVE SMOOTH",
"127 247 OFFCURVE",
"70 191 OFFCURVE",
"70 119 CURVE SMOOTH",
"70 46 OFFCURVE",
"127 -9 OFFCURVE",
"201 -9 CURVE SMOOTH"
);
},
{
closed = 1;
nodes = (
"151 41 OFFCURVE",
"118 72 OFFCURVE",
"118 119 CURVE SMOOTH",
"118 167 OFFCURVE",
"151 197 OFFCURVE",
"193 197 CURVE SMOOTH",
"235 197 OFFCURVE",
"265 163 OFFCURVE",
"265 119 CURVE SMOOTH",
"265 76 OFFCURVE",
"235 41 OFFCURVE",
"193 41 CURVE SMOOTH"
);
}
);
width = 405;
}
);
unicode = 11303;
category = Letter;
},
{
glyphname = binducomb_gran;
lastChange = "2020-05-24 21:48:52 +0000";
layers = (
{
anchors = (
{
name = _bottom;
position = "{-303, -136}";
}
);
layerId = "229B7033-F00A-4676-AEB9-BF59C6456AE0";
paths = (
{
closed = 1;
nodes = (
"-258 -364 OFFCURVE",
"-223 -329 OFFCURVE",
"-223 -285 CURVE SMOOTH",
"-223 -242 OFFCURVE",
"-258 -207 OFFCURVE",
"-302 -207 CURVE SMOOTH",
"-346 -207 OFFCURVE",
"-381 -242 OFFCURVE",
"-381 -285 CURVE SMOOTH",
"-381 -329 OFFCURVE",
"-346 -364 OFFCURVE",
"-302 -364 CURVE SMOOTH"
);
}
);
width = 0;
}
);
unicode = 1133B;
category = Mark;
subCategory = Nonspacing;
},
{
glyphname = nukta_gran;
lastChange = "2020-05-24 21:48:52 +0000";
layers = (
{
anchors = (
{
name = _bottom;
position = "{-303, -136}";
}
);
layerId = "229B7033-F00A-4676-AEB9-BF59C6456AE0";
paths = (
{
closed = 1;
nodes = (
"-394 -364 OFFCURVE",
"-359 -329 OFFCURVE",
"-359 -285 CURVE SMOOTH",
"-359 -242 OFFCURVE",
"-394 -207 OFFCURVE",
"-438 -207 CURVE SMOOTH",
"-482 -207 OFFCURVE",
"-517 -242 OFFCURVE",
"-517 -285 CURVE SMOOTH",
"-517 -329 OFFCURVE",
"-482 -364 OFFCURVE",
"-438 -364 CURVE SMOOTH"
);
},
{
closed = 1;
nodes = (
"-124 -363 OFFCURVE",
"-89 -328 OFFCURVE",
"-89 -284 CURVE SMOOTH",
"-89 -241 OFFCURVE",
"-124 -206 OFFCURVE",
"-168 -206 CURVE SMOOTH",
"-212 -206 OFFCURVE",
"-247 -241 OFFCURVE",
"-247 -284 CURVE SMOOTH",
"-247 -328 OFFCURVE",
"-212 -363 OFFCURVE",
"-168 -363 CURVE SMOOTH"
);
}
);
width = 0;
}
);
unicode = 1133C;
category = Mark;
subCategory = Nonspacing;
},
{
glyphname = avagraha_gran;
lastChange = "2020-05-24 21:48:52 +0000";
layers = (
{
anchors = (
{
name = anusvara;
position = "{498, 0}";
},
{
name = post;
position = "{498, 0}";
},
{
name = topright;
position = "{498, 566}";
}
);
guideLines = (
{
angle = 163.0812;
position = "{263, 241}";
}
);
layerId = "229B7033-F00A-4676-AEB9-BF59C6456AE0";
paths = (
{
closed = 1;
nodes = (
"392 542 LINE",
"339 586 LINE",
"65 301 LINE",
"324 222 LINE",
"48 -53 LINE",
"111 -90 LINE",
"442 246 LINE",
"179 326 LINE"
);
}
);
width = 498;
}
);
unicode = 1133D;
category = Letter;
},
{
glyphname = avagraha_gran.alt;
lastChange = "2020-05-24 21:48:52 +0000";
layers = (
{
guideLines = (
{
angle = 229.6118;
position = "{333, 252}";
}
);
layerId = "229B7033-F00A-4676-AEB9-BF59C6456AE0";
paths = (
{
closed = 1;
nodes = (
"550 54 LINE",
"165 54 LINE",
"539 494 LINE",
"539 566 LINE",
"70 566 LINE",
"70 512 LINE",
"453 512 LINE",
"78 72 LINE",
"78 0 LINE",
"550 0 LINE"
);
}
);
width = 620;
}
);
script = gran;
category = Letter;
},
{
glyphname = aaMatra_gran;
lastChange = "2020-05-24 21:48:52 +0000";
layers = (
{
anchors = (
{
name = _post;
position = "{0, 0}";
},
{
name = anusvara;
position = "{585, 0}";
},
{
name = post;
position = "{665, 0}";
},
{
name = repha;
position = "{585, 0}";
},
{
name = vattu;
position = "{665, 0}";
}
);
layerId = "229B7033-F00A-4676-AEB9-BF59C6456AE0";
paths = (
{
closed = 1;
nodes = (
"159 0 LINE",
"159 500 LINE",
"387 500 LINE",
"387 0 LINE",
"481 0 LINE",
"481 500 LINE",
"657 500 LINE",
"657 554 LINE",
"98 554 LINE",
"98 0 LINE"
);
}
);
width = 0;
}
);
unicode = 1133E;
category = Mark;
subCategory = Nonspacing;
},
{
glyphname = auLengthMark_gran;
lastChange = "2020-05-24 21:48:52 +0000";
layers = (
{
anchors = (
{
name = _post;
position = "{0, 0}";
},
{
name = anusvara;
position = "{1160, 0}";
},
{
name = post;
position = "{1245, 0}";
},
{
name = repha;
position = "{1180, 0}";
},
{
name = vattu;
position = "{1160, 0}";
}
);
layerId = "229B7033-F00A-4676-AEB9-BF59C6456AE0";
paths = (
{
closed = 1;
nodes = (
"387 -4 OFFCURVE",
"459 60 OFFCURVE",
"459 150 CURVE SMOOTH",
"459 242 OFFCURVE",
"401 304 OFFCURVE",
"307 304 CURVE SMOOTH",
"209 304 OFFCURVE",
"127 229 OFFCURVE",
"120 124 CURVE",
"150 97 LINE",
"156 185 OFFCURVE",
"205 236 OFFCURVE",
"270 236 CURVE SMOOTH",
"337 236 OFFCURVE",
"366 191 OFFCURVE",
"366 146 CURVE SMOOTH",
"366 92 OFFCURVE",
"327 49 OFFCURVE",
"261 49 CURVE SMOOTH",
"187 49 OFFCURVE",
"117 115 OFFCURVE",
"117 249 CURVE SMOOTH",
"117 415 OFFCURVE",
"236 505 OFFCURVE",
"384 505 CURVE SMOOTH",
"550 505 OFFCURVE",
"649 420 OFFCURVE",
"649 269 CURVE",
"705 273 LINE",
"700 455 OFFCURVE",
"578 559 OFFCURVE",
"383 559 CURVE SMOOTH",
"206 559 OFFCURVE",
"59 454 OFFCURVE",
"59 250 CURVE SMOOTH",
"59 83 OFFCURVE",
"162 -4 OFFCURVE",
"278 -4 CURVE SMOOTH"
);
},
{
closed = 1;
nodes = (
"744 0 LINE",
"744 500 LINE",
"972 500 LINE",
"972 0 LINE",
"1066 0 LINE",
"1066 500 LINE",
"1242 500 LINE",
"1242 554 LINE",
"654 554 LINE",
"654 387 LINE",
"649 382 LINE",
"649 0 LINE"
);
}
);
width = 0;
}
);
unicode = 11357;
script = gran;
category = Mark;
subCategory = Nonspacing;
},
{
glyphname = rVocalicMatra_gran;
lastChange = "2020-05-24 21:48:52 +0000";
layers = (
{
anchors = (
{
name = _vattu;
position = "{0, 0}";
},
{
name = anusvara;
position = "{347, 0}";
},
{
name = repha;
position = "{347, 0}";
},
{
name = vattu;
position = "{347, 0}";
}
);
layerId = "229B7033-F00A-4676-AEB9-BF59C6456AE0";
paths = (
{
closed = 1;
nodes = (
"347 388 LINE",
"-43 388 LINE",
"-43 334 LINE",
"347 334 LINE"
);
},
{
closed = 1;
nodes = (
"-284 -495 OFFCURVE",
"-184 -553 OFFCURVE",
"-71 -553 CURVE SMOOTH",
"21 -553 OFFCURVE",
"234 -515 OFFCURVE",
"234 -166 CURVE SMOOTH",
"234 345 LINE",
"140 345 LINE",
"140 -235 LINE SMOOTH",
"140 -448 OFFCURVE",
"2 -499 OFFCURVE",
"-69 -499 CURVE SMOOTH",
"-149 -499 OFFCURVE",
"-190 -442 OFFCURVE",
"-190 -384 CURVE SMOOTH",
"-190 -330 OFFCURVE",
"-149 -275 OFFCURVE",
"-85 -275 CURVE SMOOTH",
"-24 -275 OFFCURVE",
"21 -321 OFFCURVE",
"21 -392 CURVE SMOOTH",
"21 -413 OFFCURVE",
"17 -458 OFFCURVE",
"-28 -494 CURVE",
"7 -502 LINE",
"47 -477 OFFCURVE",
"79 -439 OFFCURVE",
"79 -375 CURVE SMOOTH",
"79 -289 OFFCURVE",
"22 -221 OFFCURVE",
"-85 -221 CURVE SMOOTH",
"-183 -221 OFFCURVE",
"-284 -273 OFFCURVE",
"-284 -388 CURVE SMOOTH"
);
}
);
width = 0;
}
);
unicode = 11343;
category = Mark;
subCategory = Nonspacing;
},
{
glyphname = rVocalicMatra_gran.d1;
lastChange = "2020-05-24 21:48:52 +0000";
layers = (
{
anchors = (
{
name = _vattu;
position = "{0, 0}";
},
{
name = anusvara;
position = "{347, 0}";
},
{
name = repha;
position = "{347, 0}";
},
{
name = vattu;
position = "{347, 0}";
}
);
layerId = "229B7033-F00A-4676-AEB9-BF59C6456AE0";
paths = (
{
closed = 1;
nodes = (
"347 388 LINE",
"-43 388 LINE",
"-43 334 LINE",
"347 334 LINE"
);
},
{
closed = 1;
nodes = (
"-284 -644 OFFCURVE",
"-184 -702 OFFCURVE",
"-71 -702 CURVE SMOOTH",
"21 -702 OFFCURVE",
"234 -664 OFFCURVE",
"234 -315 CURVE SMOOTH",
"234 345 LINE",
"140 345 LINE",
"140 -384 LINE SMOOTH",
"140 -597 OFFCURVE",
"2 -648 OFFCURVE",
"-69 -648 CURVE SMOOTH",
"-149 -648 OFFCURVE",
"-190 -591 OFFCURVE",
"-190 -533 CURVE SMOOTH",
"-190 -479 OFFCURVE",
"-149 -424 OFFCURVE",
"-85 -424 CURVE SMOOTH",
"-24 -424 OFFCURVE",
"21 -470 OFFCURVE",
"21 -541 CURVE SMOOTH",
"21 -562 OFFCURVE",
"17 -607 OFFCURVE",
"-28 -643 CURVE",
"7 -651 LINE",
"47 -626 OFFCURVE",
"79 -588 OFFCURVE",
"79 -524 CURVE SMOOTH",
"79 -438 OFFCURVE",
"22 -370 OFFCURVE",
"-85 -370 CURVE SMOOTH",
"-183 -370 OFFCURVE",
"-284 -422 OFFCURVE",
"-284 -537 CURVE SMOOTH"
);
}
);
width = 0;
}
);
category = Mark;
subCategory = Nonspacing;
},
{
glyphname = rVocalicMatra_gran.d1b;
lastChange = "2020-05-24 21:48:52 +0000";
layers = (
{
anchors = (
{
name = _vattu;
position = "{0, 0}";
},
{
name = anusvara;
position = "{347, 0}";
},
{
name = repha;
position = "{347, 0}";
},
{
name = vattu;
position = "{347, 0}";
}
);
layerId = "229B7033-F00A-4676-AEB9-BF59C6456AE0";
paths = (
{
closed = 1;
nodes = (
"347 388 LINE",
"-43 388 LINE",
"-43 334 LINE",
"347 334 LINE"
);
},
{
closed = 1;
nodes = (
"-284 -795 OFFCURVE",
"-184 -853 OFFCURVE",
"-71 -853 CURVE SMOOTH",
"21 -853 OFFCURVE",
"234 -815 OFFCURVE",
"234 -466 CURVE SMOOTH",
"234 345 LINE",
"140 345 LINE",
"140 -535 LINE SMOOTH",
"140 -748 OFFCURVE",
"2 -799 OFFCURVE",
"-69 -799 CURVE SMOOTH",
"-149 -799 OFFCURVE",
"-190 -742 OFFCURVE",
"-190 -684 CURVE SMOOTH",
"-190 -630 OFFCURVE",
"-149 -575 OFFCURVE",
"-85 -575 CURVE SMOOTH",
"-24 -575 OFFCURVE",
"21 -621 OFFCURVE",
"21 -692 CURVE SMOOTH",
"21 -713 OFFCURVE",
"17 -758 OFFCURVE",
"-28 -794 CURVE",
"7 -802 LINE",
"47 -777 OFFCURVE",
"79 -739 OFFCURVE",
"79 -675 CURVE SMOOTH",
"79 -589 OFFCURVE",
"22 -521 OFFCURVE",
"-85 -521 CURVE SMOOTH",
"-183 -521 OFFCURVE",
"-284 -573 OFFCURVE",
"-284 -688 CURVE SMOOTH"
);
}
);
width = 0;
}
);
category = Mark;
subCategory = Nonspacing;
},
{
glyphname = rVocalicMatra_gran.d2;
lastChange = "2020-05-24 21:48:52 +0000";
layers = (
{
anchors = (
{
name = _vattu;
position = "{0, 0}";
},
{
name = anusvara;
position = "{347, 0}";
},
{
name = repha;
position = "{347, 0}";
},
{
name = vattu;
position = "{347, 0}";
}
);
layerId = "229B7033-F00A-4676-AEB9-BF59C6456AE0";
paths = (
{
closed = 1;
nodes = (
"347 388 LINE",
"-43 388 LINE",
"-43 334 LINE",
"347 334 LINE"
);
},
{
closed = 1;
nodes = (
"-284 -991 OFFCURVE",
"-184 -1049 OFFCURVE",
"-71 -1049 CURVE SMOOTH",
"21 -1049 OFFCURVE",
"234 -1011 OFFCURVE",
"234 -662 CURVE SMOOTH",
"234 345 LINE",
"140 345 LINE",
"140 -731 LINE SMOOTH",
"140 -944 OFFCURVE",
"2 -995 OFFCURVE",
"-69 -995 CURVE SMOOTH",
"-149 -995 OFFCURVE",
"-190 -938 OFFCURVE",
"-190 -880 CURVE SMOOTH",
"-190 -826 OFFCURVE",
"-149 -771 OFFCURVE",
"-85 -771 CURVE SMOOTH",
"-24 -771 OFFCURVE",
"21 -817 OFFCURVE",
"21 -888 CURVE SMOOTH",
"21 -909 OFFCURVE",
"17 -954 OFFCURVE",
"-28 -990 CURVE",
"7 -998 LINE",
"47 -973 OFFCURVE",
"79 -935 OFFCURVE",
"79 -871 CURVE SMOOTH",
"79 -785 OFFCURVE",
"22 -717 OFFCURVE",
"-85 -717 CURVE SMOOTH",
"-183 -717 OFFCURVE",
"-284 -769 OFFCURVE",
"-284 -884 CURVE SMOOTH"
);
}
);
width = 0;
}
);
category = Mark;
subCategory = Nonspacing;
},
{
glyphname = rVocalicMatra_gran.d2b;
lastChange = "2020-05-24 21:48:52 +0000";
layers = (
{
anchors = (
{
name = _vattu;
position = "{0, 0}";
},
{
name = anusvara;
position = "{347, 0}";
},
{
name = repha;
position = "{347, 0}";
},
{
name = vattu;
position = "{347, 0}";
}
);
layerId = "229B7033-F00A-4676-AEB9-BF59C6456AE0";
paths = (
{
closed = 1;
nodes = (
"347 388 LINE",
"-43 388 LINE",
"-43 334 LINE",
"347 334 LINE"
);
},
{
closed = 1;
nodes = (
"-284 -1057 OFFCURVE",
"-184 -1115 OFFCURVE",
"-71 -1115 CURVE SMOOTH",
"21 -1115 OFFCURVE",
"234 -1077 OFFCURVE",
"234 -728 CURVE SMOOTH",
"234 345 LINE",
"140 345 LINE",
"140 -797 LINE SMOOTH",
"140 -1010 OFFCURVE",
"2 -1061 OFFCURVE",
"-69 -1061 CURVE SMOOTH",
"-149 -1061 OFFCURVE",
"-190 -1004 OFFCURVE",
"-190 -946 CURVE SMOOTH",
"-190 -892 OFFCURVE",
"-149 -837 OFFCURVE",
"-85 -837 CURVE SMOOTH",
"-24 -837 OFFCURVE",
"21 -883 OFFCURVE",
"21 -954 CURVE SMOOTH",
"21 -975 OFFCURVE",
"17 -1020 OFFCURVE",
"-28 -1056 CURVE",
"7 -1064 LINE",
"47 -1039 OFFCURVE",
"79 -1001 OFFCURVE",
"79 -937 CURVE SMOOTH",
"79 -851 OFFCURVE",
"22 -783 OFFCURVE",
"-85 -783 CURVE SMOOTH",
"-183 -783 OFFCURVE",
"-284 -835 OFFCURVE",
"-284 -950 CURVE SMOOTH"
);
}
);
width = 0;
}
);
category = Mark;
subCategory = Nonspacing;
},
{
glyphname = rVocalicMatra_gran.d3;
lastChange = "2020-05-24 21:48:52 +0000";
layers = (
{
anchors = (
{
name = _vattu;
position = "{0, 0}";
},
{
name = anusvara;
position = "{347, 0}";
},
{
name = repha;
position = "{347, 0}";
},
{
name = vattu;
position = "{347, 0}";
}
);
layerId = "229B7033-F00A-4676-AEB9-BF59C6456AE0";
paths = (
{
closed = 1;
nodes = (
"347 388 LINE",
"-43 388 LINE",
"-43 334 LINE",
"347 334 LINE"
);
},
{
closed = 1;
nodes = (
"-284 -1174 OFFCURVE",
"-184 -1232 OFFCURVE",
"-71 -1232 CURVE SMOOTH",
"21 -1232 OFFCURVE",
"234 -1194 OFFCURVE",
"234 -845 CURVE SMOOTH",
"234 345 LINE",
"140 345 LINE",
"140 -914 LINE SMOOTH",
"140 -1127 OFFCURVE",
"2 -1178 OFFCURVE",
"-69 -1178 CURVE SMOOTH",
"-149 -1178 OFFCURVE",
"-190 -1121 OFFCURVE",
"-190 -1063 CURVE SMOOTH",
"-190 -1009 OFFCURVE",
"-149 -954 OFFCURVE",
"-85 -954 CURVE SMOOTH",
"-24 -954 OFFCURVE",
"21 -1000 OFFCURVE",
"21 -1071 CURVE SMOOTH",
"21 -1092 OFFCURVE",
"17 -1137 OFFCURVE",
"-28 -1173 CURVE",
"7 -1181 LINE",
"47 -1156 OFFCURVE",
"79 -1118 OFFCURVE",
"79 -1054 CURVE SMOOTH",
"79 -968 OFFCURVE",
"22 -900 OFFCURVE",
"-85 -900 CURVE SMOOTH",
"-183 -900 OFFCURVE",
"-284 -952 OFFCURVE",
"-284 -1067 CURVE SMOOTH"
);
}
);
width = 0;
}
);
category = Mark;
subCategory = Nonspacing;
},
{
glyphname = rVocalicMatra_gran.d4;
lastChange = "2020-05-24 21:48:52 +0000";
layers = (
{
anchors = (
{
name = _vattu;
position = "{0, 0}";
},
{
name = anusvara;
position = "{347, 0}";
},
{
name = repha;
position = "{347, 0}";
},
{
name = vattu;
position = "{347, 0}";
}
);
layerId = "229B7033-F00A-4676-AEB9-BF59C6456AE0";
paths = (
{
closed = 1;
nodes = (
"347 388 LINE",
"-43 388 LINE",
"-43 334 LINE",
"347 334 LINE"
);
},
{
closed = 1;
nodes = (
"-284 -1540 OFFCURVE",
"-184 -1598 OFFCURVE",
"-71 -1598 CURVE SMOOTH",
"21 -1598 OFFCURVE",
"234 -1560 OFFCURVE",
"234 -1211 CURVE SMOOTH",
"234 345 LINE",
"140 345 LINE",
"140 -1280 LINE SMOOTH",
"140 -1493 OFFCURVE",
"2 -1544 OFFCURVE",
"-69 -1544 CURVE SMOOTH",
"-149 -1544 OFFCURVE",
"-190 -1487 OFFCURVE",
"-190 -1429 CURVE SMOOTH",
"-190 -1375 OFFCURVE",
"-149 -1320 OFFCURVE",
"-85 -1320 CURVE SMOOTH",
"-24 -1320 OFFCURVE",
"21 -1366 OFFCURVE",
"21 -1437 CURVE SMOOTH",
"21 -1458 OFFCURVE",
"17 -1503 OFFCURVE",
"-28 -1539 CURVE",
"7 -1547 LINE",
"47 -1522 OFFCURVE",
"79 -1484 OFFCURVE",
"79 -1420 CURVE SMOOTH",
"79 -1334 OFFCURVE",
"22 -1266 OFFCURVE",
"-85 -1266 CURVE SMOOTH",
"-183 -1266 OFFCURVE",
"-284 -1318 OFFCURVE",
"-284 -1433 CURVE SMOOTH"
);
}
);
width = 0;
}
);
category = Mark;
subCategory = Nonspacing;
},
{
glyphname = rVocalicMatra_gran.d4h3;
lastChange = "2020-05-24 21:48:52 +0000";
layers = (
{
anchors = (
{
name = _vattu;
position = "{0, 0}";
},
{
name = anusvara;
position = "{647, 0}";
},
{
name = repha;
position = "{647, 0}";
},
{
name = vattu;
position = "{647, 0}";
}
);
layerId = "229B7033-F00A-4676-AEB9-BF59C6456AE0";
paths = (
{
closed = 1;
nodes = (
"647 388 LINE",
"-43 388 LINE",
"-43 334 LINE",
"647 334 LINE"
);
},
{
closed = 1;
nodes = (
"16 -1540 OFFCURVE",
"116 -1598 OFFCURVE",
"229 -1598 CURVE SMOOTH",
"321 -1598 OFFCURVE",
"534 -1560 OFFCURVE",
"534 -1211 CURVE SMOOTH",
"534 345 LINE",
"440 345 LINE",
"440 -1280 LINE SMOOTH",
"440 -1493 OFFCURVE",
"302 -1544 OFFCURVE",
"231 -1544 CURVE SMOOTH",
"151 -1544 OFFCURVE",
"110 -1487 OFFCURVE",
"110 -1429 CURVE SMOOTH",
"110 -1375 OFFCURVE",
"151 -1320 OFFCURVE",
"215 -1320 CURVE SMOOTH",
"276 -1320 OFFCURVE",
"321 -1366 OFFCURVE",
"321 -1437 CURVE SMOOTH",
"321 -1458 OFFCURVE",
"317 -1503 OFFCURVE",
"272 -1539 CURVE",
"307 -1547 LINE",
"347 -1522 OFFCURVE",
"379 -1484 OFFCURVE",
"379 -1420 CURVE SMOOTH",
"379 -1334 OFFCURVE",
"322 -1266 OFFCURVE",
"215 -1266 CURVE SMOOTH",
"117 -1266 OFFCURVE",
"16 -1318 OFFCURVE",
"16 -1433 CURVE SMOOTH"
);
}
);
width = 0;
}
);
category = Mark;
subCategory = Nonspacing;
},
{
glyphname = rVocalicMatra_gran.d3h3;
lastChange = "2020-05-24 21:48:52 +0000";
layers = (
{
anchors = (
{
name = _vattu;
position = "{0, 0}";
},
{
name = anusvara;
position = "{647, 0}";
},
{
name = repha;
position = "{647, 0}";
},
{
name = vattu;
position = "{647, 0}";
}
);
layerId = "229B7033-F00A-4676-AEB9-BF59C6456AE0";
paths = (
{
closed = 1;
nodes = (
"647 388 LINE",
"-43 388 LINE",
"-43 334 LINE",
"647 334 LINE"
);
},
{
closed = 1;
nodes = (
"16 -1179 OFFCURVE",
"116 -1237 OFFCURVE",
"229 -1237 CURVE SMOOTH",
"321 -1237 OFFCURVE",
"534 -1199 OFFCURVE",
"534 -850 CURVE SMOOTH",
"534 345 LINE",
"440 345 LINE",
"440 -919 LINE SMOOTH",
"440 -1132 OFFCURVE",
"302 -1183 OFFCURVE",
"231 -1183 CURVE SMOOTH",
"151 -1183 OFFCURVE",
"110 -1126 OFFCURVE",
"110 -1068 CURVE SMOOTH",
"110 -1014 OFFCURVE",
"151 -959 OFFCURVE",
"215 -959 CURVE SMOOTH",
"276 -959 OFFCURVE",
"321 -1005 OFFCURVE",
"321 -1076 CURVE SMOOTH",
"321 -1097 OFFCURVE",
"317 -1142 OFFCURVE",
"272 -1178 CURVE",
"307 -1186 LINE",
"347 -1161 OFFCURVE",
"379 -1123 OFFCURVE",
"379 -1059 CURVE SMOOTH",
"379 -973 OFFCURVE",
"322 -905 OFFCURVE",
"215 -905 CURVE SMOOTH",
"117 -905 OFFCURVE",
"16 -957 OFFCURVE",
"16 -1072 CURVE SMOOTH"
);
}
);
width = 0;
}
);
category = Mark;
subCategory = Nonspacing;
},
{
glyphname = rVocalicMatra_gran.d3h2;
lastChange = "2020-05-24 21:48:52 +0000";
layers = (
{
anchors = (
{
name = _vattu;
position = "{0, 0}";
},
{
name = anusvara;
position = "{497, 0}";
},
{
name = repha;
position = "{497, 0}";
},
{
name = vattu;
position = "{497, 0}";
}
);
layerId = "229B7033-F00A-4676-AEB9-BF59C6456AE0";
paths = (
{
closed = 1;
nodes = (
"497 388 LINE",
"-43 388 LINE",
"-43 334 LINE",
"497 334 LINE"
);
},
{
closed = 1;
nodes = (
"-134 -1187 OFFCURVE",
"-34 -1245 OFFCURVE",
"79 -1245 CURVE SMOOTH",
"171 -1245 OFFCURVE",
"384 -1207 OFFCURVE",
"384 -858 CURVE SMOOTH",
"384 345 LINE",
"290 345 LINE",
"290 -927 LINE SMOOTH",
"290 -1140 OFFCURVE",
"152 -1191 OFFCURVE",
"81 -1191 CURVE SMOOTH",
"1 -1191 OFFCURVE",
"-40 -1134 OFFCURVE",
"-40 -1076 CURVE SMOOTH",
"-40 -1022 OFFCURVE",
"1 -967 OFFCURVE",
"65 -967 CURVE SMOOTH",
"126 -967 OFFCURVE",
"171 -1013 OFFCURVE",
"171 -1084 CURVE SMOOTH",
"171 -1105 OFFCURVE",
"167 -1150 OFFCURVE",
"122 -1186 CURVE",
"157 -1194 LINE",
"197 -1169 OFFCURVE",
"229 -1131 OFFCURVE",
"229 -1067 CURVE SMOOTH",
"229 -981 OFFCURVE",
"172 -913 OFFCURVE",
"65 -913 CURVE SMOOTH",
"-33 -913 OFFCURVE",
"-134 -965 OFFCURVE",
"-134 -1080 CURVE SMOOTH"
);
}
);
width = 0;
}
);
category = Mark;
subCategory = Nonspacing;
},
{
glyphname = rVocalicMatra_gran.d2h3;
lastChange = "2020-05-24 21:48:52 +0000";
layers = (
{
anchors = (
{
name = _vattu;
position = "{0, 0}";
},
{
name = anusvara;
position = "{647, 0}";
},
{
name = repha;
position = "{647, 0}";
},
{
name = vattu;
position = "{647, 0}";
}
);
layerId = "229B7033-F00A-4676-AEB9-BF59C6456AE0";
paths = (
{
closed = 1;
nodes = (
"647 388 LINE",
"-43 388 LINE",
"-43 334 LINE",
"647 334 LINE"
);
},
{
closed = 1;
nodes = (
"16 -991 OFFCURVE",
"116 -1049 OFFCURVE",
"229 -1049 CURVE SMOOTH",
"321 -1049 OFFCURVE",
"534 -1011 OFFCURVE",
"534 -662 CURVE SMOOTH",
"534 345 LINE",
"440 345 LINE",
"440 -731 LINE SMOOTH",
"440 -944 OFFCURVE",
"302 -995 OFFCURVE",
"231 -995 CURVE SMOOTH",
"151 -995 OFFCURVE",
"110 -938 OFFCURVE",
"110 -880 CURVE SMOOTH",
"110 -826 OFFCURVE",
"151 -771 OFFCURVE",
"215 -771 CURVE SMOOTH",
"276 -771 OFFCURVE",
"321 -817 OFFCURVE",
"321 -888 CURVE SMOOTH",
"321 -909 OFFCURVE",
"317 -954 OFFCURVE",
"272 -990 CURVE",
"307 -998 LINE",
"347 -973 OFFCURVE",
"379 -935 OFFCURVE",
"379 -871 CURVE SMOOTH",
"379 -785 OFFCURVE",
"322 -717 OFFCURVE",
"215 -717 CURVE SMOOTH",
"117 -717 OFFCURVE",
"16 -769 OFFCURVE",
"16 -884 CURVE SMOOTH"
);
}
);
width = 0;
}
);
category = Mark;
subCategory = Nonspacing;
},
{
glyphname = rVocalicMatra_gran.d2bh3;
lastChange = "2020-05-24 21:48:52 +0000";
layers = (
{
anchors = (
{
name = _vattu;
position = "{0, 0}";
},
{
name = anusvara;
position = "{647, 0}";
},
{
name = repha;
position = "{647, 0}";
},
{
name = vattu;
position = "{647, 0}";
}
);
layerId = "229B7033-F00A-4676-AEB9-BF59C6456AE0";
paths = (
{
closed = 1;
nodes = (
"647 388 LINE",
"-43 388 LINE",
"-43 334 LINE",
"647 334 LINE"
);
},
{
closed = 1;
nodes = (
"16 -1044 OFFCURVE",
"116 -1102 OFFCURVE",
"229 -1102 CURVE SMOOTH",
"321 -1102 OFFCURVE",
"534 -1064 OFFCURVE",
"534 -715 CURVE SMOOTH",
"534 345 LINE",
"440 345 LINE",
"440 -784 LINE SMOOTH",
"440 -997 OFFCURVE",
"302 -1048 OFFCURVE",
"231 -1048 CURVE SMOOTH",
"151 -1048 OFFCURVE",
"110 -991 OFFCURVE",
"110 -933 CURVE SMOOTH",
"110 -879 OFFCURVE",
"151 -824 OFFCURVE",
"215 -824 CURVE SMOOTH",
"276 -824 OFFCURVE",
"321 -870 OFFCURVE",
"321 -941 CURVE SMOOTH",
"321 -962 OFFCURVE",
"317 -1007 OFFCURVE",
"272 -1043 CURVE",
"307 -1051 LINE",
"347 -1026 OFFCURVE",
"379 -988 OFFCURVE",
"379 -924 CURVE SMOOTH",
"379 -838 OFFCURVE",
"322 -770 OFFCURVE",
"215 -770 CURVE SMOOTH",
"117 -770 OFFCURVE",
"16 -822 OFFCURVE",
"16 -937 CURVE SMOOTH"
);
}
);
width = 0;
}
);
category = Mark;
subCategory = Nonspacing;
},
{
glyphname = rVocalicMatra_gran.d1h3;
lastChange = "2020-05-24 21:48:52 +0000";
layers = (
{
anchors = (
{
name = _vattu;
position = "{0, 0}";
},
{
name = anusvara;
position = "{647, 0}";
},
{
name = repha;
position = "{647, 0}";
},
{
name = vattu;
position = "{647, 0}";
}
);
layerId = "229B7033-F00A-4676-AEB9-BF59C6456AE0";
paths = (
{
closed = 1;
nodes = (
"647 388 LINE",
"-43 388 LINE",
"-43 334 LINE",
"647 334 LINE"
);
},
{
closed = 1;
nodes = (
"16 -639 OFFCURVE",
"116 -697 OFFCURVE",
"229 -697 CURVE SMOOTH",
"321 -697 OFFCURVE",
"534 -659 OFFCURVE",
"534 -310 CURVE SMOOTH",
"534 345 LINE",
"440 345 LINE",
"440 -379 LINE SMOOTH",
"440 -592 OFFCURVE",
"302 -643 OFFCURVE",
"231 -643 CURVE SMOOTH",
"151 -643 OFFCURVE",
"110 -586 OFFCURVE",
"110 -528 CURVE SMOOTH",
"110 -474 OFFCURVE",
"151 -419 OFFCURVE",
"215 -419 CURVE SMOOTH",
"276 -419 OFFCURVE",
"321 -465 OFFCURVE",
"321 -536 CURVE SMOOTH",
"321 -557 OFFCURVE",
"317 -602 OFFCURVE",
"272 -638 CURVE",
"307 -646 LINE",
"347 -621 OFFCURVE",
"379 -583 OFFCURVE",
"379 -519 CURVE SMOOTH",
"379 -433 OFFCURVE",
"322 -365 OFFCURVE",
"215 -365 CURVE SMOOTH",
"117 -365 OFFCURVE",
"16 -417 OFFCURVE",
"16 -532 CURVE SMOOTH"
);
}
);
width = 0;
}
);
category = Mark;
subCategory = Nonspacing;
},
{
glyphname = rVocalicMatra_gran.d5h3;
lastChange = "2020-05-24 21:48:52 +0000";
layers = (
{
anchors = (
{
name = _vattu;
position = "{0, 0}";
},
{
name = anusvara;
position = "{647, 0}";
},
{
name = repha;
position = "{647, 0}";
},
{
name = vattu;
position = "{647, 0}";
}
);
layerId = "229B7033-F00A-4676-AEB9-BF59C6456AE0";
paths = (
{
closed = 1;
nodes = (
"647 388 LINE",
"-43 388 LINE",
"-43 334 LINE",
"647 334 LINE"
);
},
{
closed = 1;
nodes = (
"16 -1671 OFFCURVE",
"116 -1729 OFFCURVE",
"229 -1729 CURVE SMOOTH",
"321 -1729 OFFCURVE",
"534 -1691 OFFCURVE",
"534 -1342 CURVE SMOOTH",
"534 345 LINE",
"440 345 LINE",
"440 -1411 LINE SMOOTH",
"440 -1624 OFFCURVE",
"302 -1675 OFFCURVE",
"231 -1675 CURVE SMOOTH",
"151 -1675 OFFCURVE",
"110 -1618 OFFCURVE",
"110 -1560 CURVE SMOOTH",
"110 -1506 OFFCURVE",
"151 -1451 OFFCURVE",
"215 -1451 CURVE SMOOTH",
"276 -1451 OFFCURVE",
"321 -1497 OFFCURVE",
"321 -1568 CURVE SMOOTH",
"321 -1589 OFFCURVE",
"317 -1634 OFFCURVE",
"272 -1670 CURVE",
"307 -1678 LINE",
"347 -1653 OFFCURVE",
"379 -1615 OFFCURVE",
"379 -1551 CURVE SMOOTH",
"379 -1465 OFFCURVE",
"322 -1397 OFFCURVE",
"215 -1397 CURVE SMOOTH",
"117 -1397 OFFCURVE",
"16 -1449 OFFCURVE",
"16 -1564 CURVE SMOOTH"
);
}
);
width = 0;
}
);
category = Mark;
subCategory = Nonspacing;
},
{
glyphname = ra_vattu_gran.w1b;
lastChange = "2020-05-24 21:48:52 +0000";
layers = (
{
anchors = (
{
name = _vattu;
position = "{0, 0}";
},
{
name = anudatta;
position = "{-203, -563}";
},
{
name = anusvara;
position = "{347, 0}";
},
{
name = post;
position = "{347, 0}";
},
{
name = repha;
position = "{347, 0}";
},
{
name = topright;
position = "{206, 566}";
},
{
name = vattu;
position = "{347, 0}";
},
{
name = yaphalaa;
position = "{347, 0}";
}
);
guideLines = (
{
angle = 90;
position = "{347, 458}";
}
);
layerId = "229B7033-F00A-4676-AEB9-BF59C6456AE0";
paths = (
{
closed = 1;
nodes = (
"347 388 LINE",
"-43 388 LINE",
"-43 334 LINE",
"347 334 LINE"
);
},
{
closed = 1;
nodes = (
"-752 -278 LINE",
"-681 -405 OFFCURVE",
"-522 -503 OFFCURVE",
"-285 -503 CURVE SMOOTH",
"-25 -503 OFFCURVE",
"235 -382 OFFCURVE",
"235 -81 CURVE SMOOTH",
"235 345 LINE",
"140 345 LINE",
"140 -123 LINE SMOOTH",
"140 -336 OFFCURVE",
"-47 -449 OFFCURVE",
"-286 -449 CURVE SMOOTH",
"-471 -449 OFFCURVE",
"-611 -378 OFFCURVE",
"-699 -257 CURVE"
);
}
);
width = 0;
}
);
script = gran;
category = Mark;
subCategory = Nonspacing;
},
{
glyphname = rrVocalicMatra_gran;
lastChange = "2020-05-24 21:48:52 +0000";
layers = (
{
anchors = (
{
name = _vattu;
position = "{0, 0}";
},
{
name = anusvara;
position = "{347, 0}";
},
{
name = repha;
position = "{347, 0}";
},
{
name = vattu;
position = "{347, 0}";
}
);
guideLines = (
{
angle = 180;
position = "{-271, -287}";
},
{
angle = 180;
position = "{-271, -343}";
showMeasurement = 1;
}
);
layerId = "229B7033-F00A-4676-AEB9-BF59C6456AE0";
paths = (
{
closed = 1;
nodes = (
"347 388 LINE",
"-43 388 LINE",
"-43 334 LINE",
"347 334 LINE"
);
},
{
closed = 1;
nodes = (
"-499 -480 OFFCURVE",
"-428 -603 OFFCURVE",
"-195 -603 CURVE SMOOTH",
"-69 -603 OFFCURVE",
"235 -529 OFFCURVE",
"235 -245 CURVE SMOOTH",
"235 353 LINE",
"140 353 LINE",
"140 -274 LINE SMOOTH",
"140 -467 OFFCURVE",
"-67 -549 OFFCURVE",
"-195 -549 CURVE SMOOTH",
"-364 -549 OFFCURVE",
"-435 -475 OFFCURVE",
"-435 -386 CURVE SMOOTH",
"-435 -337 OFFCURVE",
"-418 -283 OFFCURVE",
"-357 -283 CURVE SMOOTH",
"-296 -283 OFFCURVE",
"-259 -348 OFFCURVE",
"-259 -427 CURVE",
"-185 -427 LINE",
"-185 -359 OFFCURVE",
"-151 -283 OFFCURVE",
"-90 -283 CURVE SMOOTH",
"-46 -283 OFFCURVE",
"-20 -318 OFFCURVE",
"-20 -381 CURVE SMOOTH",
"-20 -467 OFFCURVE",
"-95 -529 OFFCURVE",
"-139 -546 CURVE",
"-177 -597 LINE",
"-111 -573 OFFCURVE",
"65 -504 OFFCURVE",
"65 -378 CURVE SMOOTH",
"65 -287 OFFCURVE",
"9 -229 OFFCURVE",
"-83 -229 CURVE SMOOTH",
"-161 -229 OFFCURVE",
"-207 -268 OFFCURVE",
"-229 -334 CURVE",
"-208 -334 LINE",
"-235 -254 OFFCURVE",
"-290 -229 OFFCURVE",
"-356 -229 CURVE SMOOTH",
"-435 -229 OFFCURVE",
"-499 -293 OFFCURVE",
"-499 -388 CURVE SMOOTH"
);
}
);
width = 0;
}
);
unicode = 11344;
category = Mark;
subCategory = Nonspacing;
},
{
glyphname = rrVocalicMatra_gran.d1;
lastChange = "2020-05-24 21:48:52 +0000";
layers = (
{
anchors = (
{
name = _vattu;
position = "{0, 0}";
},
{
name = anusvara;
position = "{347, 0}";
},
{
name = repha;
position = "{347, 0}";
},
{
name = vattu;
position = "{347, 0}";
}
);
guideLines = (
{
angle = 180;
position = "{-271, -287}";
},
{
angle = 180;
position = "{-271, -343}";
showMeasurement = 1;
}
);
layerId = "229B7033-F00A-4676-AEB9-BF59C6456AE0";
paths = (
{
closed = 1;
nodes = (
"347 388 LINE",
"-43 388 LINE",
"-43 334 LINE",
"347 334 LINE"
);
},
{
closed = 1;
nodes = (
"-499 -630 OFFCURVE",
"-428 -753 OFFCURVE",
"-195 -753 CURVE SMOOTH",
"-69 -753 OFFCURVE",
"235 -679 OFFCURVE",
"235 -395 CURVE SMOOTH",
"235 353 LINE",
"140 353 LINE",
"140 -424 LINE SMOOTH",
"140 -617 OFFCURVE",
"-67 -699 OFFCURVE",
"-195 -699 CURVE SMOOTH",
"-364 -699 OFFCURVE",
"-435 -625 OFFCURVE",
"-435 -536 CURVE SMOOTH",
"-435 -487 OFFCURVE",
"-418 -433 OFFCURVE",
"-357 -433 CURVE SMOOTH",
"-296 -433 OFFCURVE",
"-259 -498 OFFCURVE",
"-259 -577 CURVE",
"-185 -577 LINE",
"-185 -509 OFFCURVE",
"-151 -433 OFFCURVE",
"-90 -433 CURVE SMOOTH",
"-46 -433 OFFCURVE",
"-20 -468 OFFCURVE",
"-20 -531 CURVE SMOOTH",
"-20 -617 OFFCURVE",
"-95 -679 OFFCURVE",
"-139 -696 CURVE",
"-177 -747 LINE",
"-111 -723 OFFCURVE",
"65 -654 OFFCURVE",
"65 -528 CURVE SMOOTH",
"65 -437 OFFCURVE",
"9 -379 OFFCURVE",
"-83 -379 CURVE SMOOTH",
"-161 -379 OFFCURVE",
"-207 -418 OFFCURVE",
"-229 -484 CURVE",
"-208 -484 LINE",
"-235 -404 OFFCURVE",
"-290 -379 OFFCURVE",
"-356 -379 CURVE SMOOTH",
"-435 -379 OFFCURVE",
"-499 -443 OFFCURVE",
"-499 -538 CURVE SMOOTH"
);
}
);
width = 0;
}
);
category = Mark;
subCategory = Nonspacing;
},
{
glyphname = rrVocalicMatra_gran.d1b;
lastChange = "2020-05-24 21:48:52 +0000";
layers = (
{
anchors = (
{
name = _vattu;
position = "{0, 0}";
},
{
name = anusvara;
position = "{347, 0}";
},
{
name = repha;
position = "{347, 0}";
},
{
name = vattu;
position = "{347, 0}";
}
);
guideLines = (
{
angle = 180;
position = "{-271, -287}";
},
{
angle = 180;
position = "{-271, -343}";
showMeasurement = 1;
}
);
layerId = "229B7033-F00A-4676-AEB9-BF59C6456AE0";
paths = (
{
closed = 1;
nodes = (
"347 388 LINE",
"-43 388 LINE",
"-43 334 LINE",
"347 334 LINE"
);
},
{
closed = 1;
nodes = (
"-499 -830 OFFCURVE",
"-428 -953 OFFCURVE",
"-195 -953 CURVE SMOOTH",
"-69 -953 OFFCURVE",
"235 -879 OFFCURVE",
"235 -595 CURVE SMOOTH",
"235 353 LINE",
"140 353 LINE",
"140 -624 LINE SMOOTH",
"140 -817 OFFCURVE",
"-67 -899 OFFCURVE",
"-195 -899 CURVE SMOOTH",
"-364 -899 OFFCURVE",
"-435 -825 OFFCURVE",
"-435 -736 CURVE SMOOTH",
"-435 -687 OFFCURVE",
"-418 -633 OFFCURVE",
"-357 -633 CURVE SMOOTH",
"-296 -633 OFFCURVE",
"-259 -698 OFFCURVE",
"-259 -777 CURVE",
"-185 -777 LINE",
"-185 -709 OFFCURVE",
"-151 -633 OFFCURVE",
"-90 -633 CURVE SMOOTH",
"-46 -633 OFFCURVE",
"-20 -668 OFFCURVE",
"-20 -731 CURVE SMOOTH",
"-20 -817 OFFCURVE",
"-95 -879 OFFCURVE",
"-139 -896 CURVE",
"-177 -947 LINE",
"-111 -923 OFFCURVE",
"65 -854 OFFCURVE",
"65 -728 CURVE SMOOTH",
"65 -637 OFFCURVE",
"9 -579 OFFCURVE",
"-83 -579 CURVE SMOOTH",
"-161 -579 OFFCURVE",
"-207 -618 OFFCURVE",
"-229 -684 CURVE",
"-208 -684 LINE",
"-235 -604 OFFCURVE",
"-290 -579 OFFCURVE",
"-356 -579 CURVE SMOOTH",
"-435 -579 OFFCURVE",
"-499 -643 OFFCURVE",
"-499 -738 CURVE SMOOTH"
);
}
);
width = 0;
}
);
category = Mark;
subCategory = Nonspacing;
},
{
glyphname = rrVocalicMatra_gran.d2;
lastChange = "2020-05-24 21:48:52 +0000";
layers = (
{
anchors = (
{
name = _vattu;
position = "{0, 0}";
},
{
name = anusvara;
position = "{347, 0}";
},
{
name = repha;
position = "{347, 0}";
},
{
name = vattu;
position = "{347, 0}";
}
);
guideLines = (
{
angle = 180;
position = "{-271, -287}";
},
{
angle = 180;
position = "{-271, -343}";
showMeasurement = 1;
}
);
layerId = "229B7033-F00A-4676-AEB9-BF59C6456AE0";
paths = (
{
closed = 1;
nodes = (
"347 388 LINE",
"-43 388 LINE",
"-43 334 LINE",
"347 334 LINE"
);
},
{
closed = 1;
nodes = (
"-499 -980 OFFCURVE",
"-428 -1103 OFFCURVE",
"-195 -1103 CURVE SMOOTH",
"-69 -1103 OFFCURVE",
"235 -1029 OFFCURVE",
"235 -745 CURVE SMOOTH",
"235 353 LINE",
"140 353 LINE",
"140 -774 LINE SMOOTH",
"140 -967 OFFCURVE",
"-67 -1049 OFFCURVE",
"-195 -1049 CURVE SMOOTH",
"-364 -1049 OFFCURVE",
"-435 -975 OFFCURVE",
"-435 -886 CURVE SMOOTH",
"-435 -837 OFFCURVE",
"-418 -783 OFFCURVE",
"-357 -783 CURVE SMOOTH",
"-296 -783 OFFCURVE",
"-259 -848 OFFCURVE",
"-259 -927 CURVE",
"-185 -927 LINE",
"-185 -859 OFFCURVE",
"-151 -783 OFFCURVE",
"-90 -783 CURVE SMOOTH",
"-46 -783 OFFCURVE",
"-20 -818 OFFCURVE",
"-20 -881 CURVE SMOOTH",
"-20 -967 OFFCURVE",
"-95 -1029 OFFCURVE",
"-139 -1046 CURVE",
"-177 -1097 LINE",
"-111 -1073 OFFCURVE",
"65 -1004 OFFCURVE",
"65 -878 CURVE SMOOTH",
"65 -787 OFFCURVE",
"9 -729 OFFCURVE",
"-83 -729 CURVE SMOOTH",
"-161 -729 OFFCURVE",
"-207 -768 OFFCURVE",
"-229 -834 CURVE",
"-208 -834 LINE",
"-235 -754 OFFCURVE",
"-290 -729 OFFCURVE",
"-356 -729 CURVE SMOOTH",
"-435 -729 OFFCURVE",
"-499 -793 OFFCURVE",
"-499 -888 CURVE SMOOTH"
);
}
);
width = 0;
}
);
category = Mark;
subCategory = Nonspacing;
},
{
glyphname = rrVocalicMatra_gran.d3;
lastChange = "2020-05-24 21:48:52 +0000";
layers = (
{
anchors = (
{
name = _vattu;
position = "{0, 0}";
},
{
name = anusvara;
position = "{347, 0}";
},
{
name = repha;
position = "{347, 0}";
},
{
name = vattu;
position = "{347, 0}";
}
);
guideLines = (
{
angle = 180;
position = "{-271, -287}";
},
{
angle = 180;
position = "{-271, -343}";
showMeasurement = 1;
}
);
layerId = "229B7033-F00A-4676-AEB9-BF59C6456AE0";
paths = (
{
closed = 1;
nodes = (
"347 388 LINE",
"-43 388 LINE",
"-43 334 LINE",
"347 334 LINE"
);
},
{
closed = 1;
nodes = (
"-499 -1150 OFFCURVE",
"-428 -1273 OFFCURVE",
"-195 -1273 CURVE SMOOTH",
"-69 -1273 OFFCURVE",
"235 -1199 OFFCURVE",
"235 -915 CURVE SMOOTH",
"235 353 LINE",
"140 353 LINE",
"140 -944 LINE SMOOTH",
"140 -1137 OFFCURVE",
"-67 -1219 OFFCURVE",
"-195 -1219 CURVE SMOOTH",
"-364 -1219 OFFCURVE",
"-435 -1145 OFFCURVE",
"-435 -1056 CURVE SMOOTH",
"-435 -1007 OFFCURVE",
"-418 -953 OFFCURVE",
"-357 -953 CURVE SMOOTH",
"-296 -953 OFFCURVE",
"-259 -1018 OFFCURVE",
"-259 -1097 CURVE",
"-185 -1097 LINE",
"-185 -1029 OFFCURVE",
"-151 -953 OFFCURVE",
"-90 -953 CURVE SMOOTH",
"-46 -953 OFFCURVE",
"-20 -988 OFFCURVE",
"-20 -1051 CURVE SMOOTH",
"-20 -1137 OFFCURVE",
"-95 -1199 OFFCURVE",
"-139 -1216 CURVE",
"-177 -1267 LINE",
"-111 -1243 OFFCURVE",
"65 -1174 OFFCURVE",
"65 -1048 CURVE SMOOTH",
"65 -957 OFFCURVE",
"9 -899 OFFCURVE",
"-83 -899 CURVE SMOOTH",
"-161 -899 OFFCURVE",
"-207 -938 OFFCURVE",
"-229 -1004 CURVE",
"-208 -1004 LINE",
"-235 -924 OFFCURVE",
"-290 -899 OFFCURVE",
"-356 -899 CURVE SMOOTH",
"-435 -899 OFFCURVE",
"-499 -963 OFFCURVE",
"-499 -1058 CURVE SMOOTH"
);
}
);
width = 0;
}
);
category = Mark;
subCategory = Nonspacing;
},
{
glyphname = rrVocalicMatra_gran.d4;
lastChange = "2020-05-24 21:48:52 +0000";
layers = (
{
anchors = (
{
name = _vattu;
position = "{0, 0}";
},
{
name = anusvara;
position = "{347, 0}";
},
{
name = repha;
position = "{347, 0}";
},
{
name = vattu;
position = "{347, 0}";
}
);
guideLines = (
{
angle = 180;
position = "{-271, -287}";
},
{
angle = 180;
position = "{-271, -343}";
showMeasurement = 1;
}
);
layerId = "229B7033-F00A-4676-AEB9-BF59C6456AE0";
paths = (
{
closed = 1;
nodes = (
"347 388 LINE",
"-43 388 LINE",
"-43 334 LINE",
"347 334 LINE"
);
},
{
closed = 1;
nodes = (
"-499 -1520 OFFCURVE",
"-428 -1643 OFFCURVE",
"-195 -1643 CURVE SMOOTH",
"-69 -1643 OFFCURVE",
"235 -1569 OFFCURVE",
"235 -1285 CURVE SMOOTH",
"235 353 LINE",
"140 353 LINE",
"140 -1314 LINE SMOOTH",
"140 -1507 OFFCURVE",
"-67 -1589 OFFCURVE",
"-195 -1589 CURVE SMOOTH",
"-364 -1589 OFFCURVE",
"-435 -1515 OFFCURVE",
"-435 -1426 CURVE SMOOTH",
"-435 -1377 OFFCURVE",
"-418 -1323 OFFCURVE",
"-357 -1323 CURVE SMOOTH",
"-296 -1323 OFFCURVE",
"-259 -1388 OFFCURVE",
"-259 -1467 CURVE",
"-185 -1467 LINE",
"-185 -1399 OFFCURVE",
"-151 -1323 OFFCURVE",
"-90 -1323 CURVE SMOOTH",
"-46 -1323 OFFCURVE",
"-20 -1358 OFFCURVE",
"-20 -1421 CURVE SMOOTH",
"-20 -1507 OFFCURVE",
"-95 -1569 OFFCURVE",
"-139 -1586 CURVE",
"-177 -1637 LINE",
"-111 -1613 OFFCURVE",
"65 -1544 OFFCURVE",
"65 -1418 CURVE SMOOTH",
"65 -1327 OFFCURVE",
"9 -1269 OFFCURVE",
"-83 -1269 CURVE SMOOTH",
"-161 -1269 OFFCURVE",
"-207 -1308 OFFCURVE",
"-229 -1374 CURVE",
"-208 -1374 LINE",
"-235 -1294 OFFCURVE",
"-290 -1269 OFFCURVE",
"-356 -1269 CURVE SMOOTH",
"-435 -1269 OFFCURVE",
"-499 -1333 OFFCURVE",
"-499 -1428 CURVE SMOOTH"
);
}
);
width = 0;
}
);
category = Mark;
subCategory = Nonspacing;
},
{
glyphname = llVocalicMatra_gran;
lastChange = "2020-05-24 21:48:52 +0000";
layers = (
{
anchors = (
{
name = _post;
position = "{0, 0}";
},
{
name = anusvara;
position = "{1650, 0}";
},
{
name = post;
position = "{1650, 0}";
},
{
name = repha;
position = "{1620, 0}";
},
{
name = vattu;
position = "{1650, 0}";
}
);
components = (
{
name = lVocalicMatra_gran;
}
);
guideLines = (
{
angle = 90;
position = "{843, 452}";
}
);
layerId = "229B7033-F00A-4676-AEB9-BF59C6456AE0";
paths = (
{
closed = 1;
nodes = (
"1494 -123 OFFCURVE",
"1290 -390 OFFCURVE",
"974 -390 CURVE SMOOTH",
"704 -390 OFFCURVE",
"567 -238 OFFCURVE",
"507 -73 CURVE",
"445 -73 LINE",
"495 -260 OFFCURVE",
"659 -444 OFFCURVE",
"974 -444 CURVE SMOOTH",
"1313 -444 OFFCURVE",
"1588 -180 OFFCURVE",
"1588 233 CURVE SMOOTH",
"1588 613 OFFCURVE",
"1369 777 OFFCURVE",
"1155 777 CURVE SMOOTH",
"1004 777 OFFCURVE",
"879 679 OFFCURVE",
"876 543 CURVE SMOOTH",
"875 498 LINE",
"961 498 LINE",
"962 545 LINE SMOOTH",
"964 632 OFFCURVE",
"1028 723 OFFCURVE",
"1156 723 CURVE SMOOTH",
"1313 723 OFFCURVE",
"1494 596 OFFCURVE",
"1494 230 CURVE SMOOTH"
);
}
);
width = 0;
}
);
unicode = 11363;
category = Mark;
subCategory = Nonspacing;
},
{
glyphname = repha_gran;
lastChange = "2020-05-24 21:48:52 +0000";
layers = (
{
anchors = (
{
name = _repha;
position = "{0, 0}";
},
{
name = anusvara;
position = "{734, 0}";
},
{
name = post;
position = "{734, 0}";
},
{
name = repha;
position = "{734, 0}";
},
{
name = topright;
position = "{670, 566}";
},
{
name = vattu;
position = "{734, 0}";
},
{
name = yaphalaa;
position = "{744, 0}";
}
);
layerId = "229B7033-F00A-4676-AEB9-BF59C6456AE0";
paths = (
{
closed = 1;
nodes = (
"370 535 OFFCURVE",
"478 466 OFFCURVE",
"478 277 CURVE SMOOTH",
"478 168 OFFCURVE",
"435 70 OFFCURVE",
"435 -21 CURVE SMOOTH",
"435 -109 OFFCURVE",
"478 -163 OFFCURVE",
"566 -163 CURVE SMOOTH",
"643 -163 OFFCURVE",
"694 -124 OFFCURVE",
"694 -56 CURVE SMOOTH",
"694 16 OFFCURVE",
"638 54 OFFCURVE",
"524 54 CURVE SMOOTH",
"40 54 LINE",
"40 0 LINE",
"518 0 LINE SMOOTH",
"583 0 OFFCURVE",
"608 -24 OFFCURVE",
"608 -60 CURVE SMOOTH",
"608 -101 OFFCURVE",
"576 -109 OFFCURVE",
"558 -109 CURVE SMOOTH",
"523 -109 OFFCURVE",
"500 -76 OFFCURVE",
"500 -28 CURVE SMOOTH",
"500 41 OFFCURVE",
"540 169 OFFCURVE",
"540 285 CURVE SMOOTH",
"540 486 OFFCURVE",
"425 577 OFFCURVE",
"284 614 CURVE",
"265 570 LINE"
);
}
);
width = 0;
}
);
category = Mark;
subCategory = Nonspacing;
},
{
glyphname = yaPhalaa_gran;
lastChange = "2020-05-24 21:48:52 +0000";
layers = (
{
anchors = (
{
name = _yaphalaa;
position = "{0, 0}";
},
{
name = anusvara;
position = "{608, 0}";
},
{
name = post;
position = "{608, 0}";
},
{
name = repha;
position = "{608, 0}";
},
{
name = topright;
position = "{507, 566}";
},
{
name = vattu;
position = "{608, 0}";
}
);
guideLines = (
{
angle = 252.7185;
position = "{291, -174}";
}
);
layerId = "229B7033-F00A-4676-AEB9-BF59C6456AE0";
paths = (
{
closed = 1;
nodes = (
"482 -363 OFFCURVE",
"557 -157 OFFCURVE",
"557 53 CURVE SMOOTH",
"557 362 OFFCURVE",
"377 518 OFFCURVE",
"187 591 CURVE",
"167 548 LINE",
"305 482 OFFCURVE",
"482 366 OFFCURVE",
"482 47 CURVE SMOOTH",
"482 -146 OFFCURVE",
"425 -309 OFFCURVE",
"336 -309 CURVE SMOOTH",
"282 -309 OFFCURVE",
"268 -250 OFFCURVE",
"283 -200 CURVE SMOOTH",
"297 -153 LINE SMOOTH",
"306 -123 OFFCURVE",
"309 -104 OFFCURVE",
"309 -86 CURVE SMOOTH",
"309 -1 OFFCURVE",
"246 29 OFFCURVE",
"192 29 CURVE SMOOTH",
"108 29 OFFCURVE",
"40 -46 OFFCURVE",
"40 -162 CURVE",
"102 -162 LINE",
"102 -83 OFFCURVE",
"138 -25 OFFCURVE",
"188 -25 CURVE SMOOTH",
"220 -25 OFFCURVE",
"242 -49 OFFCURVE",
"242 -85 CURVE SMOOTH",
"242 -100 OFFCURVE",
"238 -117 OFFCURVE",
"230 -143 CURVE SMOOTH",
"216 -188 LINE SMOOTH",
"188 -278 OFFCURVE",
"238 -363 OFFCURVE",
"333 -363 CURVE SMOOTH"
);
}
);
width = 0;
}
);
category = Mark;
subCategory = Nonspacing;
},
{
glyphname = yaPhalaa_gran.short;
lastChange = "2020-05-24 21:48:52 +0000";
layers = (
{
anchors = (
{
name = _yaphalaa;
position = "{0, 0}";
},
{
name = anusvara;
position = "{608, 0}";
},
{
name = post;
position = "{608, 0}";
},
{
name = repha;
position = "{608, 0}";
},
{
name = topright;
position = "{507, 566}";
},
{
name = vattu;
position = "{608, 0}";
}
);
layerId = "229B7033-F00A-4676-AEB9-BF59C6456AE0";
paths = (
{
closed = 1;
nodes = (
"484 -243 OFFCURVE",
"557 -43 OFFCURVE",
"557 123 CURVE SMOOTH",
"557 369 OFFCURVE",
"377 518 OFFCURVE",
"187 581 CURVE",
"167 538 LINE",
"305 482 OFFCURVE",
"482 364 OFFCURVE",
"482 107 CURVE SMOOTH",
"482 -38 OFFCURVE",
"427 -189 OFFCURVE",
"335 -189 CURVE SMOOTH",
"284 -189 OFFCURVE",
"271 -141 OFFCURVE",
"288 -90 CURVE SMOOTH",
"297 -63 LINE SMOOTH",
"306 -36 OFFCURVE",
"309 -14 OFFCURVE",
"309 4 CURVE SMOOTH",
"309 89 OFFCURVE",
"246 119 OFFCURVE",
"192 119 CURVE SMOOTH",
"108 119 OFFCURVE",
"40 44 OFFCURVE",
"40 -72 CURVE",
"102 -72 LINE",
"102 7 OFFCURVE",
"138 65 OFFCURVE",
"188 65 CURVE SMOOTH",
"220 65 OFFCURVE",
"242 41 OFFCURVE",
"242 5 CURVE SMOOTH",
"242 -10 OFFCURVE",
"238 -30 OFFCURVE",
"230 -53 CURVE SMOOTH",
"221 -78 LINE SMOOTH",
"189 -167 OFFCURVE",
"240 -243 OFFCURVE",
"333 -243 CURVE SMOOTH"
);
}
);
width = 0;
}
);
category = Mark;
subCategory = Nonspacing;
},
{
glyphname = ra_vattu_gran;
lastChange = "2020-05-24 21:48:52 +0000";
layers = (
{
anchors = (
{
name = _vattu;
position = "{0, 0}";
},
{
name = anudatta;
position = "{-560, -563}";
},
{
name = anusvara;
position = "{347, 0}";
},
{
name = post;
position = "{347, 0}";
},
{
name = repha;
position = "{347, 0}";
},
{
name = topright;
position = "{206, 566}";
},
{
name = vattu;
position = "{347, 0}";
},
{
name = yaphalaa;
position = "{347, 0}";
}
);
guideLines = (
{
angle = 90;
position = "{347, 458}";
}
);
layerId = "229B7033-F00A-4676-AEB9-BF59C6456AE0";
paths = (
{
closed = 1;
nodes = (
"347 388 LINE",
"-43 388 LINE",
"-43 334 LINE",
"347 334 LINE"
);
},
{
closed = 1;
nodes = (
"-577 -261 LINE",
"-538 -422 OFFCURVE",
"-389 -503 OFFCURVE",
"-190 -503 CURVE SMOOTH",
"33 -503 OFFCURVE",
"235 -395 OFFCURVE",
"235 -135 CURVE SMOOTH",
"235 345 LINE",
"140 345 LINE",
"140 -163 LINE SMOOTH",
"140 -356 OFFCURVE",
"6 -449 OFFCURVE",
"-190 -449 CURVE SMOOTH",
"-366 -449 OFFCURVE",
"-469 -375 OFFCURVE",
"-513 -261 CURVE"
);
}
);
width = 0;
}
);
script = gran;
category = Mark;
subCategory = Nonspacing;
},
{
glyphname = ra_vattu_gran.d1;
lastChange = "2020-05-24 21:48:52 +0000";
layers = (
{
anchors = (
{
name = _vattu;
position = "{0, 0}";
},
{
name = anudatta;
position = "{-560, -683}";
},
{
name = anusvara;
position = "{347, 0}";
},
{
name = post;
position = "{347, 0}";
},
{
name = repha;
position = "{347, 0}";
},
{
name = topright;
position = "{206, 566}";
},
{
name = vattu;
position = "{347, 0}";
},
{
name = yaphalaa;
position = "{347, 0}";
}
);
layerId = "229B7033-F00A-4676-AEB9-BF59C6456AE0";
paths = (
{
closed = 1;
nodes = (
"347 388 LINE",
"-43 388 LINE",
"-43 334 LINE",
"347 334 LINE"
);
},
{
closed = 1;
nodes = (
"-577 -381 LINE",
"-538 -542 OFFCURVE",
"-389 -623 OFFCURVE",
"-190 -623 CURVE SMOOTH",
"33 -623 OFFCURVE",
"235 -515 OFFCURVE",
"235 -255 CURVE SMOOTH",
"235 345 LINE",
"140 345 LINE",
"140 -283 LINE SMOOTH",
"140 -476 OFFCURVE",
"6 -569 OFFCURVE",
"-190 -569 CURVE SMOOTH",
"-366 -569 OFFCURVE",
"-469 -495 OFFCURVE",
"-513 -381 CURVE"
);
}
);
width = 0;
}
);
script = gran;
category = Mark;
subCategory = Nonspacing;
},
{
glyphname = ra_vattu_gran.d1b;
lastChange = "2020-05-24 21:48:52 +0000";
layers = (
{
anchors = (
{
name = _vattu;
position = "{0, 0}";
},
{
name = anudatta;
position = "{-560, -923}";
},
{
name = anusvara;
position = "{347, 0}";
},
{
name = post;
position = "{347, 0}";
},
{
name = repha;
position = "{347, 0}";
},
{
name = topright;
position = "{206, 566}";
},
{
name = vattu;
position = "{347, 0}";
},
{
name = yaphalaa;
position = "{347, 0}";
}
);
layerId = "229B7033-F00A-4676-AEB9-BF59C6456AE0";
paths = (
{
closed = 1;
nodes = (
"347 388 LINE",
"-43 388 LINE",
"-43 334 LINE",
"347 334 LINE"
);
},
{
closed = 1;
nodes = (
"-577 -621 LINE",
"-538 -782 OFFCURVE",
"-389 -863 OFFCURVE",
"-190 -863 CURVE SMOOTH",
"33 -863 OFFCURVE",
"235 -755 OFFCURVE",
"235 -495 CURVE SMOOTH",
"235 345 LINE",
"140 345 LINE",
"140 -523 LINE SMOOTH",
"140 -716 OFFCURVE",
"6 -809 OFFCURVE",
"-190 -809 CURVE SMOOTH",
"-366 -809 OFFCURVE",
"-469 -735 OFFCURVE",
"-513 -621 CURVE"
);
}
);
width = 0;
}
);
script = gran;
category = Mark;
subCategory = Nonspacing;
},
{
glyphname = ra_vattu_gran.d1w1;
lastChange = "2020-05-24 21:48:52 +0000";
layers = (
{
anchors = (
{
name = _vattu;
position = "{0, 0}";
},
{
name = anudatta;
position = "{-492, -613}";
},
{
name = anusvara;
position = "{347, 0}";
},
{
name = post;
position = "{347, 0}";
},
{
name = repha;
position = "{347, 0}";
},
{
name = topright;
position = "{206, 566}";
},
{
name = vattu;
position = "{347, 0}";
},
{
name = yaphalaa;
position = "{347, 0}";
}
);
guideLines = (
{
angle = 213.9174;
position = "{-1120, -331}";
}
);
layerId = "229B7033-F00A-4676-AEB9-BF59C6456AE0";
paths = (
{
closed = 1;
nodes = (
"347 388 LINE",
"-43 388 LINE",
"-43 334 LINE",
"347 334 LINE"
);
},
{
closed = 1;
nodes = (
"-1095 -342 LINE",
"-969 -480 OFFCURVE",
"-823 -557 OFFCURVE",
"-492 -557 CURVE SMOOTH",
"-129 -557 OFFCURVE",
"235 -409 OFFCURVE",
"235 -29 CURVE SMOOTH",
"235 345 LINE",
"140 345 LINE",
"140 -97 LINE SMOOTH",
"140 -350 OFFCURVE",
"-142 -503 OFFCURVE",
"-494 -503 CURVE SMOOTH",
"-756 -503 OFFCURVE",
"-914 -441 OFFCURVE",
"-1048 -311 CURVE"
);
}
);
width = 0;
}
);
script = gran;
category = Mark;
subCategory = Nonspacing;
},
{
glyphname = ra_vattu_gran.d1w3;
lastChange = "2020-05-24 21:48:52 +0000";
layers = (
{
anchors = (
{
name = _vattu;
position = "{0, 0}";
},
{
name = anudatta;
position = "{-816, -613}";
},
{
name = anusvara;
position = "{347, 0}";
},
{
name = post;
position = "{347, 0}";
},
{
name = repha;
position = "{347, 0}";
},
{
name = topright;
position = "{206, 566}";
},
{
name = vattu;
position = "{347, 0}";
},
{
name = yaphalaa;
position = "{347, 0}";
}
);
layerId = "229B7033-F00A-4676-AEB9-BF59C6456AE0";
paths = (
{
closed = 1;
nodes = (
"347 388 LINE",
"-43 388 LINE",
"-43 334 LINE",
"347 334 LINE"
);
},
{
closed = 1;
nodes = (
"-1770 -240 LINE",
"-1664 -371 OFFCURVE",
"-1460 -557 OFFCURVE",
"-816 -557 CURVE SMOOTH",
"-368 -557 OFFCURVE",
"235 -419 OFFCURVE",
"235 141 CURVE SMOOTH",
"235 345 LINE",
"140 345 LINE",
"140 83 LINE SMOOTH",
"140 -380 OFFCURVE",
"-376 -503 OFFCURVE",
"-815 -503 CURVE SMOOTH",
"-1394 -503 OFFCURVE",
"-1601 -351 OFFCURVE",
"-1723 -207 CURVE"
);
}
);
width = 0;
}
);
script = gran;
category = Mark;
subCategory = Nonspacing;
},
{
glyphname = ra_vattu_gran.d2;
lastChange = "2020-05-24 21:48:52 +0000";
layers = (
{
anchors = (
{
name = _vattu;
position = "{0, 0}";
},
{
name = anudatta;
position = "{-560, -1127}";
},
{
name = anusvara;
position = "{347, 0}";
},
{
name = post;
position = "{347, 0}";
},
{
name = repha;
position = "{347, 0}";
},
{
name = topright;
position = "{206, 566}";
},
{
name = vattu;
position = "{347, 0}";
},
{
name = yaphalaa;
position = "{347, 0}";
}
);
layerId = "229B7033-F00A-4676-AEB9-BF59C6456AE0";
paths = (
{
closed = 1;
nodes = (
"347 388 LINE",
"-43 388 LINE",
"-43 334 LINE",
"347 334 LINE"
);
},
{
closed = 1;
nodes = (
"-577 -825 LINE",
"-538 -986 OFFCURVE",
"-389 -1067 OFFCURVE",
"-190 -1067 CURVE SMOOTH",
"33 -1067 OFFCURVE",
"235 -959 OFFCURVE",
"235 -699 CURVE SMOOTH",
"235 345 LINE",
"140 345 LINE",
"140 -727 LINE SMOOTH",
"140 -920 OFFCURVE",
"6 -1013 OFFCURVE",
"-190 -1013 CURVE SMOOTH",
"-366 -1013 OFFCURVE",
"-469 -939 OFFCURVE",
"-513 -825 CURVE"
);
}
);
width = 0;
}
);
script = gran;
category = Mark;
subCategory = Nonspacing;
},
{
glyphname = ra_vattu_gran.d2h2;
lastChange = "2020-05-24 21:48:52 +0000";
layers = (
{
anchors = (
{
name = _vattu;
position = "{0, 0}";
},
{
name = anudatta;
position = "{-280, -1127}";
},
{
name = anusvara;
position = "{647, 0}";
},
{
name = post;
position = "{647, 0}";
},
{
name = repha;
position = "{647, 0}";
},
{
name = topright;
position = "{506, 566}";
},
{
name = vattu;
position = "{647, 0}";
},
{
name = yaphalaa;
position = "{647, 0}";
}
);
layerId = "229B7033-F00A-4676-AEB9-BF59C6456AE0";
paths = (
{
closed = 1;
nodes = (
"643 388 LINE",
"-43 388 LINE",
"-43 334 LINE",
"643 334 LINE"
);
},
{
closed = 1;
nodes = (
"-281 -825 LINE",
"-242 -986 OFFCURVE",
"-93 -1067 OFFCURVE",
"106 -1067 CURVE SMOOTH",
"329 -1067 OFFCURVE",
"531 -959 OFFCURVE",
"531 -699 CURVE SMOOTH",
"531 345 LINE",
"436 345 LINE",
"436 -727 LINE SMOOTH",
"436 -920 OFFCURVE",
"302 -1013 OFFCURVE",
"106 -1013 CURVE SMOOTH",
"-70 -1013 OFFCURVE",
"-173 -939 OFFCURVE",
"-217 -825 CURVE"
);
}
);
width = 0;
}
);
script = gran;
category = Mark;
subCategory = Nonspacing;
},
{
glyphname = ra_vattu_gran.d2h3;
lastChange = "2020-05-24 21:48:52 +0000";
layers = (
{
anchors = (
{
name = _vattu;
position = "{0, 0}";
},
{
name = anudatta;
position = "{-201, -1126}";
},
{
name = anusvara;
position = "{647, 0}";
},
{
name = post;
position = "{647, 0}";
},
{
name = repha;
position = "{647, 0}";
},
{
name = topright;
position = "{506, 566}";
},
{
name = vattu;
position = "{647, 0}";
},
{
name = yaphalaa;
position = "{647, 0}";
}
);
guideLines = (
{
angle = 213.9174;
position = "{-820, -845}";
}
);
layerId = "229B7033-F00A-4676-AEB9-BF59C6456AE0";
paths = (
{
closed = 1;
nodes = (
"643 388 LINE",
"-43 388 LINE",
"-43 334 LINE",
"643 334 LINE"
);
},
{
closed = 1;
nodes = (
"-798 -852 LINE",
"-672 -990 OFFCURVE",
"-506 -1067 OFFCURVE",
"-195 -1067 CURVE SMOOTH",
"168 -1067 OFFCURVE",
"532 -919 OFFCURVE",
"532 -539 CURVE SMOOTH",
"532 345 LINE",
"437 345 LINE",
"437 -607 LINE SMOOTH",
"437 -860 OFFCURVE",
"155 -1013 OFFCURVE",
"-197 -1013 CURVE SMOOTH",
"-459 -1013 OFFCURVE",
"-617 -951 OFFCURVE",
"-751 -821 CURVE"
);
}
);
width = 0;
}
);
script = gran;
category = Mark;
subCategory = Nonspacing;
},
{
glyphname = ra_vattu_gran.d2w2;
lastChange = "2020-05-24 21:48:52 +0000";
layers = (
{
anchors = (
{
name = _vattu;
position = "{0, 0}";
},
{
name = anudatta;
position = "{-738, -1013}";
},
{
name = anusvara;
position = "{347, 0}";
},
{
name = post;
position = "{347, 0}";
},
{
name = repha;
position = "{347, 0}";
},
{
name = topright;
position = "{206, 566}";
},
{
name = vattu;
position = "{347, 0}";
},
{
name = yaphalaa;
position = "{347, 0}";
}
);
guideLines = (
{
angle = 213.9174;
position = "{-1120, -328}";
}
);
layerId = "229B7033-F00A-4676-AEB9-BF59C6456AE0";
paths = (
{
closed = 1;
nodes = (
"347 388 LINE",
"-43 388 LINE",
"-43 334 LINE",
"347 334 LINE"
);
},
{
closed = 1;
nodes = (
"-1570 -630 LINE",
"-1464 -761 OFFCURVE",
"-1230 -947 OFFCURVE",
"-766 -947 CURVE SMOOTH",
"-318 -947 OFFCURVE",
"235 -809 OFFCURVE",
"235 -249 CURVE SMOOTH",
"235 345 LINE",
"140 345 LINE",
"140 -307 LINE SMOOTH",
"140 -770 OFFCURVE",
"-326 -893 OFFCURVE",
"-765 -893 CURVE SMOOTH",
"-1194 -893 OFFCURVE",
"-1401 -741 OFFCURVE",
"-1523 -597 CURVE"
);
}
);
width = 0;
}
);
script = gran;
category = Mark;
subCategory = Nonspacing;
},
{
glyphname = ra_vattu_gran.d3;
lastChange = "2020-05-24 21:48:52 +0000";
layers = (
{
anchors = (
{
name = _vattu;
position = "{0, 0}";
},
{
name = anudatta;
position = "{-560, -1295}";
},
{
name = anusvara;
position = "{347, 0}";
},
{
name = post;
position = "{347, 0}";
},
{
name = repha;
position = "{347, 0}";
},
{
name = topright;
position = "{206, 566}";
},
{
name = vattu;
position = "{347, 0}";
},
{
name = yaphalaa;
position = "{347, 0}";
}
);
layerId = "229B7033-F00A-4676-AEB9-BF59C6456AE0";
paths = (
{
closed = 1;
nodes = (
"347 388 LINE",
"-43 388 LINE",
"-43 334 LINE",
"347 334 LINE"
);
},
{
closed = 1;
nodes = (
"-577 -993 LINE",
"-538 -1154 OFFCURVE",
"-389 -1235 OFFCURVE",
"-190 -1235 CURVE SMOOTH",
"33 -1235 OFFCURVE",
"235 -1127 OFFCURVE",
"235 -867 CURVE SMOOTH",
"235 345 LINE",
"140 345 LINE",
"140 -895 LINE SMOOTH",
"140 -1088 OFFCURVE",
"6 -1181 OFFCURVE",
"-190 -1181 CURVE SMOOTH",
"-366 -1181 OFFCURVE",
"-469 -1107 OFFCURVE",
"-513 -993 CURVE"
);
}
);
width = 0;
}
);
script = gran;
category = Mark;
subCategory = Nonspacing;
},
{
glyphname = ra_vattu_gran.d3b;
lastChange = "2020-05-24 21:48:52 +0000";
layers = (
{
anchors = (
{
name = _vattu;
position = "{0, 0}";
},
{
name = anudatta;
position = "{-560, -1487}";
},
{
name = anusvara;
position = "{347, 0}";
},
{
name = post;
position = "{347, 0}";
},
{
name = repha;
position = "{347, 0}";
},
{
name = topright;
position = "{206, 566}";
},
{
name = vattu;
position = "{347, 0}";
},
{
name = yaphalaa;
position = "{347, 0}";
}
);
layerId = "229B7033-F00A-4676-AEB9-BF59C6456AE0";
paths = (
{
closed = 1;
nodes = (
"347 388 LINE",
"-43 388 LINE",
"-43 334 LINE",
"347 334 LINE"
);
},
{
closed = 1;
nodes = (
"-577 -1185 LINE",
"-538 -1346 OFFCURVE",
"-389 -1427 OFFCURVE",
"-190 -1427 CURVE SMOOTH",
"33 -1427 OFFCURVE",
"235 -1319 OFFCURVE",
"235 -1059 CURVE SMOOTH",
"235 345 LINE",
"140 345 LINE",
"140 -1087 LINE SMOOTH",
"140 -1280 OFFCURVE",
"6 -1373 OFFCURVE",
"-190 -1373 CURVE SMOOTH",
"-366 -1373 OFFCURVE",
"-469 -1299 OFFCURVE",
"-513 -1185 CURVE"
);
}
);
width = 0;
}
);
script = gran;
category = Mark;
subCategory = Nonspacing;
},
{
glyphname = ra_vattu_gran.d3h1;
lastChange = "2020-05-24 21:48:52 +0000";
layers = (
{
anchors = (
{
name = _vattu;
position = "{0, 0}";
},
{
name = anudatta;
position = "{-370, -1295}";
},
{
name = anusvara;
position = "{497, 0}";
},
{
name = post;
position = "{497, 0}";
},
{
name = repha;
position = "{497, 0}";
},
{
name = topright;
position = "{356, 566}";
},
{
name = vattu;
position = "{497, 0}";
},
{
name = yaphalaa;
position = "{497, 0}";
}
);
layerId = "229B7033-F00A-4676-AEB9-BF59C6456AE0";
paths = (
{
closed = 1;
nodes = (
"497 388 LINE",
"-43 388 LINE",
"-43 334 LINE",
"497 334 LINE"
);
},
{
closed = 1;
nodes = (
"-426 -999 LINE",
"-387 -1160 OFFCURVE",
"-238 -1241 OFFCURVE",
"-39 -1241 CURVE SMOOTH",
"184 -1241 OFFCURVE",
"386 -1133 OFFCURVE",
"386 -873 CURVE SMOOTH",
"386 345 LINE",
"291 345 LINE",
"291 -901 LINE SMOOTH",
"291 -1094 OFFCURVE",
"157 -1187 OFFCURVE",
"-39 -1187 CURVE SMOOTH",
"-215 -1187 OFFCURVE",
"-318 -1113 OFFCURVE",
"-362 -999 CURVE"
);
}
);
width = 0;
}
);
script = gran;
category = Mark;
subCategory = Nonspacing;
},
{
glyphname = ra_vattu_gran.d3h1w1;
lastChange = "2020-05-24 21:48:52 +0000";
layers = (
{
anchors = (
{
name = _vattu;
position = "{0, 0}";
},
{
name = anudatta;
position = "{-342, -1295}";
},
{
name = anusvara;
position = "{497, 0}";
},
{
name = post;
position = "{497, 0}";
},
{
name = repha;
position = "{497, 0}";
},
{
name = topright;
position = "{356, 566}";
},
{
name = vattu;
position = "{497, 0}";
},
{
name = yaphalaa;
position = "{497, 0}";
}
);
guideLines = (
{
angle = 213.9174;
position = "{-739, -958}";
showMeasurement = 1;
}
);
layerId = "229B7033-F00A-4676-AEB9-BF59C6456AE0";
paths = (
{
closed = 1;
nodes = (
"-944 -1022 LINE",
"-818 -1160 OFFCURVE",
"-672 -1237 OFFCURVE",
"-341 -1237 CURVE SMOOTH",
"22 -1237 OFFCURVE",
"386 -1089 OFFCURVE",
"386 -709 CURVE SMOOTH",
"386 345 LINE",
"291 345 LINE",
"291 -777 LINE SMOOTH",
"291 -1030 OFFCURVE",
"9 -1183 OFFCURVE",
"-343 -1183 CURVE SMOOTH",
"-605 -1183 OFFCURVE",
"-763 -1121 OFFCURVE",
"-897 -991 CURVE"
);
},
{
closed = 1;
nodes = (
"497 388 LINE",
"-43 388 LINE",
"-43 334 LINE",
"497 334 LINE"
);
}
);
width = 0;
}
);
script = gran;
category = Mark;
subCategory = Nonspacing;
},
{
glyphname = ra_vattu_gran.d3h2;
lastChange = "2020-05-24 21:48:52 +0000";
layers = (
{
anchors = (
{
name = _vattu;
position = "{0, 0}";
},
{
name = anudatta;
position = "{-250, -1295}";
},
{
name = anusvara;
position = "{647, 0}";
},
{
name = post;
position = "{647, 0}";
},
{
name = repha;
position = "{647, 0}";
},
{
name = topright;
position = "{504, 566}";
},
{
name = vattu;
position = "{647, 0}";
},
{
name = yaphalaa;
position = "{647, 0}";
}
);
layerId = "229B7033-F00A-4676-AEB9-BF59C6456AE0";
paths = (
{
closed = 1;
nodes = (
"643 388 LINE",
"-43 388 LINE",
"-43 334 LINE",
"643 334 LINE"
);
},
{
closed = 1;
nodes = (
"-281 -981 LINE",
"-242 -1142 OFFCURVE",
"-93 -1223 OFFCURVE",
"106 -1223 CURVE SMOOTH",
"329 -1223 OFFCURVE",
"531 -1115 OFFCURVE",
"531 -855 CURVE SMOOTH",
"531 345 LINE",
"436 345 LINE",
"436 -883 LINE SMOOTH",
"436 -1076 OFFCURVE",
"302 -1169 OFFCURVE",
"106 -1169 CURVE SMOOTH",
"-70 -1169 OFFCURVE",
"-173 -1095 OFFCURVE",
"-217 -981 CURVE"
);
}
);
width = 0;
}
);
script = gran;
category = Mark;
subCategory = Nonspacing;
},
{
glyphname = ra_vattu_gran.d4;
lastChange = "2020-05-24 21:48:52 +0000";
layers = (
{
anchors = (
{
name = _vattu;
position = "{0, 0}";
},
{
name = anudatta;
position = "{-560, -1715}";
},
{
name = anusvara;
position = "{347, 0}";
},
{
name = post;
position = "{347, 0}";
},
{
name = repha;
position = "{347, 0}";
},
{
name = topright;
position = "{206, 566}";
},
{
name = vattu;
position = "{347, 0}";
},
{
name = yaphalaa;
position = "{347, 0}";
}
);
layerId = "229B7033-F00A-4676-AEB9-BF59C6456AE0";
paths = (
{
closed = 1;
nodes = (
"347 388 LINE",
"-43 388 LINE",
"-43 334 LINE",
"347 334 LINE"
);
},
{
closed = 1;
nodes = (
"-577 -1413 LINE",
"-538 -1574 OFFCURVE",
"-389 -1655 OFFCURVE",
"-190 -1655 CURVE SMOOTH",
"33 -1655 OFFCURVE",
"235 -1547 OFFCURVE",
"235 -1287 CURVE SMOOTH",
"235 345 LINE",
"140 345 LINE",
"140 -1315 LINE SMOOTH",
"140 -1508 OFFCURVE",
"6 -1601 OFFCURVE",
"-190 -1601 CURVE SMOOTH",
"-366 -1601 OFFCURVE",
"-469 -1527 OFFCURVE",
"-513 -1413 CURVE"
);
}
);
width = 0;
}
);
script = gran;
category = Mark;
subCategory = Nonspacing;
},
{
glyphname = ra_vattu_gran.d4h2;
lastChange = "2020-05-24 21:48:52 +0000";
layers = (
{
anchors = (
{
name = _vattu;
position = "{0, 0}";
},
{
name = anudatta;
position = "{-250, -1715}";
},
{
name = anusvara;
position = "{647, 0}";
},
{
name = post;
position = "{647, 0}";
},
{
name = repha;
position = "{647, 0}";
},
{
name = topright;
position = "{502, 566}";
},
{
name = vattu;
position = "{647, 0}";
},
{
name = yaphalaa;
position = "{647, 0}";
}
);
layerId = "229B7033-F00A-4676-AEB9-BF59C6456AE0";
paths = (
{
closed = 1;
nodes = (
"643 388 LINE",
"-43 388 LINE",
"-43 334 LINE",
"643 334 LINE"
);
},
{
closed = 1;
nodes = (
"-281 -1413 LINE",
"-242 -1574 OFFCURVE",
"-93 -1655 OFFCURVE",
"106 -1655 CURVE SMOOTH",
"329 -1655 OFFCURVE",
"531 -1547 OFFCURVE",
"531 -1287 CURVE SMOOTH",
"531 345 LINE",
"436 345 LINE",
"436 -1315 LINE SMOOTH",
"436 -1508 OFFCURVE",
"302 -1601 OFFCURVE",
"106 -1601 CURVE SMOOTH",
"-70 -1601 OFFCURVE",
"-173 -1527 OFFCURVE",
"-217 -1413 CURVE"
);
}
);
width = 0;
}
);
script = gran;
category = Mark;
subCategory = Nonspacing;
},
{
glyphname = ra_vattu_gran.d4bh2;
lastChange = "2020-05-24 21:48:52 +0000";
layers = (
{
anchors = (
{
name = _vattu;
position = "{0, 0}";
},
{
name = anudatta;
position = "{-250, -1815}";
},
{
name = anusvara;
position = "{647, 0}";
},
{
name = post;
position = "{647, 0}";
},
{
name = repha;
position = "{647, 0}";
},
{
name = topright;
position = "{502, 566}";
},
{
name = vattu;
position = "{647, 0}";
},
{
name = yaphalaa;
position = "{647, 0}";
}
);
layerId = "229B7033-F00A-4676-AEB9-BF59C6456AE0";
paths = (
{
closed = 1;
nodes = (
"643 388 LINE",
"-43 388 LINE",
"-43 334 LINE",
"643 334 LINE"
);
},
{
closed = 1;
nodes = (
"-281 -1515 LINE",
"-242 -1676 OFFCURVE",
"-93 -1757 OFFCURVE",
"106 -1757 CURVE SMOOTH",
"329 -1757 OFFCURVE",
"531 -1649 OFFCURVE",
"531 -1389 CURVE SMOOTH",
"531 345 LINE",
"436 345 LINE",
"436 -1417 LINE SMOOTH",
"436 -1610 OFFCURVE",
"302 -1703 OFFCURVE",
"106 -1703 CURVE SMOOTH",
"-70 -1703 OFFCURVE",
"-173 -1629 OFFCURVE",
"-217 -1515 CURVE"
);
}
);
width = 0;
}
);
script = gran;
category = Mark;
subCategory = Nonspacing;
},
{
glyphname = uMatra_gran;
lastChange = "2020-05-24 21:48:52 +0000";
layers = (
{
anchors = (
{
name = _topright;
position = "{-40, 566}";
},
{
name = anusvara;
position = "{800, 0}";
},
{
name = post;
position = "{783, 0}";
}
);
layerId = "229B7033-F00A-4676-AEB9-BF59C6456AE0";
paths = (
{
closed = 1;
nodes = (
"676 214 OFFCURVE",
"759 276 OFFCURVE",
"759 383 CURVE SMOOTH",
"759 554 LINE",
"-40 554 LINE",
"-40 500 LINE",
"664 500 LINE",
"664 374 LINE SMOOTH",
"664 313 OFFCURVE",
"621 268 OFFCURVE",
"560 268 CURVE SMOOTH",
"490 268 OFFCURVE",
"453 309 OFFCURVE",
"453 383 CURVE SMOOTH",
"453 523 LINE",
"392 523 LINE",
"392 388 LINE SMOOTH",
"392 278 OFFCURVE",
"460 214 OFFCURVE",
"568 214 CURVE SMOOTH"
);
}
);
width = 0;
}
);
unicode = 11341;
category = Mark;
subCategory = Nonspacing;
},
{
glyphname = uuMatra_gran;
lastChange = "2020-05-24 21:48:52 +0000";
layers = (
{
anchors = (
{
name = _topright;
position = "{-40, 566}";
},
{
name = anusvara;
position = "{1000, 0}";
},
{
name = post;
position = "{996, 0}";
}
);
layerId = "229B7033-F00A-4676-AEB9-BF59C6456AE0";
paths = (
{
closed = 1;
nodes = (
"801 0 OFFCURVE",
"970 169 OFFCURVE",
"970 411 CURVE SMOOTH",
"970 590 OFFCURVE",
"833 780 OFFCURVE",
"605 780 CURVE SMOOTH",
"386 780 OFFCURVE",
"288 648 OFFCURVE",
"288 523 CURVE SMOOTH",
"288 403 LINE SMOOTH",
"288 284 OFFCURVE",
"359 214 OFFCURVE",
"475 214 CURVE SMOOTH",
"577 214 OFFCURVE",
"654 279 OFFCURVE",
"654 383 CURVE SMOOTH",
"654 554 LINE",
"-40 554 LINE",
"-40 500 LINE",
"560 500 LINE",
"560 374 LINE SMOOTH",
"560 313 OFFCURVE",
"517 268 OFFCURVE",
"456 268 CURVE SMOOTH",
"384 268 OFFCURVE",
"349 318 OFFCURVE",
"349 398 CURVE SMOOTH",
"349 523 LINE SMOOTH",
"349 630 OFFCURVE",
"434 727 OFFCURVE",
"587 727 CURVE SMOOTH",
"801 727 OFFCURVE",
"875 570 OFFCURVE",
"875 425 CURVE SMOOTH",
"875 217 OFFCURVE",
"778 54 OFFCURVE",
"515 54 CURVE SMOOTH",
"394 54 OFFCURVE",
"271 100 OFFCURVE",
"190 217 CURVE",
"151 186 LINE",
"238 66 OFFCURVE",
"364 0 OFFCURVE",
"514 0 CURVE SMOOTH"
);
}
);
width = 0;
}
);
unicode = 11342;
category = Mark;
subCategory = Nonspacing;
},
{
glyphname = iMatra_gran;
lastChange = "2020-05-24 21:48:52 +0000";
layers = (
{
layerId = "229B7033-F00A-4676-AEB9-BF59C6456AE0";
paths = (
{
closed = 1;
nodes = (
"149 0 LINE",
"149 570 LINE SMOOTH",
"149 736 OFFCURVE",
"19 834 OFFCURVE",
"-153 834 CURVE SMOOTH",
"-312 834 OFFCURVE",
"-418 757 OFFCURVE",
"-418 646 CURVE SMOOTH",
"-418 560 OFFCURVE",
"-350 500 OFFCURVE",
"-268 500 CURVE SMOOTH",
"-263 500 LINE",
"-263 554 LINE",
"-268 554 LINE SMOOTH",
"-318 554 OFFCURVE",
"-353 587 OFFCURVE",
"-353 637 CURVE SMOOTH",
"-353 709 OFFCURVE",
"-277 746 OFFCURVE",
"-164 746 CURVE SMOOTH",
"-9 746 OFFCURVE",
"88 678 OFFCURVE",
"88 540 CURVE SMOOTH",
"88 0 LINE"
);
}
);
width = 0;
}
);
unicode = 1133F;
script = gran;
category = Letter;
subCategory = Spacing;
},
{
glyphname = iiMatra_gran;
lastChange = "2020-05-24 21:48:52 +0000";
layers = (
{
anchors = (
{
name = _iiMatra;
position = "{-369, 537}";
}
);
layerId = "229B7033-F00A-4676-AEB9-BF59C6456AE0";
paths = (
{
closed = 1;
nodes = (
"-254 496 LINE",
"-325 520 OFFCURVE",
"-364 559 OFFCURVE",
"-364 634 CURVE SMOOTH",
"-364 720 OFFCURVE",
"-308 778 OFFCURVE",
"-198 778 CURVE SMOOTH",
"-123 778 OFFCURVE",
"-72 742 OFFCURVE",
"-72 680 CURVE SMOOTH",
"-72 637 OFFCURVE",
"-105 606 OFFCURVE",
"-150 606 CURVE SMOOTH",
"-245 606 OFFCURVE",
"-266 706 OFFCURVE",
"-216 801 CURVE",
"-259 805 LINE",
"-333 679 OFFCURVE",
"-281 552 OFFCURVE",
"-136 552 CURVE SMOOTH",
"-50 552 OFFCURVE",
"11 606 OFFCURVE",
"11 675 CURVE SMOOTH",
"11 768 OFFCURVE",
"-68 832 OFFCURVE",
"-194 832 CURVE SMOOTH",
"-329 832 OFFCURVE",
"-422 750 OFFCURVE",
"-422 635 CURVE SMOOTH",
"-422 535 OFFCURVE",
"-347 476 OFFCURVE",
"-254 452 CURVE"
);
}
);
width = 0;
}
);
unicode = 11340;
script = gran;
category = Mark;
subCategory = Nonspacing;
},
{
glyphname = eeMatra_gran;
lastChange = "2020-05-24 21:48:52 +0000";
layers = (
{
layerId = "229B7033-F00A-4676-AEB9-BF59C6456AE0";
paths = (
{
closed = 1;
nodes = (
"467 -4 OFFCURVE",
"539 60 OFFCURVE",
"539 150 CURVE SMOOTH",
"539 247 OFFCURVE",
"481 309 OFFCURVE",
"382 309 CURVE SMOOTH",
"280 309 OFFCURVE",
"193 229 OFFCURVE",
"191 99 CURVE",
"221 72 LINE",
"222 185 OFFCURVE",
"276 241 OFFCURVE",
"345 241 CURVE SMOOTH",
"418 241 OFFCURVE",
"446 196 OFFCURVE",
"446 146 CURVE SMOOTH",
"446 92 OFFCURVE",
"407 49 OFFCURVE",
"341 49 CURVE SMOOTH",
"158 49 OFFCURVE",
"129 257 OFFCURVE",
"129 376 CURVE SMOOTH",
"129 599 OFFCURVE",
"245 739 OFFCURVE",
"456 739 CURVE SMOOTH",
"647 739 OFFCURVE",
"726 650 OFFCURVE",
"726 446 CURVE SMOOTH",
"726 0 LINE",
"787 0 LINE",
"787 446 LINE SMOOTH",
"787 698 OFFCURVE",
"681 829 OFFCURVE",
"460 829 CURVE SMOOTH",
"219 829 OFFCURVE",
"70 637 OFFCURVE",
"70 388 CURVE SMOOTH",
"70 241 OFFCURVE",
"123 -4 OFFCURVE",
"359 -4 CURVE SMOOTH"
);
}
);
width = 867;
}
);
unicode = 11347;
},
{
glyphname = virama_gran;
lastChange = "2020-05-24 21:48:52 +0000";
layers = (
{
anchors = (
{
name = _virama;
position = "{-130, 475}";
},
{
name = top;
position = "{-100, 930}";
}
);
guideLines = (
{
position = "{409, 691}";
}
);
layerId = "229B7033-F00A-4676-AEB9-BF59C6456AE0";
paths = (
{
closed = 1;
nodes = (
"5 873 LINE SMOOTH",
"-241 873 OFFCURVE",
"-290 814 OFFCURVE",
"-290 755 CURVE SMOOTH",
"-290 713 OFFCURVE",
"-263 690 OFFCURVE",
"-237 675 CURVE",
"-237 692 LINE",
"-282 680 OFFCURVE",
"-305 650 OFFCURVE",
"-305 604 CURVE SMOOTH",
"-305 537 OFFCURVE",
"-255 494 OFFCURVE",
"-149 494 CURVE SMOOTH",
"-59 494 LINE",
"-59 548 LINE",
"-135 548 LINE SMOOTH",
"-196 548 OFFCURVE",
"-229 577 OFFCURVE",
"-229 606 CURVE SMOOTH",
"-229 635 OFFCURVE",
"-196 654 OFFCURVE",
"-135 654 CURVE SMOOTH",
"-39 654 LINE",
"-39 708 LINE",
"-125 708 LINE SMOOTH",
"-172 708 OFFCURVE",
"-224 724 OFFCURVE",
"-224 759 CURVE SMOOTH",
"-224 787 OFFCURVE",
"-191 823 OFFCURVE",
"26 823 CURVE SMOOTH",
"70 823 LINE",
"79 873 LINE"
);
}
);
width = 0;
}
);
unicode = 1134D;
script = gran;
category = Mark;
subCategory = Nonspacing;
},
{
glyphname = virama_gran.alt;
lastChange = "2020-05-24 21:48:52 +0000";
layers = (
{
anchors = (
{
name = _virama;
position = "{-130, 475}";
},
{
name = top;
position = "{-100, 930}";
}
);
guideLines = (
{
position = "{409, 691}";
}
);
layerId = "229B7033-F00A-4676-AEB9-BF59C6456AE0";
paths = (
{
closed = 1;
nodes = (
"-181 555 LINE",
"-209 567 OFFCURVE",
"-229 585 OFFCURVE",
"-229 607 CURVE SMOOTH",
"-229 635 OFFCURVE",
"-196 654 OFFCURVE",
"-135 654 CURVE SMOOTH",
"-39 654 LINE",
"-39 708 LINE",
"-125 708 LINE SMOOTH",
"-172 708 OFFCURVE",
"-224 724 OFFCURVE",
"-224 759 CURVE SMOOTH",
"-224 787 OFFCURVE",
"-191 823 OFFCURVE",
"26 823 CURVE SMOOTH",
"70 823 LINE",
"79 873 LINE",
"5 873 LINE SMOOTH",
"-241 873 OFFCURVE",
"-290 814 OFFCURVE",
"-290 755 CURVE SMOOTH",
"-290 713 OFFCURVE",
"-263 690 OFFCURVE",
"-237 675 CURVE",
"-237 692 LINE",
"-282 680 OFFCURVE",
"-305 650 OFFCURVE",
"-305 604 CURVE SMOOTH",
"-305 562 OFFCURVE",
"-272 524 OFFCURVE",
"-210 508 CURVE"
);
}
);
width = 0;
}
);
script = gran;
category = Mark;
subCategory = Nonspacing;
},
{
glyphname = om_gran;
lastChange = "2020-05-24 21:48:52 +0000";
layers = (
{
layerId = "229B7033-F00A-4676-AEB9-BF59C6456AE0";
paths = (
{
closed = 1;
nodes = (
"966 863 LINE",
"895 855 OFFCURVE",
"757 783 OFFCURVE",
"668 659 CURVE SMOOTH",
"607 573 OFFCURVE",
"567 445 OFFCURVE",
"588 254 CURVE SMOOTH",
"601 138 OFFCURVE",
"648 10 OFFCURVE",
"648 -85 CURVE SMOOTH",
"648 -255 OFFCURVE",
"561 -370 OFFCURVE",
"431 -370 CURVE SMOOTH",
"326 -370 OFFCURVE",
"296 -296 OFFCURVE",
"296 -242 CURVE SMOOTH",
"296 -157 OFFCURVE",
"370 -81 OFFCURVE",
"543 -81 CURVE SMOOTH",
"720 -81 LINE SMOOTH",
"859 -81 OFFCURVE",
"910 -46 OFFCURVE",
"910 -8 CURVE SMOOTH",
"910 11 OFFCURVE",
"897 29 OFFCURVE",
"860 29 CURVE SMOOTH",
"830 29 OFFCURVE",
"806 10 OFFCURVE",
"797 -8 CURVE",
"742 -8 LINE",
"757 38 OFFCURVE",
"801 83 OFFCURVE",
"880 83 CURVE SMOOTH",
"958 83 OFFCURVE",
"996 42 OFFCURVE",
"996 -4 CURVE SMOOTH",
"996 -79 OFFCURVE",
"921 -135 OFFCURVE",
"721 -135 CURVE SMOOTH",
"512 -135 LINE SMOOTH",
"413 -135 OFFCURVE",
"363 -183 OFFCURVE",
"363 -239 CURVE SMOOTH",
"363 -274 OFFCURVE",
"379 -316 OFFCURVE",
"431 -316 CURVE SMOOTH",
"505 -316 OFFCURVE",
"552 -229 OFFCURVE",
"552 -97 CURVE SMOOTH",
"552 -2 OFFCURVE",
"528 109 OFFCURVE",
"513 249 CURVE SMOOTH",
"493 438 OFFCURVE",
"526 576 OFFCURVE",
"601 692 CURVE SMOOTH",
"678 812 OFFCURVE",
"812 904 OFFCURVE",
"957 923 CURVE"
);
},
{
closed = 1;
nodes = (
"921 189 LINE",
"921 69 LINE",
"843 69 LINE",
"843 189 LINE"
);
},
{
closed = 1;
nodes = (
"688 223 LINE",
"730 263 OFFCURVE",
"769 330 OFFCURVE",
"769 437 CURVE SMOOTH",
"769 582 OFFCURVE",
"654 685 OFFCURVE",
"475 685 CURVE SMOOTH",
"273 685 OFFCURVE",
"118 583 OFFCURVE",
"118 411 CURVE SMOOTH",
"118 289 OFFCURVE",
"191 229 OFFCURVE",
"263 229 CURVE SMOOTH",
"329 229 OFFCURVE",
"368 272 OFFCURVE",
"368 326 CURVE SMOOTH",
"368 371 OFFCURVE",
"339 416 OFFCURVE",
"271 416 CURVE SMOOTH",
"207 416 OFFCURVE",
"158 365 OFFCURVE",
"152 277 CURVE",
"122 304 LINE",
"129 409 OFFCURVE",
"211 484 OFFCURVE",
"308 484 CURVE SMOOTH",
"402 484 OFFCURVE",
"460 422 OFFCURVE",
"460 330 CURVE SMOOTH",
"460 240 OFFCURVE",
"388 176 OFFCURVE",
"280 176 CURVE SMOOTH",
"168 176 OFFCURVE",
"60 257 OFFCURVE",
"60 414 CURVE SMOOTH",
"60 620 OFFCURVE",
"252 739 OFFCURVE",
"488 739 CURVE SMOOTH",
"710 739 OFFCURVE",
"865 621 OFFCURVE",
"865 441 CURVE SMOOTH",
"865 344 OFFCURVE",
"820 277 OFFCURVE",
"777 234 CURVE",
"1081 234 LINE",
"1081 180 LINE",
"706 180 LINE"
);
}
);
width = 1122;
}
);
unicode = 11350;
},
{
glyphname = pluta_gran;
lastChange = "2020-05-24 21:48:52 +0000";
layers = (
{
guideLines = (
{
angle = 216.573;
position = "{185, 525}";
}
);
layerId = "229B7033-F00A-4676-AEB9-BF59C6456AE0";
paths = (
{
closed = 1;
nodes = (
"151 367 LINE",
"143 377 OFFCURVE",
"139 388 OFFCURVE",
"139 399 CURVE SMOOTH",
"139 426 OFFCURVE",
"166 445 OFFCURVE",
"197 469 CURVE SMOOTH",
"228 492 LINE SMOOTH",
"279 531 OFFCURVE",
"319 579 OFFCURVE",
"319 651 CURVE SMOOTH",
"319 662 LINE",
"261 662 LINE",
"261 650 LINE SMOOTH",
"261 601 OFFCURVE",
"233 562 OFFCURVE",
"199 537 CURVE SMOOTH",
"172 517 LINE SMOOTH",
"124 482 OFFCURVE",
"78 455 OFFCURVE",
"78 402 CURVE SMOOTH",
"78 378 OFFCURVE",
"88 363 OFFCURVE",
"109 340 CURVE"
);
},
{
closed = 1;
nodes = (
"399 -62 OFFCURVE",
"350 -83 OFFCURVE",
"279 -83 CURVE SMOOTH",
"188 -83 OFFCURVE",
"159 -46 OFFCURVE",
"159 -10 CURVE SMOOTH",
"159 20 OFFCURVE",
"180 52 OFFCURVE",
"221 52 CURVE SMOOTH",
"352 52 LINE",
"352 106 LINE",
"236 106 LINE SMOOTH",
"185 106 OFFCURVE",
"159 124 OFFCURVE",
"159 154 CURVE SMOOTH",
"159 184 OFFCURVE",
"185 203 OFFCURVE",
"236 203 CURVE SMOOTH",
"339 203 LINE",
"339 257 LINE",
"236 257 LINE SMOOTH",
"188 257 OFFCURVE",
"159 283 OFFCURVE",
"159 313 CURVE SMOOTH",
"159 341 OFFCURVE",
"183 368 OFFCURVE",
"236 368 CURVE SMOOTH",
"339 368 LINE",
"339 422 LINE",
"284 422 LINE SMOOTH",
"127 422 OFFCURVE",
"73 385 OFFCURVE",
"73 310 CURVE SMOOTH",
"73 271 OFFCURVE",
"92 245 OFFCURVE",
"127 229 CURVE",
"127 228 LINE",
"97 210 OFFCURVE",
"73 184 OFFCURVE",
"73 142 CURVE SMOOTH",
"73 109 OFFCURVE",
"88 85 OFFCURVE",
"107 70 CURVE",
"107 69 LINE",
"89 51 OFFCURVE",
"70 25 OFFCURVE",
"70 -21 CURVE SMOOTH",
"70 -89 OFFCURVE",
"132 -137 OFFCURVE",
"261 -137 CURVE SMOOTH",
"370 -137 OFFCURVE",
"438 -99 OFFCURVE",
"460 -86 CURVE",
"431 -44 LINE"
);
}
);
width = 480;
}
);
leftMetricsKey = ttha_gran;
unicode = 1135D;
},
{
glyphname = anusvaraVedic_gran;
lastChange = "2020-05-24 21:48:52 +0000";
layers = (
{
anchors = (
{
name = anudatta;
position = "{515, -42}";
},
{
name = svara;
position = "{515, 900}";
},
{
name = top;
position = "{515, 640}";
}
);
guideLines = (
{
position = "{515, 485}";
}
);
layerId = "229B7033-F00A-4676-AEB9-BF59C6456AE0";
paths = (
{
closed = 1;
nodes = (
"597 261 OFFCURVE",
"658 318 OFFCURVE",
"658 400 CURVE SMOOTH",
"658 482 OFFCURVE",
"597 539 OFFCURVE",
"515 539 CURVE SMOOTH",
"433 539 OFFCURVE",
"372 482 OFFCURVE",
"372 400 CURVE SMOOTH",
"372 318 OFFCURVE",
"433 261 OFFCURVE",
"515 261 CURVE SMOOTH"
);
},
{
closed = 1;
nodes = (
"477 333 OFFCURVE",
"448 362 OFFCURVE",
"448 400 CURVE SMOOTH",
"448 438 OFFCURVE",
"477 467 OFFCURVE",
"515 467 CURVE SMOOTH",
"553 467 OFFCURVE",
"582 438 OFFCURVE",
"582 400 CURVE SMOOTH",
"582 362 OFFCURVE",
"553 333 OFFCURVE",
"515 333 CURVE SMOOTH"
);
},
{
closed = 1;
nodes = (
"921 485 LINE",
"921 166 OFFCURVE",
"715 47 OFFCURVE",
"515 47 CURVE SMOOTH",
"315 47 OFFCURVE",
"108 165 OFFCURVE",
"108 485 CURVE",
"30 485 LINE",
"30 155 OFFCURVE",
"245 -7 OFFCURVE",
"515 -7 CURVE SMOOTH",
"785 -7 OFFCURVE",
"995 155 OFFCURVE",
"999 485 CURVE"
);
}
);
width = 1029;
}
);
unicode = 1135E;
},
{
glyphname = doubleAnusvaraVedic_gran;
lastChange = "2020-05-24 21:48:52 +0000";
layers = (
{
anchors = (
{
name = anudatta;
position = "{584, -123}";
},
{
name = svara;
position = "{584, 900}";
},
{
name = top;
position = "{584, 640}";
}
);
guideLines = (
{
angle = 180;
position = "{584, 566}";
}
);
layerId = "229B7033-F00A-4676-AEB9-BF59C6456AE0";
paths = (
{
closed = 1;
nodes = (
"667 311 OFFCURVE",
"728 368 OFFCURVE",
"728 450 CURVE SMOOTH",
"728 532 OFFCURVE",
"667 589 OFFCURVE",
"585 589 CURVE SMOOTH",
"503 589 OFFCURVE",
"442 532 OFFCURVE",
"442 450 CURVE SMOOTH",
"442 368 OFFCURVE",
"503 311 OFFCURVE",
"585 311 CURVE SMOOTH"
);
},
{
closed = 1;
nodes = (
"547 383 OFFCURVE",
"518 412 OFFCURVE",
"518 450 CURVE SMOOTH",
"518 488 OFFCURVE",
"547 517 OFFCURVE",
"585 517 CURVE SMOOTH",
"623 517 OFFCURVE",
"652 488 OFFCURVE",
"652 450 CURVE SMOOTH",
"652 412 OFFCURVE",
"623 383 OFFCURVE",
"585 383 CURVE SMOOTH"
);
},
{
closed = 1;
nodes = (
"1061 559 LINE",
"1061 269 OFFCURVE",
"945 -9 OFFCURVE",
"585 -9 CURVE SMOOTH",
"225 -9 OFFCURVE",
"108 269 OFFCURVE",
"108 559 CURVE",
"30 559 LINE",
"30 249 OFFCURVE",
"165 -63 OFFCURVE",
"585 -63 CURVE SMOOTH",
"1005 -63 OFFCURVE",
"1135 249 OFFCURVE",
"1139 559 CURVE"
);
},
{
closed = 1;
nodes = (
"901 559 LINE",
"901 269 OFFCURVE",
"765 165 OFFCURVE",
"585 165 CURVE SMOOTH",
"405 165 OFFCURVE",
"268 269 OFFCURVE",
"268 559 CURVE",
"190 559 LINE",
"190 238 OFFCURVE",
"355 111 OFFCURVE",
"585 111 CURVE SMOOTH",
"815 111 OFFCURVE",
"975 238 OFFCURVE",
"979 559 CURVE"
);
}
);
width = 1169;
}
);
unicode = 1135F;
},
{
glyphname = lVocalic_gran;
lastChange = "2020-05-24 21:48:52 +0000";
layers = (
{
anchors = (
{
name = anudatta;
position = "{681, -72}";
},
{
name = svara;
position = "{681, 900}";
}
);
layerId = "229B7033-F00A-4676-AEB9-BF59C6456AE0";
paths = (
{
closed = 1;
nodes = (
"398 -4 OFFCURVE",
"470 60 OFFCURVE",
"470 150 CURVE SMOOTH",
"470 242 OFFCURVE",
"412 304 OFFCURVE",
"318 304 CURVE SMOOTH",
"220 304 OFFCURVE",
"138 229 OFFCURVE",
"131 124 CURVE",
"161 97 LINE",
"167 185 OFFCURVE",
"216 236 OFFCURVE",
"281 236 CURVE SMOOTH",
"348 236 OFFCURVE",
"377 191 OFFCURVE",
"377 146 CURVE SMOOTH",
"377 92 OFFCURVE",
"338 49 OFFCURVE",
"272 49 CURVE SMOOTH",
"198 49 OFFCURVE",
"128 115 OFFCURVE",
"128 249 CURVE SMOOTH",
"128 415 OFFCURVE",
"247 505 OFFCURVE",
"395 505 CURVE SMOOTH",
"561 505 OFFCURVE",
"660 420 OFFCURVE",
"660 269 CURVE",
"716 273 LINE",
"711 455 OFFCURVE",
"589 559 OFFCURVE",
"394 559 CURVE SMOOTH",
"217 559 OFFCURVE",
"70 454 OFFCURVE",
"70 250 CURVE SMOOTH",
"70 83 OFFCURVE",
"173 -4 OFFCURVE",
"289 -4 CURVE SMOOTH"
);
},
{
closed = 1;
nodes = (
"755 0 LINE",
"755 500 LINE",
"1352 500 LINE",
"1352 554 LINE",
"665 554 LINE",
"665 387 LINE",
"660 382 LINE",
"660 0 LINE"
);
},
{
closed = 1;
nodes = (
"1188 210 LINE SMOOTH",
"1188 76 OFFCURVE",
"1137 54 OFFCURVE",
"1077 54 CURVE SMOOTH",
"1020 54 OFFCURVE",
"972 87 OFFCURVE",
"972 196 CURVE SMOOTH",
"972 554 LINE",
"877 554 LINE",
"877 195 LINE SMOOTH",
"877 50 OFFCURVE",
"964 -5 OFFCURVE",
"1067 -5 CURVE SMOOTH",
"1169 -5 OFFCURVE",
"1247 47 OFFCURVE",
"1247 210 CURVE SMOOTH",
"1247 554 LINE",
"1188 554 LINE"
);
}
);
width = 1362;
}
);
leftMetricsKey = ttha_gran;
unicode = 1130C;
},
{
glyphname = rVocalic_gran;
lastChange = "2020-05-24 21:48:52 +0000";
layers = (
{
anchors = (
{
name = anudatta;
position = "{392, -192}";
},
{
name = svara;
position = "{392, 900}";
}
);
layerId = "229B7033-F00A-4676-AEB9-BF59C6456AE0";
paths = (
{
closed = 1;
nodes = (
"122 207 OFFCURVE",
"70 360 OFFCURVE",
"70 442 CURVE SMOOTH",
"70 536 OFFCURVE",
"137 576 OFFCURVE",
"210 576 CURVE SMOOTH",
"268 576 OFFCURVE",
"333 550 OFFCURVE",
"333 473 CURVE SMOOTH",
"333 372 OFFCURVE",
"211 335 OFFCURVE",
"134 350 CURVE",
"123 404 LINE",
"196 384 OFFCURVE",
"281 413 OFFCURVE",
"281 471 CURVE SMOOTH",
"281 508 OFFCURVE",
"246 522 OFFCURVE",
"214 522 CURVE SMOOTH",
"172 522 OFFCURVE",
"138 498 OFFCURVE",
"138 443 CURVE SMOOTH",
"138 397 OFFCURVE",
"172 261 OFFCURVE",
"392 261 CURVE SMOOTH",
"616 261 OFFCURVE",
"647 397 OFFCURVE",
"647 443 CURVE SMOOTH",
"647 500 OFFCURVE",
"612 522 OFFCURVE",
"571 522 CURVE SMOOTH",
"538 522 OFFCURVE",
"504 508 OFFCURVE",
"504 471 CURVE SMOOTH",
"504 413 OFFCURVE",
"589 384 OFFCURVE",
"662 404 CURVE",
"651 350 LINE",
"574 335 OFFCURVE",
"452 372 OFFCURVE",
"452 473 CURVE SMOOTH",
"452 550 OFFCURVE",
"516 576 OFFCURVE",
"574 576 CURVE SMOOTH",
"647 576 OFFCURVE",
"715 536 OFFCURVE",
"715 442 CURVE SMOOTH",
"715 360 OFFCURVE",
"662 207 OFFCURVE",
"392 207 CURVE SMOOTH"
);
},
{
closed = 1;
nodes = (
"70 179 OFFCURVE",
"238 261 OFFCURVE",
"392 261 CURVE SMOOTH",
"542 261 OFFCURVE",
"715 180 OFFCURVE",
"715 31 CURVE SMOOTH",
"715 -65 OFFCURVE",
"641 -132 OFFCURVE",
"537 -132 CURVE SMOOTH",
"449 -132 OFFCURVE",
"413 -80 OFFCURVE",
"388 -36 CURVE",
"395 -36 LINE",
"370 -80 OFFCURVE",
"334 -132 OFFCURVE",
"239 -132 CURVE SMOOTH",
"140 -132 OFFCURVE",
"70 -71 OFFCURVE",
"70 31 CURVE SMOOTH"
);
},
{
closed = 1;
nodes = (
"291 207 OFFCURVE",
"165 172 OFFCURVE",
"165 29 CURVE SMOOTH",
"165 -41 OFFCURVE",
"194 -78 OFFCURVE",
"249 -78 CURVE SMOOTH",
"308 -78 OFFCURVE",
"351 -35 OFFCURVE",
"360 6 CURVE",
"424 6 LINE",
"433 -35 OFFCURVE",
"479 -78 OFFCURVE",
"532 -78 CURVE SMOOTH",
"582 -78 OFFCURVE",
"620 -41 OFFCURVE",
"620 36 CURVE SMOOTH",
"620 172 OFFCURVE",
"498 207 OFFCURVE",
"392 207 CURVE SMOOTH"
);
}
);
width = 785;
}
);
leftMetricsKey = ttha_gran;
rightMetricsKey = ttha_gran;
unicode = 1130B;
},
{
glyphname = zerocomb_gran;
lastChange = "2020-05-24 21:48:52 +0000";
layers = (
{
anchors = (
{
name = _svara;
position = "{-201, 590}";
},
{
name = _svara_mkmk;
position = "{-435, 807}";
},
{
name = svara_mkmk;
position = "{33, 807}";
}
);
layerId = "229B7033-F00A-4676-AEB9-BF59C6456AE0";
paths = (
{
closed = 1;
nodes = (
"-102 633 OFFCURVE",
"-43 708 OFFCURVE",
"-43 807 CURVE SMOOTH",
"-43 894 OFFCURVE",
"-92 980 OFFCURVE",
"-200 980 CURVE SMOOTH",
"-299 980 OFFCURVE",
"-359 907 OFFCURVE",
"-359 807 CURVE SMOOTH",
"-359 707 OFFCURVE",
"-300 633 OFFCURVE",
"-200 633 CURVE SMOOTH"
);
},
{
closed = 1;
nodes = (
"-145 932 OFFCURVE",
"-105 871 OFFCURVE",
"-105 807 CURVE SMOOTH",
"-105 741 OFFCURVE",
"-145 681 OFFCURVE",
"-201 681 CURVE SMOOTH",
"-259 681 OFFCURVE",
"-297 744 OFFCURVE",
"-297 807 CURVE SMOOTH",
"-297 870 OFFCURVE",
"-258 932 OFFCURVE",
"-200 932 CURVE SMOOTH"
);
}
);
width = 0;
}
);
unicode = 11366;
},
{
glyphname = onecomb_gran;
lastChange = "2020-05-24 21:48:52 +0000";
layers = (
{
anchors = (
{
name = _svara;
position = "{-261, 590}";
},
{
name = _svara_mkmk;
position = "{-541, 807}";
},
{
name = svara_mkmk;
position = "{18, 807}";
}
);
layerId = "229B7033-F00A-4676-AEB9-BF59C6456AE0";
paths = (
{
closed = 1;
nodes = (
"-260 633 OFFCURVE",
"-206 686 OFFCURVE",
"-206 760 CURVE SMOOTH",
"-206 799 LINE",
"-178 799 LINE SMOOTH",
"-126 799 OFFCURVE",
"-96 778 OFFCURVE",
"-96 731 CURVE SMOOTH",
"-96 701 OFFCURVE",
"-118 674 OFFCURVE",
"-157 674 CURVE SMOOTH",
"-189 674 OFFCURVE",
"-217 682 OFFCURVE",
"-240 705 CURVE",
"-259 681 LINE",
"-227 649 OFFCURVE",
"-193 633 OFFCURVE",
"-147 633 CURVE SMOOTH",
"-83 633 OFFCURVE",
"-31 670 OFFCURVE",
"-31 730 CURVE SMOOTH",
"-31 797 OFFCURVE",
"-89 839 OFFCURVE",
"-179 839 CURVE SMOOTH",
"-206 839 LINE",
"-206 940 LINE",
"-97 940 LINE",
"-97 980 LINE",
"-414 980 LINE",
"-414 814 LINE",
"-367 814 LINE",
"-367 940 LINE",
"-276 940 LINE",
"-276 839 LINE",
"-372 839 LINE SMOOTH",
"-440 839 OFFCURVE",
"-487 798 OFFCURVE",
"-487 736 CURVE SMOOTH",
"-487 674 OFFCURVE",
"-427 633 OFFCURVE",
"-352 633 CURVE SMOOTH"
);
},
{
closed = 1;
nodes = (
"-409 673 OFFCURVE",
"-442 696 OFFCURVE",
"-442 736 CURVE SMOOTH",
"-442 775 OFFCURVE",
"-413 799 OFFCURVE",
"-371 799 CURVE SMOOTH",
"-276 799 LINE",
"-276 753 LINE SMOOTH",
"-276 700 OFFCURVE",
"-307 673 OFFCURVE",
"-358 673 CURVE SMOOTH"
);
}
);
width = 0;
}
);
unicode = 11367;
},
{
glyphname = twocomb_gran;
lastChange = "2020-05-24 21:48:52 +0000";
layers = (
{
anchors = (
{
name = _svara;
position = "{-459, 590}";
},
{
name = _svara_mkmk;
position = "{-714, 807}";
},
{
name = svara_mkmk;
position = "{-216, 807}";
}
);
layerId = "229B7033-F00A-4676-AEB9-BF59C6456AE0";
paths = (
{
closed = 1;
nodes = (
"-189 633 LINE",
"-189 673 LINE",
"-603 673 LINE SMOOTH",
"-616 673 OFFCURVE",
"-627 682 OFFCURVE",
"-627 696 CURVE SMOOTH",
"-627 711 OFFCURVE",
"-616 717 OFFCURVE",
"-603 717 CURVE SMOOTH",
"-458 717 LINE SMOOTH",
"-369 717 OFFCURVE",
"-285 765 OFFCURVE",
"-285 842 CURVE SMOOTH",
"-285 933 OFFCURVE",
"-382 980 OFFCURVE",
"-471 980 CURVE SMOOTH",
"-561 980 OFFCURVE",
"-631 937 OFFCURVE",
"-631 848 CURVE SMOOTH",
"-631 762 OFFCURVE",
"-553 725 OFFCURVE",
"-467 725 CURVE",
"-467 757 LINE",
"-548 757 OFFCURVE",
"-591 786 OFFCURVE",
"-591 848 CURVE SMOOTH",
"-591 912 OFFCURVE",
"-546 940 OFFCURVE",
"-475 940 CURVE SMOOTH",
"-409 940 OFFCURVE",
"-355 912 OFFCURVE",
"-355 848 CURVE SMOOTH",
"-355 791 OFFCURVE",
"-396 757 OFFCURVE",
"-466 757 CURVE SMOOTH",
"-598 757 LINE SMOOTH",
"-638 757 OFFCURVE",
"-667 734 OFFCURVE",
"-667 696 CURVE SMOOTH",
"-667 660 OFFCURVE",
"-638 633 OFFCURVE",
"-598 633 CURVE SMOOTH"
);
}
);
width = 0;
}
);
unicode = 11368;
},
{
glyphname = threecomb_gran;
lastChange = "2020-05-24 21:48:52 +0000";
layers = (
{
anchors = (
{
name = _svara;
position = "{-311, 590}";
},
{
name = _svara_mkmk;
position = "{-636, 807}";
},
{
name = svara_mkmk;
position = "{-78, 807}";
}
);
layerId = "229B7033-F00A-4676-AEB9-BF59C6456AE0";
paths = (
{
closed = 1;
nodes = (
"-536 633 LINE",
"-536 937 LINE",
"-438 937 LINE",
"-438 755 LINE",
"-368 755 LINE",
"-368 771 LINE SMOOTH",
"-368 805 OFFCURVE",
"-348 829 OFFCURVE",
"-315 829 CURVE SMOOTH",
"-281 829 OFFCURVE",
"-257 803 OFFCURVE",
"-257 763 CURVE SMOOTH",
"-257 686 OFFCURVE",
"-325 673 OFFCURVE",
"-363 673 CURVE SMOOTH",
"-427 673 LINE",
"-427 633 LINE",
"-87 633 LINE",
"-87 673 LINE",
"-288 673 LINE",
"-231 682 OFFCURVE",
"-187 719 OFFCURVE",
"-187 773 CURVE SMOOTH",
"-187 829 OFFCURVE",
"-232 873 OFFCURVE",
"-296 873 CURVE SMOOTH",
"-338 873 OFFCURVE",
"-362 848 OFFCURVE",
"-368 831 CURVE",
"-368 937 LINE",
"-260 937 LINE",
"-260 977 LINE",
"-575 977 LINE",
"-575 633 LINE"
);
}
);
width = 0;
}
);
unicode = 11369;
},
{
glyphname = fourcomb_gran;
lastChange = "2020-05-24 21:48:52 +0000";
layers = (
{
anchors = (
{
name = _svara;
position = "{-301, 590}";
},
{
name = _svara_mkmk;
position = "{-619, 807}";
},
{
name = svara_mkmk;
position = "{-2, 807}";
}
);
layerId = "229B7033-F00A-4676-AEB9-BF59C6456AE0";
paths = (
{
closed = 1;
nodes = (
"-321 635 OFFCURVE",
"-256 687 OFFCURVE",
"-256 761 CURVE SMOOTH",
"-256 801 LINE",
"-60 801 LINE",
"-60 981 LINE",
"-100 981 LINE",
"-100 841 LINE",
"-256 841 LINE",
"-256 941 LINE",
"-169 941 LINE",
"-169 981 LINE",
"-465 981 LINE",
"-465 815 LINE",
"-425 815 LINE",
"-425 941 LINE",
"-326 941 LINE",
"-326 841 LINE",
"-430 841 LINE SMOOTH",
"-502 841 OFFCURVE",
"-547 796 OFFCURVE",
"-547 738 CURVE SMOOTH",
"-547 674 OFFCURVE",
"-488 635 OFFCURVE",
"-414 635 CURVE SMOOTH"
);
},
{
closed = 1;
nodes = (
"-469 675 OFFCURVE",
"-502 696 OFFCURVE",
"-502 737 CURVE SMOOTH",
"-502 776 OFFCURVE",
"-479 801 OFFCURVE",
"-426 801 CURVE SMOOTH",
"-326 801 LINE",
"-326 755 LINE SMOOTH",
"-326 700 OFFCURVE",
"-368 675 OFFCURVE",
"-419 675 CURVE SMOOTH"
);
}
);
width = 0;
}
);
unicode = 1136A;
},
{
glyphname = fivecomb_gran;
lastChange = "2020-05-24 21:48:52 +0000";
layers = (
{
anchors = (
{
name = _svara;
position = "{-341, 431}";
},
{
name = _svara_mkmk;
position = "{-711, 807}";
},
{
name = svara_mkmk;
position = "{-20, 807}";
}
);
layerId = "229B7033-F00A-4676-AEB9-BF59C6456AE0";
paths = (
{
closed = 1;
nodes = (
"-152 473 OFFCURVE",
"-52 589 OFFCURVE",
"-52 707 CURVE SMOOTH",
"-52 789 OFFCURVE",
"-104 856 OFFCURVE",
"-174 856 CURVE SMOOTH",
"-231 856 OFFCURVE",
"-268 817 OFFCURVE",
"-268 757 CURVE SMOOTH",
"-268 728 LINE",
"-251 723 LINE",
"-251 751 LINE SMOOTH",
"-251 784 OFFCURVE",
"-232 815 OFFCURVE",
"-195 815 CURVE SMOOTH",
"-142 815 OFFCURVE",
"-123 762 OFFCURVE",
"-123 700 CURVE SMOOTH",
"-123 600 OFFCURVE",
"-182 513 OFFCURVE",
"-334 513 CURVE SMOOTH",
"-504 513 OFFCURVE",
"-597 650 OFFCURVE",
"-597 801 CURVE SMOOTH",
"-597 978 OFFCURVE",
"-504 1086 OFFCURVE",
"-319 1086 CURVE SMOOTH",
"-160 1086 OFFCURVE",
"-72 1013 OFFCURVE",
"-62 873 CURVE",
"-22 873 LINE",
"-32 1031 OFFCURVE",
"-150 1142 OFFCURVE",
"-319 1142 CURVE SMOOTH",
"-530 1142 OFFCURVE",
"-637 1000 OFFCURVE",
"-637 801 CURVE SMOOTH",
"-637 633 OFFCURVE",
"-526 473 OFFCURVE",
"-334 473 CURVE SMOOTH"
);
},
{
closed = 1;
nodes = (
"-426 637 LINE",
"-426 941 LINE",
"-321 941 LINE",
"-321 637 LINE",
"-251 637 LINE",
"-251 941 LINE",
"-142 941 LINE",
"-142 981 LINE",
"-466 981 LINE",
"-466 637 LINE"
);
}
);
width = 0;
}
);
unicode = 1136B;
},
{
glyphname = sixcomb_gran;
lastChange = "2020-05-24 21:48:52 +0000";
layers = (
{
anchors = (
{
name = _svara;
position = "{-323, 590}";
},
{
name = _svara_mkmk;
position = "{-663, 807}";
},
{
name = svara_mkmk;
position = "{9, 807}";
}
);
layerId = "229B7033-F00A-4676-AEB9-BF59C6456AE0";
paths = (
{
closed = 1;
nodes = (
"-395 633 OFFCURVE",
"-341 685 OFFCURVE",
"-341 759 CURVE SMOOTH",
"-341 799 LINE",
"-292 799 LINE SMOOTH",
"-273 799 OFFCURVE",
"-262 788 OFFCURVE",
"-262 768 CURVE SMOOTH",
"-262 635 LINE",
"-202 635 LINE",
"-202 768 LINE SMOOTH",
"-202 788 OFFCURVE",
"-191 799 OFFCURVE",
"-171 799 CURVE SMOOTH",
"-4 799 LINE",
"-4 839 LINE",
"-177 839 LINE SMOOTH",
"-206 839 OFFCURVE",
"-226 818 OFFCURVE",
"-230 794 CURVE",
"-235 818 OFFCURVE",
"-254 839 OFFCURVE",
"-284 839 CURVE SMOOTH",
"-341 839 LINE",
"-341 939 LINE",
"-232 939 LINE",
"-232 979 LINE",
"-539 979 LINE",
"-539 813 LINE",
"-499 813 LINE",
"-499 939 LINE",
"-411 939 LINE",
"-411 839 LINE",
"-504 839 LINE SMOOTH",
"-575 839 OFFCURVE",
"-621 794 OFFCURVE",
"-621 736 CURVE SMOOTH",
"-621 672 OFFCURVE",
"-561 633 OFFCURVE",
"-487 633 CURVE SMOOTH"
);
},
{
closed = 1;
nodes = (
"-543 673 OFFCURVE",
"-581 694 OFFCURVE",
"-581 735 CURVE SMOOTH",
"-581 774 OFFCURVE",
"-552 799 OFFCURVE",
"-499 799 CURVE SMOOTH",
"-411 799 LINE",
"-411 753 LINE SMOOTH",
"-411 698 OFFCURVE",
"-442 673 OFFCURVE",
"-492 673 CURVE SMOOTH"
);
},
{
closed = 1;
nodes = (
"-62 635 LINE",
"-62 814 LINE",
"-122 814 LINE",
"-122 635 LINE"
);
}
);
width = 0;
}
);
unicode = 1136C;
},
{
glyphname = acomb_gran;
lastChange = "2020-05-24 21:48:52 +0000";
layers = (
{
anchors = (
{
name = _svara;
position = "{-301, 590}";
},
{
name = _svara_mkmk;
position = "{-620, 807}";
},
{
name = svara_mkmk;
position = "{28, 807}";
}
);
guideLines = (
{
position = "{-145, 750}";
}
);
layerId = "229B7033-F00A-4676-AEB9-BF59C6456AE0";
paths = (
{
closed = 1;
nodes = (
"-346 629 OFFCURVE",
"-290 681 OFFCURVE",
"-290 761 CURVE SMOOTH",
"-290 803 LINE",
"-31 803 LINE",
"-31 843 LINE",
"-290 843 LINE",
"-290 941 LINE",
"-181 941 LINE",
"-181 981 LINE",
"-488 981 LINE",
"-488 814 LINE",
"-448 814 LINE",
"-448 941 LINE",
"-360 941 LINE",
"-360 843 LINE",
"-453 843 LINE SMOOTH",
"-524 843 OFFCURVE",
"-570 796 OFFCURVE",
"-570 737 CURVE SMOOTH",
"-570 668 OFFCURVE",
"-524 629 OFFCURVE",
"-438 629 CURVE SMOOTH"
);
},
{
closed = 1;
nodes = (
"-491 669 OFFCURVE",
"-530 690 OFFCURVE",
"-530 736 CURVE SMOOTH",
"-530 775 OFFCURVE",
"-501 803 OFFCURVE",
"-448 803 CURVE SMOOTH",
"-360 803 LINE",
"-360 754 LINE SMOOTH",
"-360 694 OFFCURVE",
"-391 669 OFFCURVE",
"-441 669 CURVE SMOOTH"
);
},
{
closed = 1;
nodes = (
"-91 730 LINE SMOOTH",
"-91 686 OFFCURVE",
"-97 663 OFFCURVE",
"-129 663 CURVE SMOOTH",
"-156 663 OFFCURVE",
"-178 679 OFFCURVE",
"-178 732 CURVE SMOOTH",
"-178 813 LINE",
"-218 813 LINE",
"-218 732 LINE SMOOTH",
"-218 668 OFFCURVE",
"-189 629 OFFCURVE",
"-129 629 CURVE SMOOTH",
"-68 629 OFFCURVE",
"-31 674 OFFCURVE",
"-31 730 CURVE SMOOTH",
"-31 937 LINE",
"-91 937 LINE"
);
}
);
width = 0;
}
);
unicode = 11370;
},
{
glyphname = kacomb_gran;
lastChange = "2020-05-24 21:48:52 +0000";
layers = (
{
anchors = (
{
name = _svara;
position = "{-361, 590}";
},
{
name = _svara_mkmk;
position = "{-733, 807}";
},
{
name = svara_mkmk;
position = "{3, 807}";
}
);
guideLines = (
{
position = "{-442, 998}";
}
);
layerId = "229B7033-F00A-4676-AEB9-BF59C6456AE0";
paths = (
{
closed = 1;
nodes = (
"-612 669 OFFCURVE",
"-637 695 OFFCURVE",
"-637 727 CURVE SMOOTH",
"-637 775 OFFCURVE",
"-594 807 OFFCURVE",
"-531 807 CURVE SMOOTH",
"-380 807 LINE",
"-380 754 LINE SMOOTH",
"-380 702 OFFCURVE",
"-388 668 OFFCURVE",
"-420 668 CURVE SMOOTH",
"-455 668 OFFCURVE",
"-464 709 OFFCURVE",
"-464 743 CURVE",
"-512 743 LINE",
"-512 710 OFFCURVE",
"-532 669 OFFCURVE",
"-576 669 CURVE SMOOTH"
);
},
{
closed = 1;
nodes = (
"-134 807 OFFCURVE",
"-97 770 OFFCURVE",
"-97 726 CURVE SMOOTH",
"-97 691 OFFCURVE",
"-121 669 OFFCURVE",
"-157 669 CURVE SMOOTH",
"-193 669 OFFCURVE",
"-218 690 OFFCURVE",
"-218 721 CURVE SMOOTH",
"-218 775 OFFCURVE",
"-179 791 OFFCURVE",
"-147 804 CURVE",
"-169 821 LINE",
"-220 811 OFFCURVE",
"-258 771 OFFCURVE",
"-258 721 CURVE SMOOTH",
"-258 663 OFFCURVE",
"-211 629 OFFCURVE",
"-153 629 CURVE SMOOTH",
"-94 629 OFFCURVE",
"-39 663 OFFCURVE",
"-39 726 CURVE SMOOTH",
"-39 790 OFFCURVE",
"-97 847 OFFCURVE",
"-185 847 CURVE SMOOTH",
"-310 847 LINE",
"-310 941 LINE",
"-189 941 LINE",
"-189 981 LINE",
"-570 981 LINE",
"-570 814 LINE",
"-530 814 LINE",
"-530 941 LINE",
"-380 941 LINE",
"-380 847 LINE",
"-536 847 LINE SMOOTH",
"-626 847 OFFCURVE",
"-677 791 OFFCURVE",
"-677 728 CURVE SMOOTH",
"-677 668 OFFCURVE",
"-632 629 OFFCURVE",
"-576 629 CURVE SMOOTH",
"-522 629 OFFCURVE",
"-499 663 OFFCURVE",
"-485 693 CURVE",
"-498 693 LINE",
"-484 663 OFFCURVE",
"-463 629 OFFCURVE",
"-408 629 CURVE SMOOTH",
"-339 629 OFFCURVE",
"-310 685 OFFCURVE",
"-310 761 CURVE SMOOTH",
"-310 807 LINE",
"-210 807 LINE SMOOTH"
);
}
);
width = 0;
}
);
unicode = 11371;
},
{
glyphname = nacomb_gran;
lastChange = "2020-05-24 21:48:52 +0000";
layers = (
{
anchors = (
{
name = _svara;
position = "{-265, 590}";
},
{
name = _svara_mkmk;
position = "{-541, 807}";
},
{
name = svara_mkmk;
position = "{8, 807}";
}
);
layerId = "229B7033-F00A-4676-AEB9-BF59C6456AE0";
paths = (
{
closed = 1;
nodes = (
"-481 565 LINE",
"-308 565 LINE SMOOTH",
"-183 565 OFFCURVE",
"-70 613 OFFCURVE",
"-70 730 CURVE SMOOTH",
"-70 812 OFFCURVE",
"-129 861 OFFCURVE",
"-191 861 CURVE SMOOTH",
"-236 861 OFFCURVE",
"-260 834 OFFCURVE",
"-266 815 CURVE",
"-266 941 LINE",
"-153 941 LINE",
"-153 981 LINE",
"-481 981 LINE",
"-481 651 LINE",
"-441 651 LINE",
"-441 941 LINE",
"-336 941 LINE",
"-336 651 LINE",
"-266 651 LINE",
"-266 755 LINE SMOOTH",
"-266 788 OFFCURVE",
"-245 819 OFFCURVE",
"-207 819 CURVE SMOOTH",
"-168 819 OFFCURVE",
"-140 790 OFFCURVE",
"-140 723 CURVE SMOOTH",
"-140 633 OFFCURVE",
"-198 605 OFFCURVE",
"-325 605 CURVE SMOOTH",
"-481 605 LINE"
);
}
);
width = 0;
}
);
unicode = 11372;
},
{
glyphname = vicomb_gran;
lastChange = "2020-05-24 21:48:52 +0000";
layers = (
{
anchors = (
{
name = _svara;
position = "{-413, 590}";
},
{
name = _svara_mkmk;
position = "{-856, 807}";
},
{
name = svara_mkmk;
position = "{67, 807}";
}
);
layerId = "229B7033-F00A-4676-AEB9-BF59C6456AE0";
paths = (
{
closed = 1;
nodes = (
"-585 631 OFFCURVE",
"-540 671 OFFCURVE",
"-540 726 CURVE SMOOTH",
"-540 784 OFFCURVE",
"-576 822 OFFCURVE",
"-634 822 CURVE SMOOTH",
"-695 822 OFFCURVE",
"-746 776 OFFCURVE",
"-750 710 CURVE",
"-731 694 LINE",
"-728 748 OFFCURVE",
"-697 780 OFFCURVE",
"-657 780 CURVE SMOOTH",
"-615 780 OFFCURVE",
"-597 752 OFFCURVE",
"-597 724 CURVE SMOOTH",
"-597 690 OFFCURVE",
"-621 664 OFFCURVE",
"-662 664 CURVE SMOOTH",
"-707 664 OFFCURVE",
"-748 701 OFFCURVE",
"-748 777 CURVE SMOOTH",
"-748 877 OFFCURVE",
"-681 940 OFFCURVE",
"-574 940 CURVE SMOOTH",
"-482 940 OFFCURVE",
"-410 878 OFFCURVE",
"-410 783 CURVE SMOOTH",
"-410 728 OFFCURVE",
"-434 685 OFFCURVE",
"-461 660 CURVE",
"-449 633 LINE",
"-158 633 LINE",
"-158 977 LINE",
"-228 977 LINE",
"-228 673 LINE",
"-400 673 LINE",
"-378 700 OFFCURVE",
"-351 735 OFFCURVE",
"-351 795 CURVE SMOOTH",
"-351 907 OFFCURVE",
"-447 980 OFFCURVE",
"-566 980 CURVE SMOOTH",
"-694 980 OFFCURVE",
"-788 907 OFFCURVE",
"-788 779 CURVE SMOOTH",
"-788 681 OFFCURVE",
"-721 631 OFFCURVE",
"-652 631 CURVE SMOOTH"
);
},
{
closed = 1;
nodes = (
"-7 633 LINE",
"-7 987 LINE SMOOTH",
"-7 1090 OFFCURVE",
"-71 1151 OFFCURVE",
"-170 1151 CURVE SMOOTH",
"-254 1151 OFFCURVE",
"-315 1105 OFFCURVE",
"-315 1037 CURVE SMOOTH",
"-315 982 OFFCURVE",
"-272 937 OFFCURVE",
"-221 937 CURVE SMOOTH",
"-218 937 LINE",
"-218 977 LINE",
"-221 977 LINE SMOOTH",
"-253 977 OFFCURVE",
"-274 998 OFFCURVE",
"-274 1029 CURVE SMOOTH",
"-274 1074 OFFCURVE",
"-233 1097 OFFCURVE",
"-176 1097 CURVE SMOOTH",
"-90 1097 OFFCURVE",
"-47 1054 OFFCURVE",
"-47 969 CURVE SMOOTH",
"-47 633 LINE"
);
}
);
width = 0;
}
);
unicode = 11373;
},
{
glyphname = pacomb_gran;
lastChange = "2020-05-24 21:48:52 +0000";
layers = (
{
anchors = (
{
name = _svara;
position = "{-236, 590}";
},
{
name = _svara_mkmk;
position = "{-457, 807}";
},
{
name = svara_mkmk;
position = "{-16, 807}";
}
);
layerId = "229B7033-F00A-4676-AEB9-BF59C6456AE0";
paths = (
{
closed = 1;
nodes = (
"-72 633 LINE",
"-72 972 LINE",
"-142 972 LINE",
"-142 673 LINE",
"-330 673 LINE",
"-330 972 LINE",
"-400 972 LINE",
"-400 633 LINE"
);
}
);
width = 0;
}
);
unicode = 11374;
},
{
glyphname = zero_tamil;
lastChange = "2020-05-24 21:48:52 +0000";
layers = (
{
anchors = (
{
name = svara;
position = "{325, 900}";
},
{
name = top;
position = "{325, 640}";
}
);
layerId = "229B7033-F00A-4676-AEB9-BF59C6456AE0";
paths = (
{
closed = 1;
nodes = (
"484 -12 OFFCURVE",
"591 105 OFFCURVE",
"591 279 CURVE SMOOTH",
"591 432 OFFCURVE",
"500 566 OFFCURVE",
"326 566 CURVE SMOOTH",
"168 566 OFFCURVE",
"59 454 OFFCURVE",
"59 279 CURVE SMOOTH",
"59 103 OFFCURVE",
"167 -12 OFFCURVE",
"327 -12 CURVE SMOOTH"
);
},
{
closed = 1;
nodes = (
"435 493 OFFCURVE",
"502 411 OFFCURVE",
"502 278 CURVE SMOOTH",
"502 142 OFFCURVE",
"435 61 OFFCURVE",
"325 61 CURVE SMOOTH",
"212 61 OFFCURVE",
"148 146 OFFCURVE",
"148 278 CURVE SMOOTH",
"148 410 OFFCURVE",
"213 493 OFFCURVE",
"326 493 CURVE SMOOTH"
);
}
);
width = 650;
}
);
unicode = 0BE6;
category = Letter;
},
{
glyphname = one_tamil;
lastChange = "2020-05-24 21:48:52 +0000";
layers = (
{
anchors = (
{
name = svara;
position = "{429, 900}";
},
{
name = top;
position = "{429, 640}";
}
);
layerId = "229B7033-F00A-4676-AEB9-BF59C6456AE0";
paths = (
{
closed = 1;
nodes = (
"427 -5 OFFCURVE",
"514 80 OFFCURVE",
"514 200 CURVE SMOOTH",
"514 263 LINE",
"560 263 LINE SMOOTH",
"643 263 OFFCURVE",
"700 229 OFFCURVE",
"700 154 CURVE SMOOTH",
"700 93 OFFCURVE",
"656 51 OFFCURVE",
"594 51 CURVE SMOOTH",
"542 51 OFFCURVE",
"497 74 OFFCURVE",
"460 111 CURVE",
"429 72 LINE",
"481 21 OFFCURVE",
"535 -5 OFFCURVE",
"609 -5 CURVE SMOOTH",
"713 -5 OFFCURVE",
"795 54 OFFCURVE",
"795 151 CURVE SMOOTH",
"795 259 OFFCURVE",
"704 317 OFFCURVE",
"559 317 CURVE SMOOTH",
"514 317 LINE",
"514 500 LINE",
"689 500 LINE",
"689 554 LINE",
"195 554 LINE",
"195 286 LINE",
"256 286 LINE",
"256 500 LINE",
"419 500 LINE",
"419 317 LINE",
"246 317 LINE SMOOTH",
"137 317 OFFCURVE",
"63 261 OFFCURVE",
"63 161 CURVE SMOOTH",
"63 61 OFFCURVE",
"158 -5 OFFCURVE",
"278 -5 CURVE SMOOTH"
);
},
{
closed = 1;
nodes = (
"188 49 OFFCURVE",
"125 86 OFFCURVE",
"125 160 CURVE SMOOTH",
"125 224 OFFCURVE",
"173 263 OFFCURVE",
"249 263 CURVE SMOOTH",
"419 263 LINE",
"419 189 LINE SMOOTH",
"419 92 OFFCURVE",
"351 49 OFFCURVE",
"270 49 CURVE SMOOTH"
);
}
);
width = 858;
}
);
unicode = 0BE7;
category = Letter;
},
{
glyphname = two_tamil;
lastChange = "2020-05-24 21:48:52 +0000";
layers = (
{
anchors = (
{
name = svara;
position = "{487, 900}";
},
{
name = top;
position = "{487, 640}";
}
);
layerId = "229B7033-F00A-4676-AEB9-BF59C6456AE0";
paths = (
{
closed = 1;
nodes = (
"925 0 LINE",
"925 54 LINE",
"146 54 LINE SMOOTH",
"125 54 OFFCURVE",
"107 69 OFFCURVE",
"107 94 CURVE SMOOTH",
"107 120 OFFCURVE",
"125 135 OFFCURVE",
"146 135 CURVE SMOOTH",
"396 135 LINE SMOOTH",
"538 135 OFFCURVE",
"656 212 OFFCURVE",
"656 336 CURVE SMOOTH",
"656 483 OFFCURVE",
"518 559 OFFCURVE",
"374 559 CURVE SMOOTH",
"230 559 OFFCURVE",
"116 490 OFFCURVE",
"116 347 CURVE SMOOTH",
"116 208 OFFCURVE",
"243 149 OFFCURVE",
"381 149 CURVE",
"381 188 LINE",
"250 188 OFFCURVE",
"175 247 OFFCURVE",
"175 347 CURVE SMOOTH",
"175 450 OFFCURVE",
"254 505 OFFCURVE",
"368 505 CURVE SMOOTH",
"474 505 OFFCURVE",
"561 450 OFFCURVE",
"561 347 CURVE SMOOTH",
"561 255 OFFCURVE",
"495 188 OFFCURVE",
"382 188 CURVE SMOOTH",
"154 188 LINE SMOOTH",
"90 188 OFFCURVE",
"49 154 OFFCURVE",
"49 94 CURVE SMOOTH",
"49 35 OFFCURVE",
"90 0 OFFCURVE",
"154 0 CURVE SMOOTH"
);
}
);
width = 942;
}
);
unicode = 0BE8;
category = Letter;
},
